# Blender 4.0.2
# www.blender.org
mtllib Aktenschrank Schublade.mtl
o FileCab_01_C
v -2.843139 0.842660 1.189042
v -2.843139 0.894148 1.189042
v -2.755208 0.842660 1.189042
v -2.755208 0.894148 1.189042
v -2.847438 0.838360 1.189612
v -2.847438 0.898448 1.189612
v -2.847438 0.838360 1.187132
v -2.847438 0.898448 1.187132
v -2.843139 0.842660 1.187132
v -2.843139 0.894148 1.187132
v -2.843139 0.842660 1.189042
v -2.843139 0.894148 1.189042
v -2.983627 0.658630 1.204869
v -2.983626 0.948415 1.204870
v -2.983627 0.658630 1.191747
v -2.981619 0.946280 1.189612
v -2.983626 0.948415 1.191747
v -2.983436 0.658832 1.190971
v -2.982985 0.659311 1.190294
v -2.845289 0.840510 1.186065
v -2.845289 0.896298 1.186065
v -2.848809 0.718535 1.166298
v -2.848809 0.729461 1.166298
v -2.845315 0.718535 1.172554
v -2.845315 0.729461 1.172554
v -2.845315 0.729461 1.166298
v -2.845315 0.718535 1.166298
v -2.799173 0.729461 1.166333
v -2.799173 0.718535 1.166333
v -2.833245 0.727822 1.164701
v -2.833245 0.720174 1.164701
v -2.833245 0.727822 1.170957
v -2.833245 0.720174 1.170957
v -2.816209 0.729461 1.166841
v -2.816209 0.718535 1.166841
v -2.816209 0.729461 1.160585
v -2.816209 0.718535 1.160585
v -2.799173 0.729461 1.160076
v -2.799173 0.718535 1.160076
v -2.824727 0.729461 1.161889
v -2.824727 0.718535 1.161889
v -2.824727 0.729461 1.168145
v -2.824727 0.718535 1.168145
v -2.840335 0.727822 1.166046
v -2.840335 0.720174 1.166046
v -2.840335 0.727822 1.172302
v -2.840335 0.720174 1.172302
v -2.849212 0.723998 1.165413
v -2.845315 0.723998 1.165413
v -2.833245 0.723998 1.163816
v -2.816209 0.723998 1.159700
v -2.799173 0.723998 1.159191
v -2.824727 0.723998 1.161003
v -2.840335 0.723998 1.165161
v -2.878921 0.723998 1.187070
v -2.871780 0.723998 1.187070
v -2.866941 0.717922 1.187070
v -2.865070 0.718535 1.186195
v -2.865913 0.718356 1.186814
v -2.866941 0.730075 1.187070
v -2.865070 0.729461 1.186195
v -2.865913 0.729641 1.186814
v -2.856600 0.717899 1.187070
v -2.856829 0.718535 1.186190
v -2.857031 0.718349 1.186812
v -2.856600 0.730097 1.187070
v -2.856829 0.729461 1.186294
v -2.857031 0.729647 1.186843
v -2.866094 0.723998 1.186198
v -2.868067 0.723998 1.187070
v -2.866966 0.723998 1.186815
v -2.878921 0.715360 1.189612
v -2.878921 0.732636 1.189612
v -2.853089 0.715360 1.189612
v -2.853089 0.732636 1.189612
v -2.883692 0.723998 1.189612
v -2.871780 0.732636 1.189612
v -2.871780 0.715360 1.189612
v -2.882740 0.730917 1.189612
v -2.882740 0.717079 1.189612
v -2.878921 0.716317 1.187070
v -2.878921 0.715360 1.187987
v -2.878921 0.715640 1.187339
v -2.878921 0.731679 1.187070
v -2.878921 0.732636 1.187987
v -2.878921 0.732356 1.187339
v -2.853089 0.715360 1.187987
v -2.854184 0.716152 1.187070
v -2.853410 0.715592 1.187339
v -2.854184 0.731844 1.187070
v -2.853089 0.732636 1.187987
v -2.853410 0.732404 1.187339
v -2.882743 0.723998 1.187070
v -2.883692 0.723998 1.187987
v -2.883414 0.723998 1.187339
v -2.871780 0.732636 1.187987
v -2.871780 0.731681 1.187070
v -2.871780 0.732357 1.187339
v -2.871780 0.715360 1.187987
v -2.871780 0.716316 1.187070
v -2.871780 0.715640 1.187339
v -2.882740 0.730917 1.187987
v -2.881952 0.730313 1.187070
v -2.882509 0.730740 1.187339
v -2.882740 0.717079 1.187987
v -2.881952 0.717684 1.187070
v -2.882509 0.717256 1.187339
v -2.750908 0.838360 1.189612
v -2.750908 0.898448 1.189612
v -2.750908 0.838360 1.187132
v -2.750908 0.898448 1.187132
v -2.755208 0.842660 1.187132
v -2.755208 0.894148 1.187132
v -2.755208 0.842660 1.189042
v -2.755208 0.894148 1.189042
v -2.614720 0.948415 1.191747
v -2.616021 0.660013 1.189808
v -2.615361 0.659311 1.190294
v -2.753057 0.840510 1.186065
v -2.753057 0.896298 1.186065
v -2.749537 0.718535 1.166298
v -2.749537 0.729461 1.166298
v -2.753031 0.718535 1.172554
v -2.753031 0.729461 1.172554
v -2.753031 0.729461 1.166298
v -2.753031 0.718535 1.166298
v -2.765101 0.727822 1.164701
v -2.765101 0.720174 1.164701
v -2.765101 0.727822 1.170957
v -2.765101 0.720174 1.170957
v -2.782137 0.729461 1.166841
v -2.782137 0.718535 1.166841
v -2.782137 0.729461 1.160585
v -2.782137 0.718535 1.160585
v -2.773619 0.729461 1.161889
v -2.773619 0.718535 1.161889
v -2.773619 0.729461 1.168145
v -2.773619 0.718535 1.168145
v -2.758011 0.727822 1.166046
v -2.758011 0.720174 1.166046
v -2.758011 0.727822 1.172302
v -2.758011 0.720174 1.172302
v -2.749135 0.723998 1.165413
v -2.753031 0.723998 1.165413
v -2.765101 0.723998 1.163816
v -2.782137 0.723998 1.159700
v -2.773619 0.723998 1.161003
v -2.758011 0.723998 1.165161
v -2.719426 0.723998 1.187070
v -2.726567 0.723998 1.187070
v -2.731405 0.717922 1.187070
v -2.733276 0.718535 1.186195
v -2.732433 0.718356 1.186814
v -2.731405 0.730075 1.187070
v -2.733276 0.729461 1.186195
v -2.732433 0.729641 1.186814
v -2.741747 0.717899 1.187070
v -2.741517 0.718535 1.186190
v -2.741315 0.718349 1.186812
v -2.741747 0.730097 1.187070
v -2.741517 0.729461 1.186294
v -2.741315 0.729647 1.186843
v -2.732252 0.723998 1.186198
v -2.730279 0.723998 1.187070
v -2.731380 0.723998 1.186815
v -2.719426 0.715360 1.189612
v -2.719426 0.732636 1.189612
v -2.745257 0.715360 1.189612
v -2.745257 0.732636 1.189612
v -2.713759 0.723998 1.189612
v -2.726567 0.732636 1.189612
v -2.726567 0.715360 1.189612
v -2.715607 0.730917 1.189612
v -2.715607 0.717079 1.189612
v -2.719426 0.716317 1.187070
v -2.719426 0.715360 1.187987
v -2.719426 0.715640 1.187339
v -2.719426 0.731679 1.187070
v -2.719426 0.732636 1.187987
v -2.719426 0.732356 1.187339
v -2.745257 0.715360 1.187987
v -2.744162 0.716152 1.187070
v -2.744936 0.715592 1.187339
v -2.744162 0.731844 1.187070
v -2.745257 0.732636 1.187987
v -2.744936 0.732404 1.187339
v -2.714709 0.723998 1.187070
v -2.713759 0.723998 1.187987
v -2.714037 0.723998 1.187339
v -2.726567 0.732636 1.187987
v -2.726567 0.731681 1.187070
v -2.726567 0.732357 1.187339
v -2.726567 0.715360 1.187987
v -2.726567 0.716316 1.187070
v -2.726567 0.715640 1.187339
v -2.715607 0.730917 1.187987
v -2.716395 0.730313 1.187070
v -2.715837 0.730740 1.187339
v -2.715607 0.717079 1.187987
v -2.716395 0.717684 1.187070
v -2.715837 0.717256 1.187339
v -2.982325 0.660013 1.189808
v -2.616727 0.660764 1.189612
v -2.616727 0.946280 1.189612
v -2.982325 0.947031 1.189809
v -2.614720 0.948415 1.204869
v -2.614910 0.948213 1.190971
v -2.616021 0.947031 1.189808
v -2.981619 0.660764 1.189612
v -2.983436 0.948213 1.190971
v -2.982985 0.947733 1.190294
v -2.843139 0.842660 1.189612
v -2.843139 0.894148 1.189612
v -2.615361 0.947733 1.190294
v -2.755208 0.842660 1.189612
v -2.755208 0.894148 1.189612
v -2.614720 0.658630 1.204869
v -2.614720 0.658630 1.191747
v -2.614910 0.658832 1.190971
v -2.983626 0.948415 1.204870
v -2.799173 0.658630 1.204869
v -2.799173 0.948415 1.204870
v -2.799173 0.672302 1.204869
v -2.972301 0.867806 1.204870
v -2.972301 0.672302 1.204869
v -2.983627 0.658630 1.204869
v -2.962857 0.867806 1.204870
v -2.799173 0.682078 1.204869
v -2.972301 0.867806 1.593050
v -2.972301 0.672302 1.593050
v -2.799173 0.672302 1.593050
v -2.799173 0.682078 1.583666
v -2.962857 0.682078 1.583666
v -2.962856 0.867806 1.583666
v -2.799173 0.867806 1.593050
v -2.799173 0.867806 1.583666
v -2.962857 0.682078 1.204869
v -2.614720 0.948415 1.204869
v -2.626045 0.867806 1.204869
v -2.626045 0.672302 1.204869
v -2.614720 0.658630 1.204869
v -2.635490 0.867806 1.204869
v -2.626045 0.867806 1.593050
v -2.626045 0.672302 1.593050
v -2.635489 0.682078 1.583666
v -2.635489 0.867806 1.583666
v -2.635489 0.682078 1.204869
vn -0.0000 -0.0000 -1.0000
vn -1.0000 -0.0000 -0.0000
vn -0.4078 0.6578 -0.6332
vn -0.4078 -0.6578 -0.6332
vn 0.4078 -0.6578 -0.6332
vn -0.0000 -1.0000 -0.0000
vn -0.0072 0.0072 -0.9999
vn 0.3575 -0.6068 -0.7100
vn 0.3575 0.6068 -0.7100
vn -0.0072 -0.0072 -0.9999
vn 0.0072 -0.0072 -0.9999
vn -0.3575 0.6068 -0.7100
vn -0.0000 1.0000 -0.0000
vn 1.0000 -0.0000 -0.0000
vn 0.0072 0.0072 -0.9999
vn -0.3575 -0.6068 -0.7100
vn 0.4078 0.6578 -0.6332
vn -0.0506 -0.0001 -0.9987
vn -0.6990 0.0033 -0.7151
vn -0.6092 0.3337 -0.7194
vn -0.0636 0.0420 -0.9971
vn -0.7084 -0.0000 -0.7058
vn -0.4672 0.7518 -0.4654
vn 0.1471 0.7461 -0.6494
vn -0.0103 -0.0000 -0.9999
vn -0.8620 0.4904 -0.1285
vn -0.9930 -0.0000 -0.1183
vn -0.8699 0.4932 -0.0001
vn -0.7685 -0.0000 -0.6399
vn -0.5046 0.7503 -0.4271
vn 0.0553 0.9985 -0.0000
vn 0.1345 -0.9909 -0.0000
vn 0.0557 -0.9984 -0.0000
vn 0.1471 -0.7461 -0.6494
vn 0.0467 -0.8630 -0.5030
vn -0.4687 -0.7499 -0.4669
vn -0.0000 -0.9999 -0.0107
vn -0.5059 -0.7488 -0.4282
vn 0.0467 0.8630 -0.5030
vn 0.1345 0.9909 -0.0000
vn -0.1044 0.9945 -0.0000
vn -0.2192 0.8373 -0.5008
vn 0.1246 -0.0000 0.9922
vn 0.2634 -0.0000 0.9647
vn -0.1105 -0.0000 -0.9939
vn -0.2731 -0.0000 -0.9620
vn -0.2192 -0.8373 -0.5008
vn -0.0958 -0.9954 -0.0000
vn -0.1044 -0.9945 -0.0000
vn -0.2047 -0.7990 -0.5654
vn -0.0430 -0.7935 -0.6070
vn -0.0000 -0.7943 -0.6076
vn -0.2047 0.7990 -0.5654
vn -0.0958 0.9954 -0.0000
vn -0.0430 0.7935 -0.6070
vn 0.2283 -0.0000 0.9736
vn 0.0707 -0.0000 0.9975
vn -0.2360 -0.0000 -0.9717
vn -0.0707 -0.0000 -0.9975
vn -0.0000 0.7943 -0.6076
vn -0.0000 -0.0000 1.0000
vn 0.6618 -0.0026 0.7497
vn 0.0001 0.9999 -0.0106
vn -0.0003 -0.9935 -0.1142
vn 0.6678 -0.7237 -0.1742
vn -0.0006 -0.0542 -0.9985
vn -0.0412 -0.0000 -0.9992
vn -0.0234 -0.0428 -0.9988
vn -0.0003 0.9935 -0.1142
vn -0.1530 0.9809 -0.1200
vn -0.1550 0.9879 -0.0000
vn 0.7731 -0.0030 0.6343
vn -0.0233 0.0406 -0.9989
vn -0.2499 0.4208 -0.8721
vn -0.3988 -0.0000 -0.9170
vn 0.0428 0.0350 -0.9985
vn 0.6367 0.4996 -0.5873
vn 0.0427 -0.0370 -0.9984
vn 0.6265 -0.5217 -0.5791
vn -0.2485 -0.4380 -0.8639
vn 0.0534 0.0595 -0.9968
vn 0.0534 -0.0595 -0.9968
vn 0.6678 0.7237 -0.1742
vn -0.1530 -0.9809 -0.1200
vn -0.1550 -0.9879 -0.0000
vn -0.0045 0.0316 -0.9995
vn -0.0045 -0.0316 -0.9995
vn -0.0636 -0.0420 -0.9971
vn -0.0006 0.0542 -0.9985
vn -0.8616 -0.4917 -0.1264
vn -0.8699 -0.4932 -0.0000
vn -0.1045 0.6935 -0.7128
vn -0.0014 0.7186 -0.6954
vn 0.3766 0.4127 -0.8294
vn 0.3766 -0.4127 -0.8294
vn -0.0014 -0.7186 -0.6954
vn -0.1045 -0.6935 -0.7129
vn -0.6092 -0.3337 -0.7194
vn 0.0566 -0.0000 -0.9984
vn 0.0647 0.0408 -0.9971
vn 0.5800 0.3739 -0.7237
vn 0.7015 -0.0000 -0.7127
vn 0.7084 -0.0000 -0.7058
vn 0.0101 -0.0000 -0.9999
vn -0.1471 0.7461 -0.6494
vn 0.4672 0.7518 -0.4654
vn 0.8302 0.5433 -0.1248
vn 0.8362 0.5485 -0.0000
vn 0.9927 -0.0000 -0.1203
vn 0.5046 0.7503 -0.4271
vn 0.7685 -0.0000 -0.6399
vn -0.0553 0.9985 -0.0000
vn -0.1345 -0.9909 -0.0000
vn -0.0468 -0.8630 -0.5030
vn -0.1471 -0.7461 -0.6494
vn -0.0557 -0.9984 -0.0000
vn 0.4687 -0.7499 -0.4669
vn 0.5059 -0.7488 -0.4282
vn -0.0467 0.8630 -0.5030
vn 0.2192 0.8373 -0.5008
vn 0.1044 0.9945 -0.0000
vn -0.1345 0.9909 -0.0000
vn -0.1246 -0.0000 0.9922
vn -0.2634 -0.0000 0.9647
vn 0.1105 -0.0000 -0.9939
vn 0.2192 -0.8373 -0.5008
vn 0.2731 -0.0000 -0.9620
vn 0.0958 -0.9954 -0.0000
vn 0.2047 -0.7990 -0.5654
vn 0.1044 -0.9945 -0.0000
vn 0.0431 -0.7935 -0.6070
vn 0.2047 0.7990 -0.5654
vn 0.0430 0.7935 -0.6070
vn 0.0958 0.9954 -0.0000
vn -0.2283 -0.0000 0.9736
vn -0.0707 -0.0000 0.9975
vn 0.2361 -0.0000 -0.9717
vn 0.0707 -0.0000 -0.9975
vn -0.6618 -0.0026 0.7497
vn -0.0001 0.9999 -0.0106
vn 0.0003 -0.9935 -0.1142
vn -0.6678 -0.7237 -0.1742
vn 0.0002 -0.0542 -0.9985
vn 0.0234 -0.0428 -0.9988
vn 0.0412 -0.0000 -0.9991
vn 0.0003 0.9935 -0.1142
vn 0.1550 0.9879 -0.0000
vn 0.1530 0.9809 -0.1200
vn -0.7731 -0.0030 0.6343
vn 0.3988 -0.0000 -0.9170
vn 0.2499 0.4208 -0.8721
vn 0.0233 0.0406 -0.9989
vn -0.6367 0.4996 -0.5873
vn -0.0428 0.0350 -0.9985
vn -0.6265 -0.5217 -0.5791
vn -0.0427 -0.0370 -0.9984
vn 0.2485 -0.4380 -0.8639
vn -0.0534 -0.0595 -0.9968
vn -0.0534 0.0595 -0.9968
vn -0.6678 0.7237 -0.1742
vn 0.1530 -0.9809 -0.1200
vn 0.1550 -0.9879 -0.0000
vn 0.0045 0.0316 -0.9995
vn 0.0045 -0.0316 -0.9995
vn 0.0647 -0.0408 -0.9971
vn 0.0002 0.0542 -0.9985
vn 0.8362 -0.5484 -0.0001
vn 0.8302 -0.5433 -0.1248
vn 0.0014 0.7186 -0.6954
vn 0.1045 0.6935 -0.7129
vn -0.3766 -0.4127 -0.8294
vn -0.3766 0.4127 -0.8294
vn 0.0014 -0.7186 -0.6954
vn 0.5800 -0.3739 -0.7237
vn 0.1045 -0.6935 -0.7129
vn 0.3607 0.4597 -0.8115
vn 0.5198 0.6620 -0.5399
vn 0.5199 -0.6622 -0.5396
vn 0.3607 -0.4598 -0.8115
vn -0.3607 0.4597 -0.8115
vn -0.3607 -0.4598 -0.8115
vn -0.5199 -0.6622 -0.5395
vn -0.5198 0.6621 -0.5399
vn 0.9999 -0.0000 -0.0137
vn 0.2004 -0.2557 -0.9458
vn 0.2004 0.2557 -0.9458
vn 0.0008 -0.0011 -1.0000
vn 0.0016 0.0021 -1.0000
vn -0.9999 -0.0000 -0.0137
vn -0.2004 -0.2557 -0.9458
vn -0.2004 0.2557 -0.9458
vn -0.0008 -0.0011 -1.0000
vn -0.0016 0.0020 -1.0000
vn -0.0000 -0.9999 -0.0145
vn -0.0000 0.9999 -0.0146
vt 0.974551 0.911738
vt 0.974551 0.984366
vt 0.932024 0.984366
vt 0.932024 0.911738
vt 0.871318 0.830299
vt 0.904257 0.830299
vt 0.904257 0.831659
vt 0.871318 0.831659
vt 0.758939 0.633649
vt 0.760299 0.633649
vt 0.760299 0.686566
vt 0.758940 0.686566
vt 0.903079 0.832975
vt 0.901900 0.834291
vt 0.873675 0.834291
vt 0.872496 0.832975
vt 0.757623 0.634828
vt 0.757624 0.685388
vt 0.756308 0.684209
vt 0.756307 0.636006
vt 0.755261 0.684209
vt 0.755261 0.636006
vt 0.901900 0.835338
vt 0.873675 0.835338
vt 0.985169 0.993275
vt 0.985169 0.942715
vt 0.986485 0.943894
vt 0.986485 0.992096
vt 0.983853 0.994454
vt 0.983853 0.941537
vt 0.982494 0.994454
vt 0.982494 0.941537
vt 0.958681 0.781183
vt 0.958689 0.780787
vt 0.962385 0.781774
vt 0.962143 0.782108
vt 0.955025 0.528315
vt 0.956907 0.528279
vt 0.957198 0.529321
vt 0.954986 0.529725
vt 0.962543 0.781418
vt 0.958750 0.780405
vt 0.958980 0.779545
vt 0.962773 0.780557
vt 0.955326 0.517535
vt 0.957703 0.517934
vt 0.959750 0.528021
vt 0.949251 0.530434
vt 0.950324 0.527758
vt 0.952799 0.529198
vt 0.952650 0.531655
vt 0.953148 0.528174
vt 0.950262 0.520062
vt 0.952930 0.517801
vt 0.957211 0.531782
vt 0.960672 0.530752
vt 0.961297 0.535078
vt 0.957473 0.536378
vt 0.388964 0.941497
vt 0.388964 0.945689
vt 0.385007 0.945689
vt 0.385007 0.941497
vt 0.954922 0.531999
vt 0.954798 0.536460
vt 0.952132 0.536229
vt 0.947743 0.540603
vt 0.948387 0.534719
vt 0.951403 0.541906
vt 0.946412 0.558028
vt 0.947059 0.546429
vt 0.951067 0.547092
vt 0.950581 0.558144
vt 0.957884 0.542086
vt 0.961611 0.540989
vt 0.961970 0.546845
vt 0.957932 0.547283
vt 0.380090 0.940598
vt 0.380090 0.946588
vt 0.375366 0.946588
vt 0.375366 0.940598
vt 0.954642 0.542063
vt 0.954497 0.547280
vt 0.961971 0.558461
vt 0.957801 0.558345
vt 0.366023 0.946588
vt 0.366023 0.940598
vt 0.954191 0.558245
vt 0.391697 0.940598
vt 0.391697 0.946588
vt 0.960269 0.520310
vt 0.953683 0.787683
vt 0.953661 0.797929
vt 0.952770 0.797927
vt 0.952792 0.787682
vt 0.954470 0.787684
vt 0.958681 0.787684
vt 0.958681 0.789719
vt 0.955350 0.790336
vt 0.963679 0.787683
vt 0.963678 0.783769
vt 0.964569 0.783769
vt 0.964570 0.787682
vt 0.963665 0.783657
vt 0.962722 0.781564
vt 0.963535 0.781198
vt 0.964477 0.783291
vt 0.401524 0.940598
vt 0.401481 0.946588
vt 0.955354 0.516512
vt 0.957770 0.517019
vt 0.957736 0.517468
vt 0.955340 0.517036
vt 0.960609 0.520079
vt 0.960352 0.520090
vt 0.402112 0.940249
vt 0.402115 0.946936
vt 0.401839 0.946689
vt 0.401845 0.940496
vt 0.949912 0.519785
vt 0.952914 0.516883
vt 0.952923 0.517334
vt 0.950173 0.519815
vt 0.962025 0.796006
vt 0.962983 0.797330
vt 0.954380 0.797330
vt 0.955338 0.796006
vt 0.953946 0.798176
vt 0.963417 0.798176
vt 0.963417 0.799067
vt 0.953946 0.799067
vt 0.953684 0.783769
vt 0.952794 0.783769
vt 0.962892 0.783769
vt 0.958681 0.783769
vt 0.954471 0.783769
vt 0.955220 0.782108
vt 0.962893 0.787684
vt 0.962013 0.790336
vt 0.963701 0.797929
vt 0.964592 0.797927
vt 0.958612 0.780405
vt 0.954820 0.781418
vt 0.954590 0.780557
vt 0.958383 0.779545
vt 0.963291 0.783769
vt 0.963292 0.787684
vt 0.963290 0.797779
vt 0.954073 0.797779
vt 0.954039 0.797754
vt 0.954071 0.787684
vt 0.954072 0.783757
vt 0.954958 0.781790
vt 0.953697 0.783657
vt 0.954640 0.781564
vt 0.963323 0.797754
vt 0.954072 0.783769
vt 0.962405 0.781790
vt 0.963291 0.783756
vt 0.954978 0.781774
vt 0.958674 0.780787
vt 0.952885 0.783291
vt 0.953828 0.781198
vt 0.905484 0.951467
vt 0.906844 0.951467
vt 0.906843 0.984407
vt 0.905484 0.984407
vt 0.908159 0.983229
vt 0.908159 0.952646
vt 0.909475 0.953824
vt 0.909475 0.982050
vt 0.910522 0.953824
vt 0.910522 0.982050
vt 0.971490 0.813535
vt 0.970566 0.810073
vt 0.970900 0.809831
vt 0.971886 0.813527
vt 0.953357 0.588174
vt 0.953396 0.586764
vt 0.955583 0.587291
vt 0.955234 0.588315
vt 0.971256 0.809673
vt 0.972116 0.809443
vt 0.973129 0.813236
vt 0.972268 0.813466
vt 0.955453 0.598688
vt 0.953057 0.598954
vt 0.958058 0.588731
vt 0.947710 0.585737
vt 0.951171 0.584707
vt 0.951184 0.587168
vt 0.948633 0.588468
vt 0.951475 0.588210
vt 0.950680 0.598555
vt 0.948142 0.596149
vt 0.955732 0.584835
vt 0.956250 0.580260
vt 0.959996 0.581771
vt 0.959132 0.586055
vt 0.343082 0.941497
vt 0.347038 0.941497
vt 0.347038 0.945689
vt 0.343082 0.945689
vt 0.953460 0.584490
vt 0.950910 0.580111
vt 0.953584 0.580029
vt 0.946771 0.575500
vt 0.950498 0.574403
vt 0.947086 0.581411
vt 0.950451 0.569206
vt 0.946412 0.569644
vt 0.956979 0.574584
vt 0.957315 0.569397
vt 0.961324 0.570060
vt 0.960639 0.575887
vt 0.351956 0.940598
vt 0.356680 0.940598
vt 0.356680 0.946588
vt 0.351956 0.946588
vt 0.953740 0.574426
vt 0.953886 0.569209
vt 0.340349 0.940598
vt 0.340349 0.946588
vt 0.958147 0.596459
vt 0.964990 0.818533
vt 0.964992 0.819424
vt 0.954746 0.819446
vt 0.954744 0.818555
vt 0.964990 0.817746
vt 0.962337 0.816866
vt 0.962955 0.813535
vt 0.964990 0.813535
vt 0.964990 0.808537
vt 0.964992 0.807646
vt 0.968905 0.807647
vt 0.968905 0.808538
vt 0.969017 0.808551
vt 0.969382 0.807739
vt 0.971476 0.808681
vt 0.971110 0.809494
vt 0.330565 0.946588
vt 0.330522 0.940598
vt 0.953029 0.599977
vt 0.953043 0.599453
vt 0.955460 0.599155
vt 0.955469 0.599606
vt 0.958217 0.596683
vt 0.958474 0.596708
vt 0.329934 0.940249
vt 0.330201 0.940496
vt 0.330206 0.946689
vt 0.329931 0.946936
vt 0.947777 0.596406
vt 0.948039 0.596391
vt 0.950647 0.599021
vt 0.950612 0.599470
vt 0.956668 0.810191
vt 0.956668 0.816878
vt 0.955344 0.817836
vt 0.955344 0.809233
vt 0.954498 0.818270
vt 0.953607 0.818270
vt 0.953607 0.808799
vt 0.954498 0.808799
vt 0.968905 0.818532
vt 0.968905 0.819422
vt 0.968904 0.813535
vt 0.968905 0.809324
vt 0.968905 0.817745
vt 0.970566 0.816996
vt 0.964990 0.809323
vt 0.962337 0.810203
vt 0.954744 0.808515
vt 0.954746 0.807624
vt 0.972268 0.813603
vt 0.973129 0.813833
vt 0.972116 0.817626
vt 0.971256 0.817396
vt 0.964990 0.808924
vt 0.968905 0.808925
vt 0.954894 0.818143
vt 0.954894 0.808926
vt 0.964990 0.818146
vt 0.954919 0.818177
vt 0.970884 0.817258
vt 0.968917 0.818144
vt 0.971110 0.817576
vt 0.969017 0.818519
vt 0.954919 0.808893
vt 0.968905 0.818144
vt 0.968917 0.808925
vt 0.970884 0.809811
vt 0.971886 0.813542
vt 0.970900 0.817238
vt 0.971476 0.818388
vt 0.969382 0.819331
vt 0.993188 0.109785
vt 0.993188 0.061581
vt 0.994234 0.061581
vt 0.994234 0.109785
vt 0.396215 0.713345
vt 0.396661 0.713083
vt 0.396661 0.871720
vt 0.396217 0.871458
vt 0.194484 0.713352
vt 0.194482 0.871461
vt 0.194038 0.871723
vt 0.194040 0.713090
vt 0.397097 0.871830
vt 0.397099 0.712972
vt 0.404293 0.712972
vt 0.404290 0.871830
vt 0.395768 0.871073
vt 0.395766 0.713730
vt 0.395366 0.870662
vt 0.395364 0.714142
vt 0.193600 0.871833
vt 0.186406 0.871833
vt 0.186408 0.712979
vt 0.193601 0.712979
vt 0.194932 0.871076
vt 0.194933 0.713737
vt 0.271247 0.770948
vt 0.195333 0.870664
vt 0.195331 0.714145
vt 0.271246 0.742722
vt 0.319450 0.770948
vt 0.396468 0.872452
vt 0.396468 0.879646
vt 0.194230 0.879646
vt 0.194230 0.872452
vt 0.396364 0.872012
vt 0.194334 0.872016
vt 0.194581 0.871562
vt 0.396115 0.871555
vt 0.395751 0.713717
vt 0.194948 0.713724
vt 0.194586 0.713255
vt 0.396116 0.713246
vt 0.396467 0.712350
vt 0.194233 0.712359
vt 0.194233 0.705165
vt 0.396467 0.705156
vt 0.396363 0.712791
vt 0.194338 0.712799
vt 0.395753 0.871087
vt 0.194945 0.871091
vt 0.319450 0.742722
vt 0.785471 0.931377
vt 0.785471 0.846188
vt 0.924086 0.846188
vt 0.882133 0.931377
vt 0.924086 0.942187
vt 0.882133 0.936292
vt 0.773266 0.942187
vt 0.780383 0.936292
vt 0.858449 0.730312
vt 0.773260 0.730311
vt 0.773260 0.633650
vt 0.858449 0.633650
vt 0.926818 0.292487
vt 0.729676 0.292487
vt 0.729676 0.207298
vt 0.926818 0.207298
vt 0.729676 0.105720
vt 0.931703 0.105720
vt 0.926818 0.110637
vt 0.729676 0.110637
vt 0.931712 0.624437
vt 0.729684 0.624437
vt 0.729684 0.534333
vt 0.931712 0.534333
vt 0.729676 0.003971
vt 0.931703 0.003971
vt 0.863364 0.836944
vt 0.773260 0.836944
vt 0.773260 0.735195
vt 0.863364 0.735195
vt 0.773266 0.846186
vt 0.780383 0.846186
s 1
usemtl comic
f 3/1/1 1/2/1 2/3/1 4/4/1
f 5/5/2 6/6/2 8/7/3 7/8/4
f 110/9/5 108/10/6 5/11/6 7/12/4
f 21/13/7 10/14/8 9/15/9 20/16/10
f 119/17/11 20/18/10 9/19/9 112/20/12
f 112/20/12 9/19/9 11/21/13 114/22/13
f 10/14/8 12/23/14 11/24/14 9/15/9
f 21/25/7 120/26/15 113/27/16 10/28/8
f 8/29/3 111/30/17 120/26/15 21/25/7
f 6/31/13 109/32/13 111/30/17 8/29/3
f 110/9/5 7/12/4 20/18/10 119/17/11
f 8/7/3 21/13/7 20/16/10 7/8/4
f 93/33/18 95/34/19 104/35/20 103/36/21
f 48/37/22 23/38/23 26/39/24 49/40/25
f 102/41/26 94/42/27 76/43/2 79/44/28
f 48/37/22 69/45/29 61/46/30 23/38/23
f 26/39/24 23/38/23 25/47/31
f 47/48/32 24/49/33 27/50/34 45/51/35
f 22/52/36 27/50/34 24/49/33
f 24/49/33 64/53/37 58/54/38 22/52/36
f 44/55/39 46/56/40 32/57/41 30/58/42
f 46/59/43 47/60/43 33/61/44 32/62/44
f 54/63/45 50/64/46 31/65/47 45/51/35
f 43/66/48 33/67/49 31/65/47 41/68/50
f 29/69/6 35/70/6 37/71/51 39/72/52
f 40/73/53 42/74/54 34/75/13 36/76/55
f 42/77/56 43/78/56 35/79/57 34/80/57
f 53/81/58 51/82/59 37/71/51 41/68/50
f 36/76/55 34/75/13 28/83/13 38/84/60
f 34/80/57 35/79/57 29/85/61 28/86/61
f 51/82/59 52/87/1 39/72/52 37/71/51
f 50/64/46 53/81/58 41/68/50 31/65/47
f 32/62/44 33/61/44 43/78/56 42/77/56
f 30/58/42 32/57/41 42/74/54 40/73/53
f 35/70/6 43/66/48 41/68/50 37/71/51
f 49/40/25 54/63/45 45/51/35 27/50/34
f 25/88/62 24/89/62 47/60/43 46/59/43
f 26/39/24 25/47/31 46/56/40 44/55/39
f 33/67/49 47/48/32 45/51/35 31/65/47
f 26/39/24 44/55/39 54/63/45 49/40/25
f 30/58/42 40/73/53 53/81/58 50/64/46
f 36/76/55 38/84/60 52/87/1 51/82/59
f 40/73/53 36/76/55 51/82/59 53/81/58
f 44/55/39 30/58/42 50/64/46 54/63/45
f 22/52/36 48/37/22 49/40/25 27/50/34
f 23/38/23 61/46/30 67/90/63 25/47/31
f 99/91/64 87/92/65 74/93/6 78/94/6
f 100/95/66 56/96/1 70/97/67 57/98/68
f 96/99/69 85/100/70 73/101/71 77/102/13
f 85/103/70 102/104/26 79/105/28 73/106/71
f 25/88/62 67/107/72 64/108/72 24/89/62
f 70/109/67 60/110/73 62/111/74 71/112/75
f 71/112/75 62/111/74 61/46/30 69/45/29
f 60/110/73 66/113/76 68/114/77 62/111/74
f 62/111/74 68/114/77 67/90/63 61/46/30
f 66/115/76 63/116/78 65/117/79 68/118/77
f 68/118/77 65/117/79 64/108/72 67/107/72
f 63/119/78 57/120/68 59/121/80 65/122/79
f 65/122/79 59/121/80 58/54/38 64/53/37
f 57/120/68 70/109/67 71/112/75 59/121/80
f 59/121/80 71/112/75 69/45/29 58/54/38
f 66/123/76 90/124/81 88/125/82 63/126/78
f 87/127/65 91/128/83 75/129/14 74/130/14
f 82/131/84 99/91/64 78/94/6 72/132/85
f 93/33/18 103/36/21 84/133/86 55/134/1
f 81/135/87 106/136/88 93/33/18 55/134/1
f 97/137/89 56/96/1 55/134/1 84/133/86
f 70/97/67 56/96/1 97/137/89 60/138/73
f 60/138/73 97/137/89 90/124/81 66/123/76
f 63/126/78 88/125/82 100/95/66 57/98/68
f 55/134/1 56/96/1 100/95/66 81/135/87
f 91/139/83 96/99/69 77/102/13 75/140/13
f 94/141/27 105/142/90 80/143/91 76/144/2
f 95/34/19 94/42/27 102/41/26 104/35/20
f 84/133/86 86/145/92 98/146/93 97/137/89
f 86/145/92 85/100/70 96/99/69 98/146/93
f 90/124/81 92/147/94 89/148/95 88/125/82
f 92/147/94 91/128/83 87/127/65 89/148/95
f 88/125/82 89/149/95 101/150/96 100/95/66
f 89/149/95 87/92/65 99/91/64 101/150/96
f 81/135/87 83/151/97 107/152/98 106/136/88
f 83/151/97 82/153/84 105/154/90 107/152/98
f 97/137/89 98/146/93 92/155/94 90/124/81
f 98/146/93 96/99/69 91/139/83 92/155/94
f 100/95/66 101/150/96 83/156/97 81/135/87
f 101/150/96 99/91/64 82/131/84 83/156/97
f 103/36/21 104/157/20 86/158/92 84/133/86
f 104/157/20 102/104/26 85/103/70 86/158/92
f 106/136/88 107/159/98 95/160/19 93/33/18
f 107/159/98 105/142/90 94/141/27 95/160/19
f 105/154/90 82/153/84 72/161/85 80/162/91
f 22/52/36 58/54/38 69/45/29 48/37/22
f 108/163/14 110/164/5 111/165/17 109/166/14
f 120/167/15 119/168/11 112/169/12 113/170/16
f 113/170/16 112/169/12 114/171/2 115/172/2
f 111/165/17 110/164/5 119/168/11 120/167/15
f 187/173/99 197/174/100 198/175/101 189/176/102
f 143/177/103 144/178/104 125/179/105 122/180/106
f 196/181/107 173/182/108 170/183/14 188/184/109
f 143/177/103 122/180/106 155/185/110 163/186/111
f 125/179/105 124/187/112 122/180/106
f 142/188/113 140/189/114 126/190/115 123/191/116
f 121/192/117 123/191/116 126/190/115
f 123/191/116 121/192/117 152/193/118 158/194/37
f 139/195/119 127/196/120 129/197/121 141/198/122
f 141/199/123 129/200/124 130/201/124 142/202/123
f 148/203/125 140/189/114 128/204/126 145/205/127
f 138/206/128 136/207/129 128/204/126 130/208/130
f 29/69/6 39/72/52 134/209/131 132/210/6
f 135/211/132 133/212/133 131/213/13 137/214/134
f 137/215/135 131/216/136 132/217/136 138/218/135
f 147/219/137 136/207/129 134/209/131 146/220/138
f 133/212/133 38/84/60 28/83/13 131/213/13
f 131/216/136 28/86/61 29/85/61 132/217/136
f 146/220/138 134/209/131 39/72/52 52/87/1
f 145/205/127 128/204/126 136/207/129 147/219/137
f 129/200/124 137/215/135 138/218/135 130/201/124
f 127/196/120 135/211/132 137/214/134 129/197/121
f 132/210/6 134/209/131 136/207/129 138/206/128
f 144/178/104 126/190/115 140/189/114 148/203/125
f 124/221/139 141/199/123 142/202/123 123/222/139
f 125/179/105 139/195/119 141/198/122 124/187/112
f 130/208/130 128/204/126 140/189/114 142/188/113
f 125/179/105 144/178/104 148/203/125 139/195/119
f 127/196/120 145/205/127 147/219/137 135/211/132
f 133/212/133 146/220/138 52/87/1 38/84/60
f 135/211/132 147/219/137 146/220/138 133/212/133
f 139/195/119 148/203/125 145/205/127 127/196/120
f 121/192/117 126/190/115 144/178/104 143/177/103
f 122/180/106 124/187/112 161/223/140 155/185/110
f 193/224/141 172/225/6 168/226/6 181/227/142
f 194/228/143 151/229/144 164/230/145 150/231/1
f 190/232/146 171/233/13 167/234/147 179/235/148
f 179/236/148 167/237/147 173/238/108 196/239/107
f 124/221/139 123/222/139 158/240/149 161/241/149
f 164/242/145 165/243/150 156/244/151 154/245/152
f 165/243/150 163/186/111 155/185/110 156/244/151
f 154/245/152 156/244/151 162/246/153 160/247/154
f 156/244/151 155/185/110 161/223/140 162/246/153
f 160/248/154 162/249/153 159/250/155 157/251/156
f 162/249/153 161/241/149 158/240/149 159/250/155
f 157/252/156 159/253/155 153/254/157 151/255/144
f 159/253/155 158/194/37 152/193/118 153/254/157
f 151/255/144 153/254/157 165/243/150 164/242/145
f 153/254/157 152/193/118 163/186/111 165/243/150
f 160/256/154 157/257/156 182/258/158 184/259/159
f 181/260/142 168/261/2 169/262/2 185/263/160
f 176/264/161 166/265/162 172/225/6 193/224/141
f 187/173/99 149/266/1 178/267/163 197/174/100
f 175/268/164 149/266/1 187/173/99 200/269/165
f 191/270/166 178/267/163 149/266/1 150/231/1
f 164/230/145 154/271/152 191/270/166 150/231/1
f 154/271/152 160/256/154 184/259/159 191/270/166
f 157/257/156 151/229/144 194/228/143 182/258/158
f 149/266/1 175/268/164 194/228/143 150/231/1
f 185/272/160 169/273/13 171/233/13 190/232/146
f 188/274/109 170/275/14 174/276/167 199/277/168
f 189/176/102 198/175/101 196/181/107 188/184/109
f 178/267/163 191/270/166 192/278/169 180/279/170
f 180/279/170 192/278/169 190/232/146 179/235/148
f 184/259/159 182/258/158 183/280/171 186/281/172
f 186/281/172 183/280/171 181/260/142 185/263/160
f 182/258/158 194/228/143 195/282/173 183/283/171
f 183/283/171 195/282/173 193/224/141 181/227/142
f 175/268/164 200/269/165 201/284/174 177/285/175
f 177/285/175 201/284/174 199/286/168 176/287/161
f 191/270/166 184/259/159 186/288/172 192/278/169
f 192/278/169 186/288/172 185/272/160 190/232/146
f 194/228/143 175/268/164 177/289/175 195/282/173
f 195/282/173 177/289/175 176/264/161 193/224/141
f 197/174/100 178/267/163 180/290/170 198/291/101
f 198/291/101 180/290/170 179/236/148 196/239/107
f 200/269/165 187/173/99 189/292/102 201/293/174
f 201/293/174 189/292/102 188/274/109 199/277/168
f 199/286/168 174/294/167 166/295/162 176/287/161
f 121/192/117 143/177/103 163/186/111 152/193/118
f 10/296/8 113/297/16 115/298/6 12/299/6
f 214/300/176 207/301/177 219/302/178 118/303/179
f 211/304/180 19/305/181 18/306/182 210/307/183
f 218/308/184 116/309/184 206/310/14 217/311/14
f 117/312/185 208/313/186 214/300/176 118/303/179
f 219/302/178 207/301/177 116/309/184 218/308/184
f 203/314/187 204/315/188 208/313/186 117/312/185
f 15/316/189 13/317/2 14/318/2 17/319/189
f 202/320/190 19/305/181 211/304/180 205/321/191
f 212/322/1 209/323/192 16/324/193 213/325/1
f 18/306/182 15/316/189 17/319/189 210/307/183
f 209/323/192 202/320/190 205/321/191 16/324/193
f 203/314/187 209/323/192 212/322/1 215/326/1
f 218/327/194 217/328/6 13/329/6 15/330/194
f 219/331/178 18/332/182 19/333/181 118/334/179
f 208/335/186 205/336/191 211/337/180 214/338/176
f 219/331/178 218/327/194 15/330/194 18/332/182
f 116/339/195 17/340/195 14/341/13 206/342/13
f 207/343/177 210/344/183 17/340/195 116/339/195
f 203/314/187 117/345/185 202/346/190 209/323/192
f 216/347/1 213/325/1 16/324/193 204/315/188
f 117/345/185 118/334/179 19/333/181 202/346/190
f 203/314/187 215/326/1 216/347/1 204/315/188
f 210/344/183 207/343/177 214/338/176 211/337/180
f 205/336/191 208/335/186 204/315/188 16/324/193
f 237/348/61 228/349/61 222/350/61 227/351/61
f 227/351/61 222/350/61 220/352/61
f 224/353/61 227/351/61 220/352/61
f 224/353/61 220/352/61 226/354/61 225/355/61
f 234/356/1 236/357/1 232/358/1 233/359/1
f 232/360/13 228/361/13 237/362/13 233/363/13
f 224/364/13 229/365/13 234/366/13 227/367/13
f 230/368/6 225/369/6 223/370/6 231/371/6
f 229/365/2 224/364/2 225/372/2 230/373/2
f 230/374/61 231/375/61 235/376/61 229/377/61
f 226/354/61 221/378/61 223/379/61 225/355/61
f 234/366/14 233/363/14 237/362/14 227/367/14
f 234/356/13 229/377/13 235/376/13 236/357/13
f 247/348/61 242/351/61 222/350/61 228/349/61
f 242/351/61 238/352/61 222/350/61
f 239/353/61 238/352/61 242/351/61
f 239/353/61 240/355/61 241/354/61 238/352/61
f 246/356/1 245/359/1 232/358/1 236/357/1
f 232/360/13 245/363/13 247/362/13 228/361/13
f 239/364/13 242/367/13 246/366/13 243/365/13
f 244/368/6 231/371/6 223/370/6 240/369/6
f 243/365/14 244/373/14 240/372/14 239/364/14
f 244/374/61 243/377/61 235/376/61 231/375/61
f 241/354/61 240/355/61 223/379/61 221/378/61
f 246/366/2 242/367/2 247/362/2 245/363/2
f 246/356/13 236/357/13 235/376/13 243/377/13
