# Blender 4.4.3
# www.blender.org
mtllib Box.mtl
o Cube.013
v -0.262803 -0.182510 0.330113
v -0.263639 0.179285 0.327392
v -0.262803 -0.182510 -0.330113
v -0.263747 0.179385 -0.327325
v 0.262803 -0.182510 0.330113
v 0.260692 0.178242 0.327710
v 0.262803 -0.182510 -0.330113
v 0.260774 0.178237 -0.327498
v -0.260547 -0.018601 0.432147
v -0.260547 -0.054511 -0.402530
v 0.260547 -0.018601 0.432147
v 0.260547 -0.054511 -0.402530
v -0.461957 0.258417 0.327279
v -0.461957 0.258417 -0.327279
v 0.325880 -0.053622 0.328673
v 0.325880 -0.053622 -0.325885
v -0.258291 -0.179376 0.324445
v -0.257455 0.182602 0.327166
v -0.258291 -0.179376 -0.324445
v -0.257348 0.182502 -0.327233
v 0.258291 -0.179376 0.324445
v 0.260402 0.183645 0.326848
v 0.258291 -0.179376 -0.324445
v 0.260320 0.183650 -0.327060
v -0.260547 -0.017019 0.441538
v -0.260547 -0.053506 -0.412179
v 0.260547 -0.017019 0.441538
v 0.260547 -0.053506 -0.412179
v -0.458055 0.263120 0.327279
v -0.458055 0.263120 -0.327279
v 0.333537 -0.052530 0.328673
v 0.333537 -0.052530 -0.325885
vn -1.0000 -0.0025 0.0001
vn -0.0002 0.0075 -1.0000
vn 1.0000 0.0057 0.0001
vn -0.0003 0.0071 1.0000
vn -0.0000 -1.0000 -0.0000
vn -0.0002 -0.4683 -0.8836
vn -0.0002 -0.3065 0.9519
vn -0.9627 -0.2705 -0.0001
vn -0.3705 -0.9288 -0.0000
vn 1.0000 -0.0025 0.0001
vn -0.0002 0.0075 1.0000
vn -1.0000 0.0057 0.0001
vn -0.0003 0.0071 -1.0000
vn -0.0000 1.0000 -0.0000
vn -0.0002 0.4967 0.8679
vn -0.0002 0.3382 -0.9411
vn 0.9552 0.2960 -0.0001
vn 0.3726 0.9280 -0.0000
vn -0.0000 -0.9946 -0.1036
vn -0.0000 -0.9861 0.1662
vn -0.8594 0.2469 0.4478
vn 0.9996 0.0129 0.0235
vn 0.9991 0.0135 -0.0397
vn -0.8511 0.1693 -0.4969
vn -0.7696 0.6386 -0.0000
vn 0.1411 -0.9900 -0.0000
vn 0.0882 0.0320 0.9956
vn 0.0523 0.0095 -0.9986
vn 0.0031 0.0078 -1.0000
vn 0.0075 0.0187 0.9998
vt 0.375000 0.000000
vt 0.625000 0.000000
vt 0.625000 0.250000
vt 0.375000 0.250000
vt 0.625000 0.500000
vt 0.375000 0.500000
vt 0.625000 0.750000
vt 0.375000 0.750000
vt 0.625000 1.000000
vt 0.375000 1.000000
vt 0.125000 0.500000
vt 0.125000 0.750000
s 0
usemtl comic
f 1/1/1 2/2/1 4/3/1 3/4/1
f 3/4/2 4/3/2 8/5/2 7/6/2
f 7/6/3 8/5/3 6/7/3 5/8/3
f 5/8/4 6/7/4 2/9/4 1/10/4
f 3/11/5 7/6/5 5/8/5 1/12/5
f 2/9/6 6/7/6 11/7/6 9/9/6
f 8/5/7 4/3/7 10/3/7 12/5/7
f 6/7/8 8/5/8 16/5/8 15/7/8
f 4/3/9 2/2/9 13/2/9 14/3/9
f 17/1/10 19/4/10 20/3/10 18/2/10
f 19/4/11 23/6/11 24/5/11 20/3/11
f 23/6/12 21/8/12 22/7/12 24/5/12
f 21/8/13 17/10/13 18/9/13 22/7/13
f 19/11/14 17/12/14 21/8/14 23/6/14
f 18/9/15 25/9/15 27/7/15 22/7/15
f 24/5/16 28/5/16 26/3/16 20/3/16
f 22/7/17 31/7/17 32/5/17 24/5/17
f 20/3/18 30/3/18 29/2/18 18/2/18
f 12/5/19 10/3/19 26/3/19 28/5/19
f 9/9/20 11/7/20 27/7/20 25/9/20
f 2/9/21 9/9/21 25/9/21 18/9/21
f 11/7/22 6/7/22 22/7/22 27/7/22
f 8/5/23 12/5/23 28/5/23 24/5/23
f 10/3/24 4/3/24 20/3/24 26/3/24
f 14/3/25 13/2/25 29/2/25 30/3/25
f 15/7/26 16/5/26 32/5/26 31/7/26
f 6/7/27 15/7/27 31/7/27 22/7/27
f 16/5/28 8/5/28 24/5/28 32/5/28
f 4/3/29 14/3/29 30/3/29 20/3/29
f 13/2/30 2/2/30 18/2/30 29/2/30
