# Blender 4.4.3
# www.blender.org
mtllib Rollos.mtl
o rolladen
v -3.028997 1.974128 -3.199445
v -3.028997 1.896953 -3.177322
v -3.028997 1.976374 -3.191610
v -3.028997 1.899199 -3.169487
v -2.270596 1.974128 -3.199445
v -2.270596 1.896953 -3.177322
v -2.270596 1.976374 -3.191610
v -2.270596 1.899199 -3.169487
v -3.028997 1.735098 -3.199445
v -3.028997 1.657923 -3.177322
v -3.028997 1.737345 -3.191610
v -3.028997 1.660169 -3.169487
v -2.270596 1.735098 -3.199445
v -2.270596 1.657923 -3.177322
v -2.270596 1.737345 -3.191610
v -2.270596 1.660169 -3.169487
v -3.028997 1.894450 -3.199445
v -3.028997 1.817274 -3.177322
v -3.028997 1.896696 -3.191610
v -3.028997 1.819520 -3.169487
v -2.270596 1.894450 -3.199445
v -2.270596 1.817274 -3.177322
v -2.270596 1.896696 -3.191610
v -2.270596 1.819520 -3.169487
v -3.028997 1.814797 -3.199445
v -3.028997 1.737621 -3.177322
v -3.028997 1.817043 -3.191610
v -3.028997 1.739867 -3.169487
v -2.270596 1.814797 -3.199445
v -2.270596 1.737621 -3.177322
v -2.270596 1.817043 -3.191610
v -2.270596 1.739867 -3.169487
v -3.028997 1.653924 -3.199445
v -3.028997 1.576749 -3.177322
v -3.028997 1.656170 -3.191610
v -3.028997 1.578995 -3.169487
v -2.270596 1.653924 -3.199445
v -2.270596 1.576749 -3.177322
v -2.270596 1.656170 -3.191610
v -2.270596 1.578995 -3.169487
v -3.028997 1.414895 -3.199445
v -3.028997 1.337719 -3.177322
v -3.028997 1.417141 -3.191610
v -3.028997 1.339965 -3.169487
v -2.270596 1.414895 -3.199445
v -2.270596 1.337719 -3.177322
v -2.270596 1.417141 -3.191610
v -2.270596 1.339965 -3.169487
v -3.028997 1.574246 -3.199445
v -3.028997 1.497071 -3.177322
v -3.028997 1.576492 -3.191610
v -3.028997 1.499317 -3.169487
v -2.270596 1.574246 -3.199445
v -2.270596 1.497071 -3.177322
v -2.270596 1.576492 -3.191610
v -2.270596 1.499317 -3.169487
v -3.028997 1.494593 -3.199445
v -3.028997 1.417417 -3.177322
v -3.028997 1.496839 -3.191610
v -3.028997 1.419663 -3.169487
v -2.270596 1.494593 -3.199445
v -2.270596 1.417417 -3.177322
v -2.270596 1.496839 -3.191610
v -2.270596 1.419663 -3.169487
v -3.028997 1.175992 -3.199445
v -3.028997 1.098816 -3.177322
v -3.028997 1.178238 -3.191610
v -3.028997 1.101062 -3.169487
v -2.270596 1.175992 -3.199445
v -2.270596 1.098816 -3.177322
v -2.270596 1.178238 -3.191610
v -2.270596 1.101062 -3.169487
v -3.028997 1.335343 -3.199445
v -3.028997 1.258168 -3.177322
v -3.028997 1.337589 -3.191610
v -3.028997 1.260414 -3.169487
v -2.270596 1.335343 -3.199445
v -2.270596 1.258168 -3.177322
v -2.270596 1.337589 -3.191610
v -2.270596 1.260414 -3.169487
v -3.028997 1.255690 -3.199445
v -3.028997 1.178514 -3.177322
v -3.028997 1.257936 -3.191610
v -3.028997 1.180760 -3.169487
v -2.270596 1.255690 -3.199445
v -2.270596 1.178514 -3.177322
v -2.270596 1.257936 -3.191610
v -2.270596 1.180760 -3.169487
vn -1.0000 -0.0000 -0.0000
vn -0.0000 0.2756 0.9613
vn 1.0000 -0.0000 -0.0000
vn -0.0000 -0.2756 -0.9613
vn -0.0000 0.9613 -0.2756
vn -0.0000 -0.9613 0.2756
vt 0.375000 0.000000
vt 0.625000 0.000000
vt 0.625000 0.250000
vt 0.375000 0.250000
vt 0.625000 0.500000
vt 0.375000 0.500000
vt 0.625000 0.750000
vt 0.375000 0.750000
vt 0.625000 1.000000
vt 0.375000 1.000000
vt 0.125000 0.500000
vt 0.125000 0.750000
vt 0.875000 0.500000
vt 0.875000 0.750000
s 0
usemtl comic
f 1/1/1 2/2/1 4/3/1 3/4/1
f 3/4/2 4/3/2 8/5/2 7/6/2
f 7/6/3 8/5/3 6/7/3 5/8/3
f 5/8/4 6/7/4 2/9/4 1/10/4
f 3/11/5 7/6/5 5/8/5 1/12/5
f 8/5/6 4/13/6 2/14/6 6/7/6
f 9/1/1 10/2/1 12/3/1 11/4/1
f 11/4/2 12/3/2 16/5/2 15/6/2
f 15/6/3 16/5/3 14/7/3 13/8/3
f 13/8/4 14/7/4 10/9/4 9/10/4
f 11/11/5 15/6/5 13/8/5 9/12/5
f 16/5/6 12/13/6 10/14/6 14/7/6
f 17/1/1 18/2/1 20/3/1 19/4/1
f 19/4/2 20/3/2 24/5/2 23/6/2
f 23/6/3 24/5/3 22/7/3 21/8/3
f 21/8/4 22/7/4 18/9/4 17/10/4
f 19/11/5 23/6/5 21/8/5 17/12/5
f 24/5/6 20/13/6 18/14/6 22/7/6
f 25/1/1 26/2/1 28/3/1 27/4/1
f 27/4/2 28/3/2 32/5/2 31/6/2
f 31/6/3 32/5/3 30/7/3 29/8/3
f 29/8/4 30/7/4 26/9/4 25/10/4
f 27/11/5 31/6/5 29/8/5 25/12/5
f 32/5/6 28/13/6 26/14/6 30/7/6
f 33/1/1 34/2/1 36/3/1 35/4/1
f 35/4/2 36/3/2 40/5/2 39/6/2
f 39/6/3 40/5/3 38/7/3 37/8/3
f 37/8/4 38/7/4 34/9/4 33/10/4
f 35/11/5 39/6/5 37/8/5 33/12/5
f 40/5/6 36/13/6 34/14/6 38/7/6
f 41/1/1 42/2/1 44/3/1 43/4/1
f 43/4/2 44/3/2 48/5/2 47/6/2
f 47/6/3 48/5/3 46/7/3 45/8/3
f 45/8/4 46/7/4 42/9/4 41/10/4
f 43/11/5 47/6/5 45/8/5 41/12/5
f 48/5/6 44/13/6 42/14/6 46/7/6
f 49/1/1 50/2/1 52/3/1 51/4/1
f 51/4/2 52/3/2 56/5/2 55/6/2
f 55/6/3 56/5/3 54/7/3 53/8/3
f 53/8/4 54/7/4 50/9/4 49/10/4
f 51/11/5 55/6/5 53/8/5 49/12/5
f 56/5/6 52/13/6 50/14/6 54/7/6
f 57/1/1 58/2/1 60/3/1 59/4/1
f 59/4/2 60/3/2 64/5/2 63/6/2
f 63/6/3 64/5/3 62/7/3 61/8/3
f 61/8/4 62/7/4 58/9/4 57/10/4
f 59/11/5 63/6/5 61/8/5 57/12/5
f 64/5/6 60/13/6 58/14/6 62/7/6
f 65/1/1 66/2/1 68/3/1 67/4/1
f 67/4/2 68/3/2 72/5/2 71/6/2
f 71/6/3 72/5/3 70/7/3 69/8/3
f 69/8/4 70/7/4 66/9/4 65/10/4
f 67/11/5 71/6/5 69/8/5 65/12/5
f 72/5/6 68/13/6 66/14/6 70/7/6
f 73/1/1 74/2/1 76/3/1 75/4/1
f 75/4/2 76/3/2 80/5/2 79/6/2
f 79/6/3 80/5/3 78/7/3 77/8/3
f 77/8/4 78/7/4 74/9/4 73/10/4
f 75/11/5 79/6/5 77/8/5 73/12/5
f 80/5/6 76/13/6 74/14/6 78/7/6
f 81/1/1 82/2/1 84/3/1 83/4/1
f 83/4/2 84/3/2 88/5/2 87/6/2
f 87/6/3 88/5/3 86/7/3 85/8/3
f 85/8/4 86/7/4 82/9/4 81/10/4
f 83/11/5 87/6/5 85/8/5 81/12/5
f 88/5/6 84/13/6 82/14/6 86/7/6
o rolladen.001
v 2.185969 1.974128 1.742683
v 2.185969 1.896953 1.720560
v 2.185969 1.976374 1.734847
v 2.185969 1.899199 1.712724
v 1.427568 1.974128 1.742683
v 1.427568 1.896953 1.720560
v 1.427568 1.976374 1.734848
v 1.427568 1.899199 1.712725
v 2.185969 1.735098 1.742683
v 2.185969 1.657923 1.720560
v 2.185969 1.737345 1.734847
v 2.185969 1.660169 1.712724
v 1.427568 1.735098 1.742683
v 1.427568 1.657923 1.720560
v 1.427568 1.737345 1.734848
v 1.427568 1.660169 1.712725
v 2.185969 1.894450 1.742683
v 2.185969 1.817274 1.720560
v 2.185969 1.896696 1.734847
v 2.185969 1.819520 1.712724
v 1.427568 1.894450 1.742683
v 1.427568 1.817274 1.720560
v 1.427568 1.896696 1.734848
v 1.427568 1.819520 1.712725
v 2.185969 1.814797 1.742682
v 2.185969 1.737621 1.720559
v 2.185969 1.817043 1.734847
v 2.185969 1.739867 1.712724
v 1.427568 1.814797 1.742683
v 1.427568 1.737621 1.720560
v 1.427568 1.817043 1.734848
v 1.427568 1.739867 1.712725
v 2.185969 1.653924 1.742683
v 2.185969 1.576749 1.720560
v 2.185969 1.656170 1.734847
v 2.185969 1.578995 1.712724
v 1.427568 1.653924 1.742683
v 1.427568 1.576749 1.720560
v 1.427568 1.656170 1.734848
v 1.427568 1.578995 1.712725
v 2.185969 1.414895 1.742683
v 2.185969 1.337719 1.720560
v 2.185969 1.417141 1.734847
v 2.185969 1.339965 1.712724
v 1.427568 1.414895 1.742683
v 1.427568 1.337719 1.720560
v 1.427568 1.417141 1.734848
v 1.427568 1.339965 1.712725
v 2.185969 1.574246 1.742682
v 2.185969 1.497071 1.720559
v 2.185969 1.576492 1.734847
v 2.185969 1.499317 1.712724
v 1.427568 1.574246 1.742683
v 1.427568 1.497071 1.720560
v 1.427568 1.576492 1.734848
v 1.427568 1.499317 1.712725
v 2.185969 1.494593 1.742683
v 2.185969 1.417417 1.720560
v 2.185969 1.496839 1.734847
v 2.185969 1.419663 1.712724
v 1.427568 1.494593 1.742683
v 1.427568 1.417417 1.720560
v 1.427568 1.496839 1.734848
v 1.427568 1.419663 1.712725
v 2.185969 1.175992 1.742682
v 2.185969 1.098816 1.720559
v 2.185969 1.178238 1.734847
v 2.185969 1.101062 1.712724
v 1.427568 1.175992 1.742683
v 1.427568 1.098816 1.720560
v 1.427568 1.178238 1.734848
v 1.427568 1.101062 1.712725
v 2.185969 1.335343 1.742683
v 2.185969 1.258168 1.720560
v 2.185969 1.337589 1.734847
v 2.185969 1.260414 1.712724
v 1.427568 1.335343 1.742683
v 1.427568 1.258168 1.720560
v 1.427568 1.337589 1.734848
v 1.427568 1.260414 1.712725
v 2.185969 1.255690 1.742683
v 2.185969 1.178514 1.720560
v 2.185969 1.257936 1.734848
v 2.185969 1.180760 1.712724
v 1.427568 1.255690 1.742683
v 1.427568 1.178514 1.720560
v 1.427568 1.257936 1.734848
v 1.427568 1.180760 1.712725
vn 1.0000 -0.0000 -0.0000
vn -0.0000 0.2756 -0.9613
vn -1.0000 -0.0000 -0.0000
vn -0.0000 -0.2756 0.9613
vn -0.0000 0.9613 0.2756
vn -0.0000 -0.9613 -0.2756
vt 0.375000 0.000000
vt 0.625000 0.000000
vt 0.625000 0.250000
vt 0.375000 0.250000
vt 0.625000 0.500000
vt 0.375000 0.500000
vt 0.625000 0.750000
vt 0.375000 0.750000
vt 0.625000 1.000000
vt 0.375000 1.000000
vt 0.125000 0.500000
vt 0.125000 0.750000
vt 0.875000 0.500000
vt 0.875000 0.750000
s 0
usemtl comic
f 89/15/7 90/16/7 92/17/7 91/18/7
f 91/18/8 92/17/8 96/19/8 95/20/8
f 95/20/9 96/19/9 94/21/9 93/22/9
f 93/22/10 94/21/10 90/23/10 89/24/10
f 91/25/11 95/20/11 93/22/11 89/26/11
f 96/19/12 92/27/12 90/28/12 94/21/12
f 97/15/7 98/16/7 100/17/7 99/18/7
f 99/18/8 100/17/8 104/19/8 103/20/8
f 103/20/9 104/19/9 102/21/9 101/22/9
f 101/22/10 102/21/10 98/23/10 97/24/10
f 99/25/11 103/20/11 101/22/11 97/26/11
f 104/19/12 100/27/12 98/28/12 102/21/12
f 105/15/7 106/16/7 108/17/7 107/18/7
f 107/18/8 108/17/8 112/19/8 111/20/8
f 111/20/9 112/19/9 110/21/9 109/22/9
f 109/22/10 110/21/10 106/23/10 105/24/10
f 107/25/11 111/20/11 109/22/11 105/26/11
f 112/19/12 108/27/12 106/28/12 110/21/12
f 113/15/7 114/16/7 116/17/7 115/18/7
f 115/18/8 116/17/8 120/19/8 119/20/8
f 119/20/9 120/19/9 118/21/9 117/22/9
f 117/22/10 118/21/10 114/23/10 113/24/10
f 115/25/11 119/20/11 117/22/11 113/26/11
f 120/19/12 116/27/12 114/28/12 118/21/12
f 121/15/7 122/16/7 124/17/7 123/18/7
f 123/18/8 124/17/8 128/19/8 127/20/8
f 127/20/9 128/19/9 126/21/9 125/22/9
f 125/22/10 126/21/10 122/23/10 121/24/10
f 123/25/11 127/20/11 125/22/11 121/26/11
f 128/19/12 124/27/12 122/28/12 126/21/12
f 129/15/7 130/16/7 132/17/7 131/18/7
f 131/18/8 132/17/8 136/19/8 135/20/8
f 135/20/9 136/19/9 134/21/9 133/22/9
f 133/22/10 134/21/10 130/23/10 129/24/10
f 131/25/11 135/20/11 133/22/11 129/26/11
f 136/19/12 132/27/12 130/28/12 134/21/12
f 137/15/7 138/16/7 140/17/7 139/18/7
f 139/18/8 140/17/8 144/19/8 143/20/8
f 143/20/9 144/19/9 142/21/9 141/22/9
f 141/22/10 142/21/10 138/23/10 137/24/10
f 139/25/11 143/20/11 141/22/11 137/26/11
f 144/19/12 140/27/12 138/28/12 142/21/12
f 145/15/7 146/16/7 148/17/7 147/18/7
f 147/18/8 148/17/8 152/19/8 151/20/8
f 151/20/9 152/19/9 150/21/9 149/22/9
f 149/22/10 150/21/10 146/23/10 145/24/10
f 147/25/11 151/20/11 149/22/11 145/26/11
f 152/19/12 148/27/12 146/28/12 150/21/12
f 153/15/7 154/16/7 156/17/7 155/18/7
f 155/18/8 156/17/8 160/19/8 159/20/8
f 159/20/9 160/19/9 158/21/9 157/22/9
f 157/22/10 158/21/10 154/23/10 153/24/10
f 155/25/11 159/20/11 157/22/11 153/26/11
f 160/19/12 156/27/12 154/28/12 158/21/12
f 161/15/7 162/16/7 164/17/7 163/18/7
f 163/18/8 164/17/8 168/19/8 167/20/8
f 167/20/9 168/19/9 166/21/9 165/22/9
f 165/22/10 166/21/10 162/23/10 161/24/10
f 163/25/11 167/20/11 165/22/11 161/26/11
f 168/19/12 164/27/12 162/28/12 166/21/12
f 169/15/7 170/16/7 172/17/7 171/18/7
f 171/18/8 172/17/8 176/19/8 175/20/8
f 175/20/9 176/19/9 174/21/9 173/22/9
f 173/22/10 174/21/10 170/23/10 169/24/10
f 171/25/11 175/20/11 173/22/11 169/26/11
f 176/19/12 172/27/12 170/28/12 174/21/12
