# Blender 4.4.3
# www.blender.org
mtllib Schreibtisch.mtl
o Desk
v -0.363928 0.018984 0.984763
v -0.363928 0.734738 0.984763
v -0.398785 0.018984 0.984763
v -0.398785 0.734738 0.984763
v -0.363928 0.018984 0.949907
v -0.363928 0.734738 0.949907
v -0.398785 0.018984 0.949907
v -0.398785 0.734738 0.949907
v -0.363928 0.699286 0.984763
v -0.398785 0.699286 0.984763
v -0.398785 0.699286 0.949907
v -0.363928 0.699286 0.949907
v -0.398785 0.510006 0.984763
v -0.398785 0.472901 0.984763
v -0.398785 0.510006 0.949907
v -0.398785 0.472901 0.949907
v -0.363928 0.510006 0.949907
v -0.363928 0.472901 0.949907
v -0.363928 0.472901 0.984763
v -0.363928 0.510006 0.984763
v -0.363928 0.472901 1.273630
v -0.398785 0.472901 1.273630
v -0.363928 0.510006 1.273630
v -0.398785 0.510006 1.273630
v -0.363928 0.018984 1.596400
v -0.363928 0.734738 1.596400
v -0.398785 0.018984 1.596400
v -0.398785 0.734738 1.596400
v -0.363928 0.018984 1.631257
v -0.363928 0.734738 1.631257
v -0.398785 0.018984 1.631257
v -0.398785 0.734738 1.631257
v -0.363928 0.699286 1.596400
v -0.398785 0.699286 1.596400
v -0.398785 0.699286 1.631257
v -0.363928 0.699286 1.631257
v -0.398785 0.472901 1.290582
v -0.398785 0.510006 1.290582
v -0.363928 0.510006 1.290582
v -0.363928 0.472901 1.290582
v -0.398785 0.510006 1.596400
v -0.398785 0.472901 1.596400
v -0.398785 0.510006 1.631257
v -0.398785 0.472901 1.631257
v -0.363928 0.510006 1.631257
v -0.363928 0.472901 1.631257
v -0.363928 0.472901 1.596400
v -0.363928 0.510006 1.596400
v -0.363928 0.472901 1.307534
v -0.398785 0.472901 1.307534
v -0.363928 0.510006 1.307534
v -0.398785 0.510006 1.307534
v -2.464985 0.018983 0.984763
v -2.464985 0.734738 0.984763
v -2.430129 0.018983 0.984763
v -2.430129 0.734738 0.984763
v -2.464985 0.018983 0.949907
v -2.464985 0.734738 0.949907
v -2.430129 0.018983 0.949907
v -2.430129 0.734738 0.949907
v -2.464985 0.699285 0.984763
v -2.430129 0.699285 0.984763
v -2.430129 0.699285 0.949907
v -2.464985 0.699285 0.949907
v -1.414457 0.734738 0.984763
v -1.414457 0.734738 0.949907
v -1.414457 0.699285 0.984763
v -1.414457 0.699285 0.949907
v -2.430129 0.510005 0.984763
v -2.430129 0.472901 0.984763
v -2.430129 0.510005 0.949907
v -2.430129 0.472901 0.949907
v -2.464985 0.510005 0.949907
v -2.464985 0.472901 0.949907
v -2.464985 0.472901 0.984763
v -2.464985 0.510005 0.984763
v -2.464985 0.472901 1.273630
v -2.430129 0.472901 1.273630
v -2.464985 0.510005 1.273630
v -2.430129 0.510005 1.273630
v -1.414457 0.472901 1.273630
v -1.414457 0.510006 1.273630
v -1.414457 0.734738 1.290582
v -1.414457 0.767740 1.290582
v -2.464985 0.018983 1.596400
v -2.464985 0.734738 1.596400
v -2.430129 0.018983 1.596400
v -2.430129 0.734738 1.596400
v -2.464985 0.018983 1.631257
v -2.464985 0.734738 1.631257
v -2.430129 0.018983 1.631257
v -2.430129 0.734738 1.631257
v -2.464985 0.699285 1.596400
v -2.430129 0.699285 1.596400
v -2.430129 0.699285 1.631257
v -2.464985 0.699285 1.631257
v -1.414457 0.734738 1.596400
v -1.414457 0.734738 1.631257
v -1.414457 0.699285 1.596400
v -1.414457 0.699285 1.631257
v -2.430129 0.472901 1.290582
v -2.430129 0.510005 1.290582
v -2.464985 0.510005 1.290582
v -2.464985 0.472901 1.290582
v -2.430129 0.510005 1.596400
v -2.430129 0.472901 1.596400
v -2.430129 0.510005 1.631257
v -2.430129 0.472901 1.631257
v -2.464985 0.510005 1.631257
v -2.464985 0.472901 1.631257
v -2.464985 0.472901 1.596400
v -2.464985 0.510005 1.596400
v -2.464985 0.472901 1.307534
v -2.430129 0.472901 1.307534
v -2.464985 0.510005 1.307534
v -2.430129 0.510005 1.307534
v -1.414457 0.472901 1.307534
v -1.414457 0.472901 1.290582
v -1.414457 0.510006 1.290582
v -1.414457 0.510006 1.307534
v -0.321445 0.734738 0.889762
v -0.321445 0.740112 0.884387
v -0.316071 0.740112 0.889762
v -0.321445 0.767741 0.889762
v -0.316071 0.762366 0.889762
v -0.321445 0.762366 0.884387
v -0.316071 0.740112 1.290582
v -0.321445 0.734738 1.290582
v -0.321445 0.767741 1.290582
v -0.316071 0.762366 1.290582
v -0.321445 0.734738 1.691401
v -0.316071 0.740112 1.691401
v -0.321445 0.740112 1.696776
v -0.321445 0.767741 1.691401
v -0.321445 0.762366 1.696776
v -0.316071 0.762366 1.691401
v -2.507468 0.734738 0.889762
v -2.512843 0.740112 0.889762
v -2.507468 0.740112 0.884388
v -2.507468 0.767740 0.889762
v -2.507468 0.762366 0.884388
v -2.512843 0.762366 0.889762
v -1.414457 0.734738 0.889762
v -1.414457 0.740112 0.884388
v -1.414457 0.762366 0.884388
v -1.414457 0.767740 0.889762
v -2.507468 0.734738 1.290582
v -2.512843 0.740112 1.290582
v -2.512843 0.762366 1.290582
v -2.507468 0.767740 1.290582
v -2.507468 0.734738 1.691401
v -2.507468 0.740112 1.696776
v -2.512843 0.740112 1.691401
v -2.507468 0.767740 1.691401
v -2.512843 0.762366 1.691401
v -2.507468 0.762366 1.696776
v -1.414457 0.740112 1.696776
v -1.414457 0.734738 1.691401
v -1.414457 0.767740 1.691401
v -1.414457 0.762366 1.696776
vn -0.0000 -1.0000 -0.0000
vn -0.0000 -0.0000 1.0000
vn 1.0000 -0.0000 -0.0000
vn -0.0000 1.0000 -0.0000
vn -0.0000 -0.0000 -1.0000
vn -1.0000 -0.0000 -0.0000
vn 0.5773 -0.5774 -0.5773
vn 0.5773 0.5774 -0.5774
vn 0.5773 -0.5774 0.5773
vn 0.5773 0.5774 0.5774
vn -0.5773 -0.5774 -0.5773
vn -0.5773 0.5774 -0.5774
vn -0.5773 -0.5774 0.5773
vn -0.5773 0.5774 0.5774
vn -0.0000 -0.7071 -0.7071
vn -0.0000 0.7071 -0.7071
vn 0.7071 -0.0000 -0.7071
vn 0.7071 -0.7071 -0.0000
vn 0.7071 0.7071 -0.0000
vn -0.0000 -0.7071 0.7071
vn -0.0000 0.7071 0.7071
vn 0.7071 -0.0000 0.7071
vn -0.7071 -0.0000 -0.7071
vn -0.7071 -0.7071 -0.0000
vn -0.7071 0.7071 -0.0000
vn -0.7071 -0.0000 0.7071
vt 0.462652 0.915974
vt 0.462652 0.902764
vt 0.469272 0.902764
vt 0.469926 0.902764
vt 0.469926 0.915974
vt 0.469272 0.915974
vt 0.071515 0.936927
vt 0.086401 0.936927
vt 0.086401 0.958710
vt 0.071515 0.958710
vt 0.090288 0.914560
vt 0.112071 0.914560
vt 0.112071 0.936527
vt 0.090288 0.936527
vt 0.071515 0.914560
vt 0.086401 0.914560
vt 0.086401 0.936527
vt 0.071515 0.936527
vt 0.045845 0.914560
vt 0.045845 0.936527
vt 0.067628 0.936527
vt 0.067628 0.914560
vt 0.469272 0.929184
vt 0.469926 0.929184
vt 0.469926 0.942395
vt 0.469272 0.942395
vt 0.469926 0.955605
vt 0.469272 0.955605
vt 0.443506 0.929184
vt 0.456716 0.929184
vt 0.456716 0.942395
vt 0.443506 0.942395
vt 0.483137 0.929184
vt 0.483137 0.942395
vt 0.463337 0.902764
vt 0.463337 0.915974
vt 0.462652 0.942395
vt 0.462652 0.955605
vt 0.456716 0.955605
vt 0.462652 0.929184
vt 0.463337 0.929184
vt 0.456716 0.902764
vt 0.456716 0.915974
vt 0.463337 0.942395
vt 0.463337 0.955605
vt 0.090288 0.914560
vt 0.090288 0.936527
vt 0.071515 0.958710
vt 0.086401 0.936927
vt 0.071515 0.936527
vt 0.086401 0.936527
vt 0.067628 0.914560
vt 0.067628 0.936527
vt 0.067920 0.936527
vt 0.067628 0.936635
vt 0.090288 0.936635
vt 0.089996 0.936527
vt 0.045845 0.936635
vt 0.112071 0.936635
vt 0.067920 0.936927
vt 0.067920 0.958710
vt 0.089996 0.958710
vt 0.089996 0.936927
s 1
usemtl comic
f 14/1/1 19/2/1 21/2/1 22/1/1
f 9/3/2 2/4/2 4/5/2 10/6/2
f 123/7/3 125/8/3 130/9/3 127/10/3
f 146/11/4 84/12/4 129/13/4 124/14/4
f 144/15/5 145/16/5 126/17/5 122/18/5
f 83/19/1 128/20/1 131/21/1 158/22/1
f 11/23/1 10/6/1 67/6/1 68/23/1
f 11/23/5 8/24/5 6/25/5 12/26/5
f 12/26/3 6/25/3 2/27/3 9/28/3
f 3/29/1 7/30/1 5/31/1 1/32/1
f 8/24/4 4/33/4 2/34/4 6/25/4
f 20/35/4 13/36/4 24/36/4 23/35/4
f 5/31/3 18/37/3 19/38/3 1/39/3
f 20/35/2 9/3/2 10/6/2 13/36/2
f 7/30/5 16/40/5 18/37/5 5/31/5
f 13/36/6 10/6/6 11/23/6 15/41/6
f 4/33/4 8/24/4 66/24/4 65/33/4
f 8/24/5 11/23/5 68/23/5 66/24/5
f 10/6/2 4/5/2 65/5/2 67/6/2
f 1/42/2 19/2/2 14/1/2 3/43/2
f 15/41/5 11/23/5 12/26/5 17/44/5
f 17/44/3 12/26/3 9/28/3 20/45/3
f 22/1/1 37/1/1 118/1/1 81/1/1
f 13/36/6 15/41/6 16/40/6 14/1/6
f 15/41/5 17/44/5 18/37/5 16/40/5
f 17/44/3 20/45/3 19/38/3 18/37/3
f 3/43/6 14/1/6 16/40/6 7/30/6
f 21/38/3 23/45/3 39/45/3 40/38/3
f 22/1/1 21/2/1 40/2/1 37/1/1
f 23/35/4 24/36/4 38/36/4 39/35/4
f 19/38/3 20/45/3 23/45/3 21/38/3
f 13/36/6 14/1/6 22/1/6 24/36/6
f 24/36/5 22/1/5 81/1/5 82/36/5
f 38/36/4 24/36/4 82/36/4 119/36/4
f 42/1/1 50/1/1 49/2/1 47/2/1
f 33/3/5 34/6/5 28/5/5 26/4/5
f 83/19/1 147/20/1 137/21/1 143/22/1
f 159/46/4 134/47/4 129/13/4 84/12/4
f 132/7/3 127/48/3 130/9/3 136/49/3
f 157/15/2 133/50/2 135/51/2 160/16/2
f 35/23/1 100/23/1 99/6/1 34/6/1
f 35/23/2 36/26/2 30/25/2 32/24/2
f 36/26/3 33/28/3 26/27/3 30/25/3
f 27/29/1 25/32/1 29/31/1 31/30/1
f 32/24/4 30/25/4 26/34/4 28/33/4
f 48/35/4 51/35/4 52/36/4 41/36/4
f 29/31/3 25/39/3 47/38/3 46/37/3
f 48/35/5 41/36/5 34/6/5 33/3/5
f 31/30/2 29/31/2 46/37/2 44/40/2
f 41/36/6 43/41/6 35/23/6 34/6/6
f 28/33/4 97/33/4 98/24/4 32/24/4
f 32/24/2 98/24/2 100/23/2 35/23/2
f 34/6/5 99/6/5 97/5/5 28/5/5
f 25/42/5 27/43/5 42/1/5 47/2/5
f 43/41/2 45/44/2 36/26/2 35/23/2
f 45/44/3 48/45/3 33/28/3 36/26/3
f 50/1/1 117/1/1 118/1/1 37/1/1
f 41/36/6 42/1/6 44/40/6 43/41/6
f 43/41/2 44/40/2 46/37/2 45/44/2
f 45/44/3 46/37/3 47/38/3 48/45/3
f 27/43/6 31/30/6 44/40/6 42/1/6
f 49/38/3 40/38/3 39/45/3 51/45/3
f 50/1/1 37/1/1 40/2/1 49/2/1
f 51/35/4 39/35/4 38/36/4 52/36/4
f 47/38/3 49/38/3 51/45/3 48/45/3
f 41/36/6 52/36/6 50/1/6 42/1/6
f 52/36/2 120/36/2 117/1/2 50/1/2
f 38/36/4 119/36/4 120/36/4 52/36/4
f 70/1/1 78/1/1 77/2/1 75/2/1
f 61/3/2 62/6/2 56/5/2 54/4/2
f 138/7/6 148/48/6 149/9/6 142/49/6
f 146/46/4 140/47/4 150/13/4 84/12/4
f 144/15/5 139/50/5 141/51/5 145/16/5
f 83/19/1 158/52/1 151/53/1 147/20/1
f 63/23/1 68/23/1 67/6/1 62/6/1
f 63/23/5 64/26/5 58/25/5 60/24/5
f 64/26/6 61/28/6 54/27/6 58/25/6
f 55/29/1 53/32/1 57/31/1 59/30/1
f 60/24/4 58/25/4 54/34/4 56/33/4
f 76/35/4 79/35/4 80/36/4 69/36/4
f 57/31/6 53/39/6 75/38/6 74/37/6
f 76/35/2 69/36/2 62/6/2 61/3/2
f 59/30/5 57/31/5 74/37/5 72/40/5
f 69/36/3 71/41/3 63/23/3 62/6/3
f 56/33/4 65/33/4 66/24/4 60/24/4
f 60/24/5 66/24/5 68/23/5 63/23/5
f 62/6/2 67/6/2 65/5/2 56/5/2
f 53/42/2 55/43/2 70/1/2 75/2/2
f 71/41/5 73/44/5 64/26/5 63/23/5
f 73/44/6 76/45/6 61/28/6 64/26/6
f 78/1/1 81/1/1 118/1/1 101/1/1
f 69/36/3 70/1/3 72/40/3 71/41/3
f 71/41/5 72/40/5 74/37/5 73/44/5
f 73/44/6 74/37/6 75/38/6 76/45/6
f 55/43/3 59/30/3 72/40/3 70/1/3
f 77/38/6 104/38/6 103/45/6 79/45/6
f 78/1/1 101/1/1 104/2/1 77/2/1
f 79/35/4 103/35/4 102/36/4 80/36/4
f 75/38/6 77/38/6 79/45/6 76/45/6
f 69/36/3 80/36/3 78/1/3 70/1/3
f 80/36/5 82/36/5 81/1/5 78/1/5
f 102/36/4 119/36/4 82/36/4 80/36/4
f 106/1/1 111/2/1 113/2/1 114/1/1
f 93/3/5 86/4/5 88/5/5 94/6/5
f 159/11/4 84/12/4 150/13/4 154/14/4
f 153/7/6 155/8/6 149/9/6 148/10/6
f 157/15/2 160/16/2 156/17/2 152/18/2
f 95/23/1 94/6/1 99/6/1 100/23/1
f 95/23/2 92/24/2 90/25/2 96/26/2
f 96/26/6 90/25/6 86/27/6 93/28/6
f 87/29/1 91/30/1 89/31/1 85/32/1
f 92/24/4 88/33/4 86/34/4 90/25/4
f 112/35/4 105/36/4 116/36/4 115/35/4
f 89/31/6 110/37/6 111/38/6 85/39/6
f 112/35/5 93/3/5 94/6/5 105/36/5
f 91/30/2 108/40/2 110/37/2 89/31/2
f 105/36/3 94/6/3 95/23/3 107/41/3
f 88/33/4 92/24/4 98/24/4 97/33/4
f 92/24/2 95/23/2 100/23/2 98/24/2
f 94/6/5 88/5/5 97/5/5 99/6/5
f 85/42/5 111/2/5 106/1/5 87/43/5
f 107/41/2 95/23/2 96/26/2 109/44/2
f 109/44/6 96/26/6 93/28/6 112/45/6
f 114/1/1 101/1/1 118/1/1 117/1/1
f 105/36/3 107/41/3 108/40/3 106/1/3
f 107/41/2 109/44/2 110/37/2 108/40/2
f 109/44/6 112/45/6 111/38/6 110/37/6
f 87/43/3 106/1/3 108/40/3 91/30/3
f 113/38/6 115/45/6 103/45/6 104/38/6
f 114/1/1 113/2/1 104/2/1 101/1/1
f 115/35/4 116/36/4 102/36/4 103/35/4
f 111/38/6 112/45/6 115/45/6 113/38/6
f 105/36/3 106/1/3 114/1/3 116/36/3
f 116/36/2 114/1/2 117/1/2 120/36/2
f 102/36/4 116/36/4 120/36/4 119/36/4
f 121/53/7 122/54/7 123/55/7
f 124/14/8 125/56/8 126/57/8
f 131/21/9 132/55/9 133/54/9
f 134/47/10 135/57/10 136/56/10
f 137/21/11 138/55/11 139/54/11
f 140/47/12 141/57/12 142/56/12
f 151/53/13 152/54/13 153/55/13
f 154/14/14 155/56/14 156/57/14
f 121/53/15 143/52/15 144/15/15 122/18/15
f 146/11/16 124/14/16 126/17/16 145/16/16
f 125/8/17 123/7/17 122/18/17 126/17/17
f 128/20/18 121/53/18 123/55/18 127/58/18
f 124/14/19 129/13/19 130/59/19 125/56/19
f 133/50/20 157/15/20 158/22/20 131/21/20
f 160/16/21 135/51/21 134/47/21 159/46/21
f 135/51/22 133/50/22 132/7/22 136/49/22
f 127/48/18 132/7/18 131/60/18 128/61/18
f 136/49/19 130/9/19 129/62/19 134/63/19
f 139/50/15 144/15/15 143/22/15 137/21/15
f 145/16/16 141/51/16 140/47/16 146/46/16
f 141/51/23 139/50/23 138/7/23 142/49/23
f 148/48/24 138/7/24 137/60/24 147/61/24
f 142/49/25 149/9/25 150/62/25 140/63/25
f 151/53/20 158/52/20 157/15/20 152/18/20
f 159/11/21 154/14/21 156/17/21 160/16/21
f 155/8/26 153/7/26 152/18/26 156/17/26
f 147/20/24 151/53/24 153/55/24 148/58/24
f 154/14/25 150/13/25 149/59/25 155/56/25
f 83/19/1 143/52/1 121/53/1 128/20/1
