# Blender 4.0.2
# www.blender.org
mtllib Wämde.mtl
o Cube.003
v -3.818592 0.000131 -3.181597
v -3.818592 2.511592 -3.181597
v -3.818592 0.000131 -3.240604
v -3.818592 2.511592 -3.240604
v -3.818592 0.000131 1.733687
v -3.818592 2.511592 1.733687
v -3.759670 2.511592 1.733687
v -3.759670 0.000131 1.733687
v -3.818592 0.000131 1.792724
v -3.818592 2.511592 1.792724
v -3.759670 2.511592 1.792724
v -3.759670 0.000131 1.792724
v 3.032604 2.511592 1.733687
v 3.032604 0.000131 1.733687
v 3.032604 2.511592 1.792724
v 3.032604 0.000131 1.792724
v 3.092010 2.511592 1.733687
v 3.092010 0.000131 1.733687
v 3.092010 2.511592 1.792724
v 3.092010 0.000131 1.792724
v 3.032604 2.511592 -3.181500
v 3.032604 0.000131 -3.181500
v 3.092010 2.511592 -3.181500
v 3.092010 0.000131 -3.181500
v 3.032604 2.511592 -3.240672
v 3.032604 0.000131 -3.240672
v 3.092010 2.511592 -3.240672
v 3.092010 0.000131 -3.240672
v -3.759670 2.511592 -3.181597
v -3.759670 0.000131 -3.181597
v -3.759670 2.511592 -3.240604
v -3.759670 0.000131 -3.240604
v -3.818592 2.511592 -1.543169
v -3.818592 2.511592 0.095259
v -3.818592 0.000131 -1.543169
v -3.818592 0.000131 0.095259
v -3.759670 2.511592 0.095259
v -3.759670 2.511592 -1.543169
v -3.759670 0.000131 0.095259
v -3.759670 0.000131 -1.543169
v -3.818592 2.511592 -2.891410
v -3.818592 2.511592 -1.833355
v -3.818592 0.000131 -2.891410
v -3.818592 0.000131 -1.833355
v -3.818592 0.000131 -2.804895
v -3.818592 0.000131 -1.919871
v -3.818592 2.183403 -2.891410
v -3.818592 2.183403 -1.833355
v -3.818592 2.100241 -2.804895
v -3.818592 2.100241 -1.919871
v -3.815519 2.100241 -2.804895
v -3.815519 0.000131 -2.804895
v -3.815519 0.000131 -1.919871
v -3.815519 2.100241 -1.919871
v -3.759670 2.511592 -1.833355
v -3.759670 2.511592 -2.891410
v -3.759670 0.000131 -1.833355
v -3.759670 0.000131 -2.891410
v -3.759670 2.183403 -2.891410
v -3.759670 2.183403 -1.833355
v -3.759670 0.000131 -1.919871
v -3.759670 0.000131 -2.804895
v -3.759670 2.100241 -2.804895
v -3.759670 2.100241 -1.919871
v -3.762742 0.000131 -2.804895
v -3.762742 2.100241 -2.804895
v -3.762742 2.100241 -1.919871
v -3.762742 0.000131 -1.919871
v -3.838460 0.000131 -1.919871
v -3.838460 0.000131 -1.833355
v -3.838460 0.000131 -2.891410
v -3.838460 0.000131 -2.804895
v -3.838460 2.183403 -2.891410
v -3.838460 2.183403 -1.833355
v -3.838460 2.100240 -2.804895
v -3.838460 2.100240 -1.919871
v -3.731251 0.000131 -2.804895
v -3.731251 0.000131 -2.891410
v -3.731251 2.183403 -2.891410
v -3.731251 2.183403 -1.833355
v -3.731251 0.000131 -1.833355
v -3.731251 0.000131 -1.919871
v -3.731251 2.100240 -2.804895
v -3.731251 2.100240 -1.919871
v 3.092010 0.000131 -0.872004
v 3.092010 2.511592 -0.872004
v 3.032604 2.511592 -0.872004
v 3.032604 0.000131 -0.872004
v 3.092010 0.000131 -0.931268
v 3.092010 2.511592 -0.931268
v 3.032604 2.511592 -0.931268
v 3.032604 0.000131 -0.931268
v 0.723415 2.511592 -0.931268
v 0.723415 2.511592 -0.872004
v 0.723415 0.000131 -0.931268
v 0.723415 0.000131 -0.872004
v 0.664200 2.511592 -0.931268
v 0.664200 2.511592 -0.872004
v 0.664200 0.000131 -0.931268
v 0.664200 0.000131 -0.872004
v 0.723415 2.511592 -3.181533
v 0.723415 0.000131 -3.181533
v 0.664200 2.511592 -3.181534
v 0.664200 0.000131 -3.181534
v 0.723415 0.000131 -3.240649
v 0.723415 2.511592 -3.240649
v 0.664200 0.000131 -3.240648
v 0.664200 2.511592 -3.240648
v 0.723415 0.000131 -1.132783
v 0.723415 0.000131 -2.192024
v 0.723415 2.511592 -2.192024
v 0.723415 2.511592 -1.132783
v 0.723415 2.183404 -1.132783
v 0.723415 0.000131 -1.220484
v 0.723415 2.183404 -2.192024
v 0.723415 2.100240 -2.105506
v 0.722018 2.100240 -1.220484
v 0.722018 0.000131 -1.220484
v 0.722018 0.000131 -2.105506
v 0.722018 2.100240 -2.105506
v 0.664200 0.000131 -2.192025
v 0.664200 2.511592 -2.192025
v 0.664200 2.511592 -1.132783
v 0.664200 2.183404 -1.132783
v 0.664200 0.000131 -1.220485
v 0.664200 2.183404 -2.192025
v 0.664200 2.100240 -1.220485
v 0.665596 2.100240 -1.220485
v 0.665596 2.100240 -2.105507
v 0.665596 0.000131 -2.105507
v 0.723415 0.000131 -2.105506
v 0.723415 2.100240 -1.220484
v 0.664200 0.000131 -2.105507
v 0.664200 0.000131 -1.132783
v 0.664200 2.100240 -2.105507
v 0.665596 0.000131 -1.220485
v 0.750888 0.000131 -2.105506
v 0.750888 0.000131 -2.192024
v 0.750885 0.000131 -1.132825
v 0.750885 2.183404 -1.132819
v 0.750885 0.000131 -1.220423
v 0.750888 2.100240 -2.105506
v 0.750888 2.183404 -2.192024
v 0.750888 2.100240 -1.220426
v 0.749488 0.000131 -1.220423
v 0.749488 2.100240 -1.220423
v 0.636727 0.000131 -2.105507
v 0.636727 0.000131 -2.192025
v 0.636730 2.183404 -1.132744
v 0.636730 0.000131 -1.132751
v 0.636730 0.000131 -1.220478
v 0.636727 2.100240 -2.105507
v 0.636727 2.183404 -2.192025
v 0.636727 2.100240 -1.220474
v 0.638127 2.100240 -1.220478
v 0.638127 0.000131 -1.220478
v 1.347423 2.511592 1.792724
v 2.266039 2.511592 1.792724
v 1.347423 0.000131 1.792724
v 2.266039 0.000131 1.792724
v 1.347423 2.097875 1.792724
v 2.266039 0.971294 1.792724
v 2.266039 2.097875 1.792724
v 1.347423 0.971294 1.792724
v 2.194162 1.985220 1.819261
v 2.194162 1.083950 1.819261
v 1.419300 1.083950 1.819261
v 1.419300 1.985220 1.819261
v 2.266039 2.097875 1.820657
v 2.194162 1.985220 1.820657
v 2.194162 1.083950 1.820657
v 2.266039 0.971294 1.820657
v 1.347423 0.971294 1.820657
v 1.419300 1.083950 1.820657
v 1.419300 1.985220 1.820657
v 1.347423 2.097875 1.820657
v 2.266039 2.511592 1.733687
v 1.347423 2.511592 1.733687
v 2.266039 0.000131 1.733687
v 1.347423 0.000131 1.733687
v 1.347423 2.097875 1.733687
v 1.347423 0.971294 1.733687
v 2.266039 2.097875 1.733687
v 2.266039 0.971294 1.733687
v 2.194162 1.083950 1.707151
v 2.194162 1.985220 1.707151
v 1.419301 1.985220 1.707151
v 1.419301 1.083950 1.707151
v 2.266039 0.971294 1.705754
v 2.194162 1.083950 1.705754
v 2.194162 1.985220 1.705754
v 2.266039 2.097875 1.705754
v 1.347423 2.097875 1.705754
v 1.419301 1.985220 1.705754
v 1.419301 1.083950 1.705754
v 1.347423 0.971294 1.705754
v -2.198319 0.000131 -3.240630
v -3.102840 0.000131 -3.240622
v -3.102840 2.511592 -3.240622
v -2.198319 2.511592 -3.240630
v -2.198319 2.100139 -3.240630
v -3.102840 0.975951 -3.240622
v -3.102840 2.100139 -3.240622
v -2.198319 0.975951 -3.240630
v -2.263763 1.094761 -3.240630
v -2.263763 1.981328 -3.240630
v -3.037396 1.094761 -3.240622
v -3.037396 1.981328 -3.240622
v -2.263763 1.981328 -3.239234
v -2.263763 1.094761 -3.239234
v -3.037396 1.094761 -3.239225
v -3.037396 1.981328 -3.239225
v -2.198319 0.000131 -3.181559
v -3.102840 0.000131 -3.181572
v -3.102840 2.511592 -3.181572
v -2.198319 2.511592 -3.181559
v -3.102840 2.100139 -3.181572
v -3.102840 0.975951 -3.181572
v -2.198319 0.975951 -3.181559
v -2.198319 2.100139 -3.181559
v -2.263763 1.981328 -3.181559
v -2.263763 1.094761 -3.181559
v -3.037396 1.981328 -3.181572
v -3.037396 1.094761 -3.181572
v -2.263763 1.094761 -3.182956
v -2.263763 1.981328 -3.182956
v -3.037396 1.981328 -3.182968
v -3.037396 1.094761 -3.182968
v -3.102840 0.975951 -3.263401
v -3.102840 2.100139 -3.263401
v -2.198319 0.975951 -3.263410
v -2.263763 1.094762 -3.263410
v -2.263763 1.981328 -3.263410
v -3.037396 1.094762 -3.263401
v -3.037396 1.981328 -3.263401
v -3.102840 2.100139 -3.158792
v -3.102840 0.975951 -3.158792
v -2.263763 1.094762 -3.158780
v -2.198319 0.975951 -3.158780
v -2.198319 2.100139 -3.158780
v -2.263763 1.981327 -3.158780
v -3.037396 1.981327 -3.158792
v -3.037396 1.094762 -3.158792
v -2.198319 2.100139 -3.263410
vn -1.0000 -0.0000 -0.0000
vn -0.0000 -0.0000 -1.0000
vn -0.0000 1.0000 -0.0000
vn -0.0000 -1.0000 -0.0000
vn 1.0000 -0.0000 -0.0000
vn -0.0000 -0.0000 1.0000
vn 0.0022 -0.0000 -1.0000
vn -0.9999 -0.0000 -0.0156
vn 0.9999 -0.0000 -0.0156
vn -0.0003 -0.0000 -1.0000
vn 0.0014 -0.0000 1.0000
vn 0.0013 -0.0000 1.0000
vt 0.375000 0.000000
vt 0.625000 0.000000
vt 0.625000 0.250000
vt 0.375000 0.250000
vt 0.625000 0.500000
vt 0.375000 0.500000
vt 0.625000 0.750000
vt 0.875000 0.750000
vt 0.125000 0.500000
vt 0.375000 0.750000
vt 0.125000 0.750000
vt 0.875000 0.500000
vt 0.625000 1.000000
vt 0.375000 1.000000
vt 0.541667 0.750000
vt 0.458333 0.750000
vt 326.833008 -1.700277
vt 326.833008 -0.291097
vt 326.833008 1.118083
vt 326.833008 2.527263
vt 488.941803 2.527263
vt 488.941803 -1.700277
vt 0.625000 0.554053
vt 0.541667 0.554053
vt 0.458333 0.554053
vt 0.375000 0.554053
vt 0.375000 0.662159
vt 0.375000 0.750000
vt 0.375000 0.750000
vt 0.375000 0.608106
vt 0.625000 0.750000
vt 0.625000 0.662159
vt 0.625000 0.608106
vt 0.625000 0.750000
vt -52.291462 -1.613770
vt -52.291458 -0.204590
vt -52.291454 1.204590
vt -52.291451 2.613770
vt -157.874359 2.613770
vt -157.874359 -1.613770
vt 0.500000 0.000000
vt -19.051880 -1.618896
vt -19.051880 0.494874
vt -19.051880 2.608644
vt -58.155655 2.608644
vt -58.155655 -1.618896
vt 0.625000 0.750000
vt 48.516525 2.159090
vt 48.516525 -2.068450
vt 21.684673 -2.068450
vt 21.684673 1.560920
vt 21.684673 2.159090
vt 0.468796 1.560920
vt -41.962955 1.560920
vt -41.962955 2.159090
vt -0.082355 1.870489
vt -0.082355 -1.618896
vt 44.970142 -2.220010
vt 44.970142 2.007530
vt 18.138298 2.007530
vt 18.138298 1.409360
vt 18.138298 -2.220010
vt 0.562857 -31.183815
vt 0.562857 32.183823
vt 0.342857 1.869757
vt 0.342857 -1.619628
vt 0.137645 -1.618896
vt 0.137645 1.870489
vt -0.082355 32.183823
vt -0.082355 -31.183823
vt 0.137645 -31.183823
vt 0.137645 32.183823
vt -45.509331 2.007530
vt -24.293455 1.409360
vt 0.562857 -1.619628
vt 0.562857 1.869757
vt 0.342857 32.183823
vt 0.342857 -31.183815
vt -31.323822 2.010474
vt -31.183823 1.870489
vt -31.183823 -1.618896
vt -31.323814 -1.618896
vt 32.323814 2.010474
vt 32.323814 -1.618896
vt 32.183823 -1.618896
vt 32.183823 1.870489
vt 32.323822 2.010474
vt -31.183815 -1.619628
vt -31.183815 1.869757
vt -31.323814 2.009742
vt -31.323814 -1.619628
vt 32.323814 -1.619628
vt 32.323822 2.009742
vt 32.183823 1.869757
vt 32.183823 -1.619628
vt -31.323822 2.009742
vt 0.500000 0.750000
vt 27.353191 -1.581711
vt 27.353189 0.532059
vt 27.353188 2.645830
vt 81.059479 2.645830
vt 81.059479 -1.581711
vt 0.625000 0.666001
vt 0.375000 0.666001
vt -67.042953 2.167910
vt -67.042953 -2.059630
vt -19.553566 -2.059630
vt -19.553566 1.540340
vt -19.553566 2.167910
vt 2.493096 1.540340
vt 46.586418 1.540340
vt 46.586422 2.167910
vt -62.704163 -2.208250
vt -62.704163 2.019290
vt -15.214745 2.019290
vt -15.214737 1.391720
vt -15.214737 -2.208250
vt 0.571411 1.822854
vt 0.571411 -1.577131
vt 0.954956 -1.581711
vt 0.954956 1.818274
vt 1.054962 -32.370003
vt 1.054962 33.369987
vt 0.954956 33.369987
vt 0.954956 -32.370003
vt 1.054962 -1.581711
vt 1.054962 1.818274
vt 50.925282 2.019290
vt 28.878613 1.391720
vt 0.571411 -32.370003
vt 0.571411 33.370003
vt 0.471405 -32.370003
vt 0.471405 33.370003
vt 0.471405 1.822854
vt 0.471405 -1.577131
vt 33.569988 2.018259
vt 33.369987 1.818274
vt 33.369987 -1.581711
vt 33.569984 -1.581711
vt -32.570000 2.018259
vt -32.370003 1.818274
vt -32.570015 -1.577131
vt -32.570000 2.022839
vt -32.370003 -1.577131
vt 33.370003 -1.577131
vt 33.370003 1.822854
vt 33.570007 2.022839
vt 33.570007 -1.577131
vt -32.370003 1.822854
vt 33.570004 2.022839
vt -32.570000 -1.581711
vt 2.615497 2.527263
vt 2.615497 -1.700277
vt 217.838623 -1.700277
vt 217.838623 -0.586497
vt 217.838623 1.413483
vt 217.838623 2.527263
vt 273.718628 -1.700277
vt 255.091949 -0.586497
vt 236.465286 1.413483
vt 273.718628 1.413483
vt 273.718628 2.527263
vt -356.972229 1.213490
vt -356.972229 -0.386504
vt -356.872223 -0.386504
vt -356.872223 1.213490
vt 218.038620 -356.972229
vt 273.518616 -356.972229
vt 273.518616 -356.872223
vt 218.038620 -356.872223
vt 273.518646 -348.845215
vt 218.038651 -348.845215
vt 273.518616 1.213490
vt 273.518616 -0.386504
vt 273.718628 -0.586497
vt 218.038620 -0.386504
vt 218.038620 1.213490
vt 217.838638 2.527263
vt 217.838638 1.413483
vt 217.838638 -0.586497
vt 217.838638 -1.700277
vt -354.972229 -0.586497
vt -354.972229 1.413483
vt -356.972229 1.413483
vt -356.972229 -0.586497
vt 217.838623 -354.972229
vt 273.718628 -354.972229
vt 273.718628 -356.972229
vt 217.838623 -356.972229
vt 273.718658 2.527263
vt 255.091980 1.413483
vt 236.465302 -0.586497
vt 273.718658 -0.586497
vt 273.718658 -1.700277
vt -348.745209 -0.386504
vt -348.745209 1.213490
vt -348.845215 1.213490
vt -348.845215 -0.386504
vt 218.038651 -348.745209
vt 273.518646 -348.745209
vt 273.518646 -0.386504
vt 273.518646 1.213490
vt 273.718658 1.413483
vt 217.838654 1.413483
vt 218.038651 1.213490
vt 218.038651 -0.386504
vt 217.838654 -0.586497
vt 217.838654 -350.745209
vt 273.718658 -350.745209
vt 273.718658 -348.745209
vt 217.838654 -348.745209
vt -350.745209 1.413483
vt -350.745209 -0.586497
vt -348.745209 -0.586497
vt -348.745209 1.413483
vt 158.874344 2.613770
vt 158.874344 -1.613770
vt 31.780014 -1.613770
vt 31.780014 -0.499990
vt 31.780014 1.499990
vt 31.780014 2.613770
vt -30.780029 -1.613770
vt -9.926682 -0.499990
vt 10.926664 1.499990
vt -30.780029 1.499990
vt -30.780029 2.613770
vt 0.449560 1.299997
vt 0.449560 -0.299997
vt -31.767151 -0.499990
vt -31.767151 1.499990
vt 2.615031 1.299997
vt 2.615031 -0.299997
vt 95.327179 -1.613770
vt 95.327179 2.613770
vt -31.767151 2.613770
vt -31.767151 -1.613770
vt 0.550442 1.299997
vt 0.550442 -0.299997
vt 2.515031 -0.299997
vt 2.515031 1.299997
vt 31.580002 2.615645
vt -30.580017 2.615031
vt -30.580017 2.515031
vt 31.580002 2.515645
vt 2.615645 1.299997
vt 2.615645 -0.299997
vt 2.515645 -0.299997
vt 2.515645 1.299997
vt 31.580002 2.615645
vt 31.580002 2.515645
vt -94.327194 2.613770
vt -73.473846 1.499990
vt -52.620499 -0.499990
vt -94.327194 -0.499990
vt -94.327194 -1.613770
vt -30.580002 0.450442
vt 31.580017 0.449560
vt -30.580002 0.550442
vt 31.580017 0.549560
vt 0.450442 1.299997
vt 0.450442 -0.299997
vt 0.549560 1.299997
vt 0.549560 -0.299997
vt -30.780014 1.499990
vt -30.580017 1.299997
vt -30.580017 -0.299997
vt -30.780029 -0.499990
vt 31.779999 -0.499990
vt 31.580002 -0.299997
vt 31.580002 1.299997
vt -30.780014 -0.499990
vt 31.779999 1.499990
vt -30.779999 -0.499990
vt -30.580002 -0.299997
vt -30.580002 1.299997
vt -30.780014 1.499990
vt 31.780029 -0.499990
vt 31.780014 1.499990
vt 31.580017 1.299997
vt 31.580017 -0.299997
vt -30.779999 1.499990
vt 31.780014 -0.499990
s 0
usemtl comic
f 1/1/1 2/2/1 4/3/1 3/4/1
f 3/4/2 4/3/2 31/5/2 32/6/2
f 37/7/3 34/8/3 6/8/3 7/7/3
f 3/9/4 32/6/4 30/10/4 1/11/4
f 31/5/3 4/12/3 2/8/3 29/7/3
f 5/11/4 8/10/4 12/10/4 9/11/4
f 39/10/5 37/7/5 7/7/5 8/10/5
f 34/2/1 36/1/1 5/1/1 6/2/1
f 36/11/4 39/10/4 8/10/4 5/11/4
f 12/10/6 11/7/6 10/13/6 9/14/6
f 6/2/1 5/1/1 9/1/1 10/2/1
f 7/7/3 6/8/3 10/8/3 11/7/3
f 7/7/3 11/7/3 157/7/3 158/7/3 15/7/3 13/7/3 177/7/3 178/7/3
f 15/7/6 16/10/6 20/10/6 19/7/6
f 158/7/6 163/15/6 162/16/6 160/10/6 16/10/6 15/7/6
f 179/17/2 184/18/2 183/19/2 177/20/2 13/21/2 14/22/2
f 12/10/4 8/10/4 180/10/4 179/10/4 14/10/4 16/10/4 160/10/4 159/10/4
f 18/10/5 17/7/5 19/7/5 20/10/5
f 16/10/4 14/10/4 18/10/4 20/10/4
f 90/7/5 89/10/5 24/10/5 23/7/5
f 13/7/3 15/7/3 19/7/3 17/7/3
f 21/7/3 23/7/3 27/7/3 25/7/3
f 91/7/3 90/7/3 23/7/3 21/7/3
f 92/10/1 91/7/1 21/7/1 22/10/1
f 89/10/4 92/10/4 22/10/4 24/10/4
f 26/10/2 25/7/2 27/7/2 28/10/2
f 23/7/5 24/10/5 28/10/5 27/7/5
f 24/10/4 22/10/4 26/10/4 28/10/4
f 199/23/2 203/24/2 202/25/2 198/26/2 32/6/2 31/5/2
f 107/27/4 104/28/4 213/29/4 214/29/4 30/29/4 32/6/4 198/26/4 197/30/4
f 103/31/3 108/32/3 200/33/3 199/23/3 31/5/3 29/34/3 215/34/3 216/7/3
f 214/35/6 218/36/6 217/37/6 215/38/6 29/39/6 30/40/6
f 1/11/4 30/10/4 58/10/4 62/10/4 61/10/4 57/10/4 40/10/4 35/11/4 44/11/4 46/11/4 45/11/4 43/11/4
f 35/11/4 40/10/4 39/10/4 36/11/4
f 42/2/1 48/41/1 44/1/1 35/1/1 33/2/1
f 33/2/1 35/1/1 36/1/1 34/2/1
f 57/42/5 60/43/5 55/44/5 38/45/5 40/46/5
f 40/10/5 38/47/5 37/7/5 39/10/5
f 29/7/3 2/8/3 41/8/3 42/8/3 33/8/3 38/47/3 55/47/3 56/7/3
f 38/47/3 33/8/3 34/8/3 37/7/3
f 2/48/1 1/49/1 43/50/1 47/51/1 41/52/1
f 60/43/6 57/42/6 81/42/6 80/43/6
f 41/52/1 47/53/1 48/54/1 42/55/1
f 50/56/2 46/57/2 69/57/2 76/56/2
f 30/58/5 29/59/5 56/60/5 59/61/5 58/62/5
f 64/63/4 63/64/4 83/64/4 84/63/4
f 67/65/2 68/66/2 53/67/2 54/68/2
f 46/57/2 50/56/2 54/68/2 53/67/2
f 45/69/3 46/70/3 53/71/3 52/72/3
f 50/70/4 49/69/4 51/72/4 54/71/4
f 49/56/6 45/57/6 52/67/6 51/68/6
f 59/61/5 56/60/5 55/73/5 60/74/5
f 58/62/2 59/61/2 79/61/2 78/62/2
f 45/57/6 49/56/6 75/56/6 72/57/6
f 61/75/2 64/76/2 84/76/2 82/75/2
f 66/77/4 67/78/4 54/71/4 51/72/4
f 64/76/2 61/75/2 68/66/2 67/65/2
f 61/63/3 62/64/3 65/77/3 68/78/3
f 63/64/4 64/63/4 67/78/4 66/77/4
f 62/75/6 63/76/6 66/65/6 65/66/6
f 68/78/3 65/77/3 52/72/3 53/71/3
f 65/66/6 66/65/6 51/68/6 52/67/6
f 74/79/1 76/80/1 69/81/1 70/82/1
f 73/83/1 71/84/1 72/85/1 75/86/1
f 73/87/1 75/86/1 76/80/1 74/79/1
f 82/88/5 84/89/5 80/90/5 81/91/5
f 78/92/5 79/93/5 83/94/5 77/95/5
f 83/94/5 79/93/5 80/96/5 84/89/5
f 46/11/4 44/11/4 70/11/4 69/11/4
f 49/69/4 50/70/4 76/70/4 75/69/4
f 43/11/4 45/11/4 72/11/4 71/11/4
f 57/10/4 61/10/4 82/10/4 81/10/4
f 47/51/2 43/50/2 71/50/2 73/51/2
f 48/54/3 47/53/3 73/53/3 74/54/3
f 44/1/6 48/41/6 74/41/6 70/1/6
f 63/76/6 62/75/6 77/75/6 83/76/6
f 59/61/3 60/74/3 80/74/3 79/61/3
f 62/10/4 58/10/4 78/10/4 77/10/4
f 18/10/4 14/10/4 88/10/4 85/10/4
f 14/10/1 13/7/1 87/7/1 88/10/1
f 13/7/3 17/7/3 86/7/3 87/7/3
f 17/7/5 18/10/5 85/10/5 86/7/5
f 85/10/4 88/10/4 92/10/4 89/10/4
f 87/7/3 91/7/3 93/7/3 94/7/3
f 87/7/3 86/7/3 90/7/3 91/7/3
f 86/7/5 85/10/5 89/10/5 90/7/5
f 111/7/5 115/97/5 110/29/5 102/29/5 101/7/5
f 91/7/2 92/10/2 95/10/2 93/7/2
f 88/10/6 87/7/6 94/7/6 96/10/6
f 92/10/4 88/10/4 96/10/4 95/10/4
f 100/10/1 98/7/1 97/7/1 99/10/1
f 95/10/4 96/10/4 100/10/4 99/10/4
f 96/10/6 94/7/6 98/7/6 100/10/6
f 94/7/3 93/7/3 97/7/3 98/7/3
f 95/10/4 99/10/4 134/28/4 125/29/4 133/29/4 121/29/4 104/29/4 102/29/4 110/29/4 131/29/4 114/29/4 109/28/4
f 97/7/3 93/7/3 112/7/3 111/7/3 101/7/3 103/34/3 122/34/3 123/7/3
f 121/98/1 126/99/1 122/100/1 103/101/1 104/102/1
f 22/10/6 21/7/6 101/7/6 102/29/6
f 21/7/3 25/7/3 106/103/3 101/7/3
f 26/10/4 22/10/4 102/29/4 105/104/4
f 25/7/2 26/10/2 105/104/2 106/103/2
f 101/7/3 106/103/3 108/32/3 103/31/3
f 105/104/4 102/29/4 104/28/4 107/27/4
f 106/103/2 105/104/2 107/27/2 108/32/2
f 93/105/5 95/106/5 109/107/5 113/108/5 112/109/5
f 112/109/5 113/110/5 115/111/5 111/112/5
f 99/113/1 97/114/1 123/115/1 124/116/1 134/117/1
f 129/118/6 130/119/6 119/120/6 120/121/6
f 114/122/3 131/123/3 119/124/3 118/125/3
f 116/123/4 132/122/4 117/125/4 120/124/4
f 131/126/6 116/127/6 120/121/6 119/120/6
f 124/116/1 123/115/1 122/128/1 126/129/1
f 128/130/4 129/131/4 120/124/4 117/125/4
f 127/132/4 135/133/4 129/131/4 128/130/4
f 135/134/6 133/135/6 130/119/6 129/118/6
f 133/133/3 125/132/3 136/130/3 130/131/3
f 130/131/3 136/130/3 118/125/3 119/124/3
f 136/119/2 128/118/2 117/121/2 118/120/2
f 126/99/2 121/98/2 148/98/2 153/99/2
f 118/120/7 117/121/7 146/121/7 145/120/7
f 132/122/4 116/123/4 142/123/4 144/122/4
f 133/135/6 135/134/6 152/134/6 147/135/6
f 115/111/3 113/110/3 140/110/3 143/111/3
f 116/127/6 131/126/6 137/126/6 142/127/6
f 143/136/5 142/137/5 137/138/5 138/139/5
f 140/140/5 144/141/5 142/137/5 143/136/5
f 150/142/8 149/143/8 154/134/8 155/118/8 156/119/8 151/144/8
f 147/145/1 152/146/1 153/147/1 148/148/1
f 154/149/1 149/143/1 153/150/1 152/146/1
f 140/140/9 139/151/9 141/126/9 145/120/9 146/121/9 144/141/9
f 135/133/4 127/132/4 154/132/4 152/133/4
f 114/122/3 118/125/3 145/125/3 141/122/3
f 124/116/3 126/129/3 153/129/3 149/116/3
f 131/29/4 110/29/4 138/29/4 137/29/4
f 128/118/10 136/119/10 156/119/10 155/118/10
f 117/125/4 132/122/4 144/122/4 146/125/4
f 113/108/11 109/107/11 139/107/11 140/108/11
f 127/132/3 128/130/3 155/130/3 154/132/3
f 121/29/4 133/29/4 147/29/4 148/29/4
f 109/28/4 114/29/4 141/29/4 139/28/4
f 136/130/3 125/132/3 151/132/3 156/130/3
f 134/117/12 124/116/12 149/116/12 150/117/12
f 110/29/2 115/97/2 143/97/2 138/29/2
f 125/29/4 134/28/4 150/28/4 151/29/4
f 11/152/6 12/153/6 159/154/6 164/155/6 161/156/6 157/157/6
f 164/155/6 159/154/6 160/158/6 162/159/6
f 157/157/6 161/160/6 163/161/6 158/162/6
f 175/163/5 174/164/5 167/165/5 168/166/5
f 174/167/3 171/168/3 166/169/3 167/170/3
f 171/164/1 170/163/1 165/166/1 166/165/1
f 170/168/4 175/167/4 168/170/4 165/169/4
f 185/171/3 188/172/3 167/170/3 166/169/3
f 169/161/6 170/173/6 171/174/6 172/175/6
f 176/156/6 173/155/6 174/176/6 175/177/6
f 174/176/6 173/155/6 172/175/6 171/174/6
f 176/156/6 175/177/6 170/173/6 169/161/6
f 8/153/2 7/152/2 178/178/2 181/179/2 182/180/2 180/181/2
f 162/182/5 163/183/5 169/184/5 172/185/5
f 161/183/1 164/182/1 173/185/1 176/184/1
f 164/186/4 162/187/4 172/188/4 173/189/4
f 163/187/3 161/186/3 176/189/3 169/188/3
f 181/179/2 178/178/2 177/190/2 183/191/2
f 180/181/2 182/192/2 184/193/2 179/194/2
f 195/195/5 194/196/5 187/197/5 188/198/5
f 194/199/4 191/200/4 186/171/4 187/172/4
f 191/196/1 190/195/1 185/198/1 186/197/1
f 190/200/3 195/199/3 188/172/3 185/171/3
f 186/197/1 185/198/1 166/165/1 165/166/1
f 189/193/2 190/201/2 191/202/2 192/203/2
f 196/180/2 193/204/2 194/205/2 195/206/2
f 194/205/2 193/204/2 192/203/2 191/202/2
f 196/207/2 195/206/2 190/201/2 189/193/2
f 181/208/3 183/209/3 192/210/3 193/211/3
f 184/209/4 182/208/4 196/211/4 189/210/4
f 183/212/5 184/213/5 189/214/5 192/215/5
f 182/213/1 181/212/1 193/215/1 196/214/1
f 188/198/5 187/197/5 168/166/5 167/165/5
f 187/172/4 186/171/4 165/169/4 168/170/4
f 108/216/2 107/217/2 197/218/2 204/219/2 201/220/2 200/221/2
f 204/219/2 197/218/2 198/222/2 202/223/2
f 200/221/2 201/224/2 203/225/2 199/226/2
f 221/227/1 222/228/1 238/228/1 241/227/1
f 219/229/5 220/230/5 240/230/5 239/229/5
f 201/220/5 204/219/5 231/219/5 244/220/5
f 208/231/5 207/232/5 234/232/5 235/231/5
f 104/233/6 103/234/6 216/235/6 220/230/6 219/229/6 213/236/6
f 227/237/5 228/238/5 211/239/5 212/240/5
f 205/241/3 207/242/3 211/243/3 210/244/3
f 207/232/5 208/231/5 212/240/5 211/239/5
f 206/245/1 205/246/1 210/247/1 209/248/1
f 208/242/4 206/249/4 209/250/4 212/243/4
f 220/230/6 216/235/6 215/251/6 217/252/6
f 213/236/6 219/253/6 218/254/6 214/255/6
f 205/246/1 206/245/1 233/245/1 232/246/1
f 223/256/4 221/257/4 241/257/4 242/256/4
f 202/25/1 203/24/1 230/24/1 229/25/1
f 222/257/3 224/256/3 243/256/3 238/257/3
f 228/258/3 225/259/3 210/244/3 211/243/3
f 226/259/4 227/258/4 212/243/4 209/250/4
f 224/256/3 222/257/3 225/259/3 228/258/3
f 221/257/4 223/256/4 227/258/4 226/259/4
f 223/260/5 224/261/5 228/238/5 227/237/5
f 222/228/1 221/227/1 226/262/1 225/263/1
f 225/263/1 226/262/1 209/248/1 210/247/1
f 230/264/2 235/265/2 234/266/2 229/267/2
f 244/220/2 231/268/2 232/269/2 233/270/2
f 232/269/2 231/268/2 229/271/2 234/266/2
f 244/272/2 233/270/2 235/265/2 230/264/2
f 237/273/6 243/274/6 242/275/6 236/276/6
f 239/277/6 240/278/6 241/279/6 238/280/6
f 241/279/6 240/278/6 236/281/6 242/275/6
f 239/282/6 238/280/6 243/274/6 237/273/6
f 206/249/4 208/242/4 235/242/4 233/249/4
f 203/225/3 201/224/3 244/224/3 230/225/3
f 218/254/4 219/253/4 239/253/4 237/254/4
f 204/219/4 202/223/4 229/223/4 231/219/4
f 207/242/3 205/241/3 232/241/3 234/242/3
f 217/37/1 218/36/1 237/36/1 236/37/1
f 220/230/3 217/252/3 236/252/3 240/230/3
f 224/261/5 223/260/5 242/260/5 243/261/5
o rolladen
v -3.028997 1.974128 -3.199445
v -3.028997 1.896953 -3.177322
v -3.028997 1.976374 -3.191610
v -3.028997 1.899199 -3.169487
v -2.270596 1.974128 -3.199445
v -2.270596 1.896953 -3.177322
v -2.270596 1.976374 -3.191610
v -2.270596 1.899199 -3.169487
v -3.028997 1.735098 -3.199445
v -3.028997 1.657923 -3.177322
v -3.028997 1.737345 -3.191610
v -3.028997 1.660169 -3.169487
v -2.270596 1.735098 -3.199445
v -2.270596 1.657923 -3.177322
v -2.270596 1.737345 -3.191610
v -2.270596 1.660169 -3.169487
v -3.028997 1.894450 -3.199445
v -3.028997 1.817274 -3.177322
v -3.028997 1.896696 -3.191610
v -3.028997 1.819520 -3.169487
v -2.270596 1.894450 -3.199445
v -2.270596 1.817274 -3.177322
v -2.270596 1.896696 -3.191610
v -2.270596 1.819520 -3.169487
v -3.028997 1.814797 -3.199445
v -3.028997 1.737621 -3.177322
v -3.028997 1.817043 -3.191610
v -3.028997 1.739867 -3.169487
v -2.270596 1.814797 -3.199445
v -2.270596 1.737621 -3.177322
v -2.270596 1.817043 -3.191610
v -2.270596 1.739867 -3.169487
v -3.028997 1.653924 -3.199445
v -3.028997 1.576749 -3.177322
v -3.028997 1.656170 -3.191610
v -3.028997 1.578995 -3.169487
v -2.270596 1.653924 -3.199445
v -2.270596 1.576749 -3.177322
v -2.270596 1.656170 -3.191610
v -2.270596 1.578995 -3.169487
v -3.028997 1.414895 -3.199445
v -3.028997 1.337719 -3.177322
v -3.028997 1.417141 -3.191610
v -3.028997 1.339965 -3.169487
v -2.270596 1.414895 -3.199445
v -2.270596 1.337719 -3.177322
v -2.270596 1.417141 -3.191610
v -2.270596 1.339965 -3.169487
v -3.028997 1.574246 -3.199445
v -3.028997 1.497071 -3.177322
v -3.028997 1.576492 -3.191610
v -3.028997 1.499317 -3.169487
v -2.270596 1.574246 -3.199445
v -2.270596 1.497071 -3.177322
v -2.270596 1.576492 -3.191610
v -2.270596 1.499317 -3.169487
v -3.028997 1.494593 -3.199445
v -3.028997 1.417417 -3.177322
v -3.028997 1.496839 -3.191610
v -3.028997 1.419663 -3.169487
v -2.270596 1.494593 -3.199445
v -2.270596 1.417417 -3.177322
v -2.270596 1.496839 -3.191610
v -2.270596 1.419663 -3.169487
v -3.028997 1.175992 -3.199445
v -3.028997 1.098816 -3.177322
v -3.028997 1.178238 -3.191610
v -3.028997 1.101062 -3.169487
v -2.270596 1.175992 -3.199445
v -2.270596 1.098816 -3.177322
v -2.270596 1.178238 -3.191610
v -2.270596 1.101062 -3.169487
v -3.028997 1.335343 -3.199445
v -3.028997 1.258168 -3.177322
v -3.028997 1.337589 -3.191610
v -3.028997 1.260414 -3.169487
v -2.270596 1.335343 -3.199445
v -2.270596 1.258168 -3.177322
v -2.270596 1.337589 -3.191610
v -2.270596 1.260414 -3.169487
v -3.028997 1.255690 -3.199445
v -3.028997 1.178514 -3.177322
v -3.028997 1.257936 -3.191610
v -3.028997 1.180760 -3.169487
v -2.270596 1.255690 -3.199445
v -2.270596 1.178514 -3.177322
v -2.270596 1.257936 -3.191610
v -2.270596 1.180760 -3.169487
vn -1.0000 -0.0000 -0.0000
vn -0.0000 0.2756 0.9613
vn 1.0000 -0.0000 -0.0000
vn -0.0000 -0.2756 -0.9613
vn -0.0000 0.9613 -0.2756
vn -0.0000 -0.9613 0.2756
vt 0.375000 0.000000
vt 0.625000 0.000000
vt 0.625000 0.250000
vt 0.375000 0.250000
vt 0.625000 0.500000
vt 0.375000 0.500000
vt 0.625000 0.750000
vt 0.375000 0.750000
vt 0.625000 1.000000
vt 0.375000 1.000000
vt 0.125000 0.500000
vt 0.125000 0.750000
vt 0.875000 0.500000
vt 0.875000 0.750000
s 0
usemtl comic
f 245/283/13 246/284/13 248/285/13 247/286/13
f 247/286/14 248/285/14 252/287/14 251/288/14
f 251/288/15 252/287/15 250/289/15 249/290/15
f 249/290/16 250/289/16 246/291/16 245/292/16
f 247/293/17 251/288/17 249/290/17 245/294/17
f 252/287/18 248/295/18 246/296/18 250/289/18
f 253/283/13 254/284/13 256/285/13 255/286/13
f 255/286/14 256/285/14 260/287/14 259/288/14
f 259/288/15 260/287/15 258/289/15 257/290/15
f 257/290/16 258/289/16 254/291/16 253/292/16
f 255/293/17 259/288/17 257/290/17 253/294/17
f 260/287/18 256/295/18 254/296/18 258/289/18
f 261/283/13 262/284/13 264/285/13 263/286/13
f 263/286/14 264/285/14 268/287/14 267/288/14
f 267/288/15 268/287/15 266/289/15 265/290/15
f 265/290/16 266/289/16 262/291/16 261/292/16
f 263/293/17 267/288/17 265/290/17 261/294/17
f 268/287/18 264/295/18 262/296/18 266/289/18
f 269/283/13 270/284/13 272/285/13 271/286/13
f 271/286/14 272/285/14 276/287/14 275/288/14
f 275/288/15 276/287/15 274/289/15 273/290/15
f 273/290/16 274/289/16 270/291/16 269/292/16
f 271/293/17 275/288/17 273/290/17 269/294/17
f 276/287/18 272/295/18 270/296/18 274/289/18
f 277/283/13 278/284/13 280/285/13 279/286/13
f 279/286/14 280/285/14 284/287/14 283/288/14
f 283/288/15 284/287/15 282/289/15 281/290/15
f 281/290/16 282/289/16 278/291/16 277/292/16
f 279/293/17 283/288/17 281/290/17 277/294/17
f 284/287/18 280/295/18 278/296/18 282/289/18
f 285/283/13 286/284/13 288/285/13 287/286/13
f 287/286/14 288/285/14 292/287/14 291/288/14
f 291/288/15 292/287/15 290/289/15 289/290/15
f 289/290/16 290/289/16 286/291/16 285/292/16
f 287/293/17 291/288/17 289/290/17 285/294/17
f 292/287/18 288/295/18 286/296/18 290/289/18
f 293/283/13 294/284/13 296/285/13 295/286/13
f 295/286/14 296/285/14 300/287/14 299/288/14
f 299/288/15 300/287/15 298/289/15 297/290/15
f 297/290/16 298/289/16 294/291/16 293/292/16
f 295/293/17 299/288/17 297/290/17 293/294/17
f 300/287/18 296/295/18 294/296/18 298/289/18
f 301/283/13 302/284/13 304/285/13 303/286/13
f 303/286/14 304/285/14 308/287/14 307/288/14
f 307/288/15 308/287/15 306/289/15 305/290/15
f 305/290/16 306/289/16 302/291/16 301/292/16
f 303/293/17 307/288/17 305/290/17 301/294/17
f 308/287/18 304/295/18 302/296/18 306/289/18
f 309/283/13 310/284/13 312/285/13 311/286/13
f 311/286/14 312/285/14 316/287/14 315/288/14
f 315/288/15 316/287/15 314/289/15 313/290/15
f 313/290/16 314/289/16 310/291/16 309/292/16
f 311/293/17 315/288/17 313/290/17 309/294/17
f 316/287/18 312/295/18 310/296/18 314/289/18
f 317/283/13 318/284/13 320/285/13 319/286/13
f 319/286/14 320/285/14 324/287/14 323/288/14
f 323/288/15 324/287/15 322/289/15 321/290/15
f 321/290/16 322/289/16 318/291/16 317/292/16
f 319/293/17 323/288/17 321/290/17 317/294/17
f 324/287/18 320/295/18 318/296/18 322/289/18
f 325/283/13 326/284/13 328/285/13 327/286/13
f 327/286/14 328/285/14 332/287/14 331/288/14
f 331/288/15 332/287/15 330/289/15 329/290/15
f 329/290/16 330/289/16 326/291/16 325/292/16
f 327/293/17 331/288/17 329/290/17 325/294/17
f 332/287/18 328/295/18 326/296/18 330/289/18
o rolladen.001
v 2.185969 1.974128 1.742683
v 2.185969 1.896953 1.720560
v 2.185969 1.976374 1.734847
v 2.185969 1.899199 1.712724
v 1.427568 1.974128 1.742683
v 1.427568 1.896953 1.720560
v 1.427568 1.976374 1.734848
v 1.427568 1.899199 1.712725
v 2.185969 1.735098 1.742683
v 2.185969 1.657923 1.720560
v 2.185969 1.737345 1.734847
v 2.185969 1.660169 1.712724
v 1.427568 1.735098 1.742683
v 1.427568 1.657923 1.720560
v 1.427568 1.737345 1.734848
v 1.427568 1.660169 1.712725
v 2.185969 1.894450 1.742683
v 2.185969 1.817274 1.720560
v 2.185969 1.896696 1.734847
v 2.185969 1.819520 1.712724
v 1.427568 1.894450 1.742683
v 1.427568 1.817274 1.720560
v 1.427568 1.896696 1.734848
v 1.427568 1.819520 1.712725
v 2.185969 1.814797 1.742682
v 2.185969 1.737621 1.720559
v 2.185969 1.817043 1.734847
v 2.185969 1.739867 1.712724
v 1.427568 1.814797 1.742683
v 1.427568 1.737621 1.720560
v 1.427568 1.817043 1.734848
v 1.427568 1.739867 1.712725
v 2.185969 1.653924 1.742683
v 2.185969 1.576749 1.720560
v 2.185969 1.656170 1.734847
v 2.185969 1.578995 1.712724
v 1.427568 1.653924 1.742683
v 1.427568 1.576749 1.720560
v 1.427568 1.656170 1.734848
v 1.427568 1.578995 1.712725
v 2.185969 1.414895 1.742683
v 2.185969 1.337719 1.720560
v 2.185969 1.417141 1.734847
v 2.185969 1.339965 1.712724
v 1.427568 1.414895 1.742683
v 1.427568 1.337719 1.720560
v 1.427568 1.417141 1.734848
v 1.427568 1.339965 1.712725
v 2.185969 1.574246 1.742682
v 2.185969 1.497071 1.720559
v 2.185969 1.576492 1.734847
v 2.185969 1.499317 1.712724
v 1.427568 1.574246 1.742683
v 1.427568 1.497071 1.720560
v 1.427568 1.576492 1.734848
v 1.427568 1.499317 1.712725
v 2.185969 1.494593 1.742683
v 2.185969 1.417417 1.720560
v 2.185969 1.496839 1.734847
v 2.185969 1.419663 1.712724
v 1.427568 1.494593 1.742683
v 1.427568 1.417417 1.720560
v 1.427568 1.496839 1.734848
v 1.427568 1.419663 1.712725
v 2.185969 1.175992 1.742682
v 2.185969 1.098816 1.720559
v 2.185969 1.178238 1.734847
v 2.185969 1.101062 1.712724
v 1.427568 1.175992 1.742683
v 1.427568 1.098816 1.720560
v 1.427568 1.178238 1.734848
v 1.427568 1.101062 1.712725
v 2.185969 1.335343 1.742683
v 2.185969 1.258168 1.720560
v 2.185969 1.337589 1.734847
v 2.185969 1.260414 1.712724
v 1.427568 1.335343 1.742683
v 1.427568 1.258168 1.720560
v 1.427568 1.337589 1.734848
v 1.427568 1.260414 1.712725
v 2.185969 1.255690 1.742683
v 2.185969 1.178514 1.720560
v 2.185969 1.257936 1.734848
v 2.185969 1.180760 1.712724
v 1.427568 1.255690 1.742683
v 1.427568 1.178514 1.720560
v 1.427568 1.257936 1.734848
v 1.427568 1.180760 1.712725
vn 1.0000 -0.0000 -0.0000
vn -0.0000 0.2756 -0.9613
vn -1.0000 -0.0000 -0.0000
vn -0.0000 -0.2756 0.9613
vn -0.0000 0.9613 0.2756
vn -0.0000 -0.9613 -0.2756
vt 0.375000 0.000000
vt 0.625000 0.000000
vt 0.625000 0.250000
vt 0.375000 0.250000
vt 0.625000 0.500000
vt 0.375000 0.500000
vt 0.625000 0.750000
vt 0.375000 0.750000
vt 0.625000 1.000000
vt 0.375000 1.000000
vt 0.125000 0.500000
vt 0.125000 0.750000
vt 0.875000 0.500000
vt 0.875000 0.750000
s 0
usemtl comic
f 333/297/19 334/298/19 336/299/19 335/300/19
f 335/300/20 336/299/20 340/301/20 339/302/20
f 339/302/21 340/301/21 338/303/21 337/304/21
f 337/304/22 338/303/22 334/305/22 333/306/22
f 335/307/23 339/302/23 337/304/23 333/308/23
f 340/301/24 336/309/24 334/310/24 338/303/24
f 341/297/19 342/298/19 344/299/19 343/300/19
f 343/300/20 344/299/20 348/301/20 347/302/20
f 347/302/21 348/301/21 346/303/21 345/304/21
f 345/304/22 346/303/22 342/305/22 341/306/22
f 343/307/23 347/302/23 345/304/23 341/308/23
f 348/301/24 344/309/24 342/310/24 346/303/24
f 349/297/19 350/298/19 352/299/19 351/300/19
f 351/300/20 352/299/20 356/301/20 355/302/20
f 355/302/21 356/301/21 354/303/21 353/304/21
f 353/304/22 354/303/22 350/305/22 349/306/22
f 351/307/23 355/302/23 353/304/23 349/308/23
f 356/301/24 352/309/24 350/310/24 354/303/24
f 357/297/19 358/298/19 360/299/19 359/300/19
f 359/300/20 360/299/20 364/301/20 363/302/20
f 363/302/21 364/301/21 362/303/21 361/304/21
f 361/304/22 362/303/22 358/305/22 357/306/22
f 359/307/23 363/302/23 361/304/23 357/308/23
f 364/301/24 360/309/24 358/310/24 362/303/24
f 365/297/19 366/298/19 368/299/19 367/300/19
f 367/300/20 368/299/20 372/301/20 371/302/20
f 371/302/21 372/301/21 370/303/21 369/304/21
f 369/304/22 370/303/22 366/305/22 365/306/22
f 367/307/23 371/302/23 369/304/23 365/308/23
f 372/301/24 368/309/24 366/310/24 370/303/24
f 373/297/19 374/298/19 376/299/19 375/300/19
f 375/300/20 376/299/20 380/301/20 379/302/20
f 379/302/21 380/301/21 378/303/21 377/304/21
f 377/304/22 378/303/22 374/305/22 373/306/22
f 375/307/23 379/302/23 377/304/23 373/308/23
f 380/301/24 376/309/24 374/310/24 378/303/24
f 381/297/19 382/298/19 384/299/19 383/300/19
f 383/300/20 384/299/20 388/301/20 387/302/20
f 387/302/21 388/301/21 386/303/21 385/304/21
f 385/304/22 386/303/22 382/305/22 381/306/22
f 383/307/23 387/302/23 385/304/23 381/308/23
f 388/301/24 384/309/24 382/310/24 386/303/24
f 389/297/19 390/298/19 392/299/19 391/300/19
f 391/300/20 392/299/20 396/301/20 395/302/20
f 395/302/21 396/301/21 394/303/21 393/304/21
f 393/304/22 394/303/22 390/305/22 389/306/22
f 391/307/23 395/302/23 393/304/23 389/308/23
f 396/301/24 392/309/24 390/310/24 394/303/24
f 397/297/19 398/298/19 400/299/19 399/300/19
f 399/300/20 400/299/20 404/301/20 403/302/20
f 403/302/21 404/301/21 402/303/21 401/304/21
f 401/304/22 402/303/22 398/305/22 397/306/22
f 399/307/23 403/302/23 401/304/23 397/308/23
f 404/301/24 400/309/24 398/310/24 402/303/24
f 405/297/19 406/298/19 408/299/19 407/300/19
f 407/300/20 408/299/20 412/301/20 411/302/20
f 411/302/21 412/301/21 410/303/21 409/304/21
f 409/304/22 410/303/22 406/305/22 405/306/22
f 407/307/23 411/302/23 409/304/23 405/308/23
f 412/301/24 408/309/24 406/310/24 410/303/24
f 413/297/19 414/298/19 416/299/19 415/300/19
f 415/300/20 416/299/20 420/301/20 419/302/20
f 419/302/21 420/301/21 418/303/21 417/304/21
f 417/304/22 418/303/22 414/305/22 413/306/22
f 415/307/23 419/302/23 417/304/23 413/308/23
f 420/301/24 416/309/24 414/310/24 418/303/24
