# Blender 4.0.2
# www.blender.org
mtllib BadSchrank Tür rechts.mtl
o defaultMaterial.003
v 1.483551 0.210016 -2.628201
v 1.952730 0.210016 -2.628201
v 1.952730 0.210016 -2.618491
v 1.483551 0.210016 -2.618491
v 1.952727 0.904222 -2.618491
v 1.952730 0.904222 -2.628200
v 1.483551 0.904222 -2.628201
v 1.483551 0.904222 -2.618491
v 1.952730 0.210016 -2.618491
v 1.952730 0.210016 -2.628201
v 1.952730 0.904222 -2.628200
v 1.952727 0.904222 -2.618491
v 1.483551 0.210016 -2.628201
v 1.483551 0.210016 -2.618491
v 1.483551 0.904222 -2.618491
v 1.483551 0.904222 -2.628201
v 1.483551 0.904222 -2.628201
v 1.952730 0.904222 -2.628200
v 1.952730 0.210016 -2.628201
v 1.483551 0.210016 -2.628201
v 1.495968 0.885847 -2.618491
v 1.483551 0.904222 -2.618491
v 1.483551 0.210016 -2.618491
v 1.495968 0.228391 -2.618491
v 1.940310 0.228391 -2.618491
v 1.952730 0.210016 -2.618491
v 1.952727 0.904222 -2.618491
v 1.940310 0.885847 -2.618491
v 1.940310 0.885847 -2.618491
v 1.952727 0.904222 -2.618491
v 1.483551 0.904222 -2.618491
v 1.495968 0.885847 -2.618491
v 1.495968 0.228391 -2.618491
v 1.483551 0.210016 -2.618491
v 1.952730 0.210016 -2.618491
v 1.940310 0.228391 -2.618491
v 1.511625 0.251556 -2.605698
v 1.495968 0.228391 -2.618491
v 1.940310 0.228391 -2.618491
v 1.924654 0.251556 -2.605698
v 1.924654 0.862682 -2.605697
v 1.940310 0.885847 -2.618491
v 1.495968 0.885847 -2.618491
v 1.511625 0.862682 -2.605697
v 1.924654 0.251556 -2.605698
v 1.940310 0.228391 -2.618491
v 1.940310 0.885847 -2.618491
v 1.924654 0.862682 -2.605697
v 1.511625 0.862682 -2.605697
v 1.495968 0.885847 -2.618491
v 1.495968 0.228391 -2.618491
v 1.511625 0.251556 -2.605698
v 1.559094 0.792447 -2.605698
v 1.511625 0.862682 -2.605697
v 1.511625 0.251556 -2.605698
v 1.559094 0.321793 -2.605698
v 1.877185 0.321793 -2.605698
v 1.924654 0.251556 -2.605698
v 1.924654 0.862682 -2.605697
v 1.877185 0.792447 -2.605697
v 1.877185 0.792447 -2.605697
v 1.924654 0.862682 -2.605697
v 1.511625 0.862682 -2.605697
v 1.559094 0.792447 -2.605698
v 1.559094 0.321793 -2.605698
v 1.511625 0.251556 -2.605698
v 1.924654 0.251556 -2.605698
v 1.877185 0.321793 -2.605698
v 1.570504 0.338674 -2.596559
v 1.559094 0.321793 -2.605698
v 1.877185 0.321793 -2.605698
v 1.865774 0.338674 -2.596559
v 1.865774 0.775564 -2.596559
v 1.877185 0.792447 -2.605697
v 1.559094 0.792447 -2.605698
v 1.570504 0.775564 -2.596559
v 1.865774 0.338674 -2.596559
v 1.877185 0.321793 -2.605698
v 1.877185 0.792447 -2.605697
v 1.865774 0.775564 -2.596559
v 1.570504 0.775564 -2.596559
v 1.559094 0.792447 -2.605698
v 1.559094 0.321793 -2.605698
v 1.570504 0.338674 -2.596559
v 1.570504 0.338674 -2.596559
v 1.865774 0.338674 -2.596559
v 1.865774 0.775564 -2.596559
v 1.570504 0.775564 -2.596559
v 1.548060 0.845548 -2.581680
v 1.546688 0.843497 -2.576182
v 1.549880 0.840879 -2.576182
v 1.551623 0.842623 -2.581680
v 1.551623 0.842623 -2.582680
v 1.554550 0.839058 -2.582680
v 1.548581 0.835069 -2.588678
v 1.546547 0.837546 -2.588678
v 1.526930 0.845443 -2.576182
v 1.530882 0.846642 -2.576182
v 1.530398 0.849061 -2.581680
v 1.525987 0.847723 -2.581680
v 1.517479 0.814288 -2.576182
v 1.515533 0.817929 -2.576182
v 1.513253 0.816984 -2.581680
v 1.515427 0.812917 -2.581680
v 1.520099 0.811097 -2.576182
v 1.518354 0.809353 -2.581680
v 1.523289 0.808478 -2.576182
v 1.521918 0.806426 -2.581680
v 1.526930 0.806532 -2.576182
v 1.525987 0.804253 -2.581680
v 1.539097 0.805334 -2.576182
v 1.534990 0.804929 -2.576182
v 1.534990 0.802461 -2.581680
v 1.539578 0.802914 -2.581680
v 1.549880 0.811097 -2.576182
v 1.546688 0.808478 -2.576182
v 1.548060 0.806426 -2.581680
v 1.551623 0.809352 -2.581680
v 1.555643 0.821880 -2.576182
v 1.554443 0.817929 -2.576182
v 1.556724 0.816984 -2.581680
v 1.558062 0.821398 -2.581680
v 1.556046 0.825988 -2.576182
v 1.558516 0.825988 -2.581680
v 1.555643 0.830096 -2.576182
v 1.558062 0.830577 -2.581680
v 1.554443 0.834046 -2.576182
v 1.556724 0.834990 -2.581680
v 1.543047 0.845443 -2.576182
v 1.543992 0.847723 -2.581680
v 1.548060 0.845548 -2.582680
v 1.543992 0.847723 -2.582680
v 1.539578 0.849061 -2.582680
v 1.539578 0.849061 -2.581680
v 1.534990 0.849513 -2.582680
v 1.534990 0.849513 -2.581680
v 1.530398 0.849061 -2.582680
v 1.525987 0.847723 -2.582680
v 1.521918 0.845548 -2.582680
v 1.521918 0.845548 -2.581680
v 1.518354 0.842623 -2.582680
v 1.518354 0.842623 -2.581680
v 1.515427 0.839058 -2.582680
v 1.515427 0.839058 -2.581680
v 1.513253 0.834990 -2.582680
v 1.513253 0.834990 -2.581680
v 1.511914 0.830577 -2.582680
v 1.511914 0.830577 -2.581680
v 1.511464 0.825988 -2.582680
v 1.511464 0.825988 -2.581680
v 1.511914 0.821398 -2.582680
v 1.511914 0.821398 -2.581680
v 1.513253 0.816984 -2.582680
v 1.515427 0.812917 -2.582680
v 1.518354 0.809353 -2.582680
v 1.521918 0.806426 -2.582680
v 1.525987 0.804253 -2.582680
v 1.530398 0.802914 -2.582680
v 1.530398 0.802914 -2.581680
v 1.534990 0.802461 -2.582680
v 1.534990 0.802461 -2.581680
v 1.539578 0.802914 -2.582680
v 1.534990 0.802461 -2.582680
v 1.543992 0.804253 -2.582680
v 1.543992 0.804253 -2.581680
v 1.548060 0.806426 -2.582680
v 1.551623 0.809352 -2.582680
v 1.554550 0.812917 -2.582680
v 1.554550 0.812917 -2.581680
v 1.556724 0.816984 -2.582680
v 1.558062 0.821398 -2.582680
v 1.558516 0.825988 -2.582680
v 1.558062 0.830577 -2.582680
v 1.556724 0.834990 -2.582680
v 1.554550 0.839058 -2.581680
v 1.550091 0.832243 -2.588678
v 1.551020 0.829176 -2.588678
v 1.551336 0.825988 -2.588678
v 1.551020 0.822799 -2.588678
v 1.550091 0.819733 -2.588678
v 1.548581 0.816906 -2.588678
v 1.546547 0.814429 -2.588678
v 1.544069 0.812396 -2.588678
v 1.541244 0.810886 -2.588678
v 1.538177 0.809955 -2.588678
v 1.534990 0.809641 -2.588678
v 1.531800 0.809955 -2.588678
v 1.534990 0.809641 -2.588678
v 1.528735 0.810886 -2.588678
v 1.525908 0.812396 -2.588678
v 1.523430 0.814429 -2.588678
v 1.521398 0.816906 -2.588678
v 1.519886 0.819733 -2.588678
v 1.518957 0.822799 -2.588678
v 1.518643 0.825988 -2.588678
v 1.518957 0.829176 -2.588678
v 1.519886 0.832243 -2.588678
v 1.521398 0.835069 -2.588678
v 1.523430 0.837546 -2.588678
v 1.525908 0.839579 -2.588678
v 1.528735 0.841090 -2.588678
v 1.531800 0.842020 -2.588678
v 1.534990 0.842334 -2.588678
v 1.538177 0.842020 -2.588678
v 1.541244 0.841090 -2.588678
v 1.544069 0.839579 -2.588678
v 1.544888 0.832601 -2.596674
v 1.543407 0.834406 -2.596674
v 1.545987 0.830543 -2.596674
v 1.546665 0.828311 -2.596674
v 1.546894 0.825988 -2.596674
v 1.546665 0.823665 -2.596674
v 1.545987 0.821432 -2.596674
v 1.544888 0.819374 -2.596674
v 1.543407 0.817570 -2.596674
v 1.541602 0.816089 -2.596674
v 1.539544 0.814989 -2.596674
v 1.537311 0.814312 -2.596674
v 1.534990 0.814083 -2.596674
v 1.532666 0.814312 -2.596674
v 1.534990 0.814083 -2.596674
v 1.530433 0.814989 -2.596674
v 1.528375 0.816089 -2.596674
v 1.526572 0.817570 -2.596674
v 1.525092 0.819374 -2.596674
v 1.523990 0.821432 -2.596674
v 1.523314 0.823665 -2.596674
v 1.523085 0.825988 -2.596674
v 1.523314 0.828311 -2.596674
v 1.523990 0.830543 -2.596674
v 1.525092 0.832601 -2.596674
v 1.526572 0.834406 -2.596674
v 1.528375 0.835886 -2.596674
v 1.530433 0.836985 -2.596674
v 1.532666 0.837663 -2.596674
v 1.534990 0.837892 -2.596674
v 1.537311 0.837663 -2.596674
v 1.539544 0.836985 -2.596674
v 1.541602 0.835886 -2.596674
v 1.539197 0.836149 -2.607672
v 1.541099 0.835133 -2.607672
v 1.537134 0.836775 -2.607672
v 1.534990 0.836987 -2.607672
v 1.532843 0.836775 -2.607672
v 1.530779 0.836149 -2.607672
v 1.528878 0.835133 -2.607672
v 1.527212 0.833765 -2.607672
v 1.525844 0.832099 -2.607672
v 1.524826 0.830197 -2.607672
v 1.524201 0.828133 -2.607672
v 1.523990 0.825988 -2.607672
v 1.524201 0.823842 -2.607672
v 1.524826 0.821779 -2.607672
v 1.525844 0.819877 -2.607672
v 1.527212 0.818210 -2.607672
v 1.528878 0.816842 -2.607672
v 1.530779 0.815825 -2.607672
v 1.532843 0.815199 -2.607672
v 1.534990 0.814989 -2.607672
v 1.537134 0.815199 -2.607672
v 1.534990 0.814989 -2.607672
v 1.539197 0.815825 -2.607672
v 1.541099 0.816842 -2.607672
v 1.542766 0.818210 -2.607672
v 1.544135 0.819877 -2.607672
v 1.545150 0.821779 -2.607672
v 1.545776 0.823842 -2.607672
v 1.545987 0.825988 -2.607672
v 1.545776 0.828133 -2.607672
v 1.545150 0.830197 -2.607672
v 1.544135 0.832099 -2.607672
v 1.542766 0.833765 -2.607672
v 1.539097 0.846642 -2.576182
v 1.534990 0.847046 -2.576182
v 1.523289 0.843497 -2.576182
v 1.520099 0.840879 -2.576182
v 1.517479 0.837686 -2.576182
v 1.515533 0.834046 -2.576182
v 1.514334 0.830096 -2.576182
v 1.513931 0.825988 -2.576182
v 1.514334 0.821880 -2.576182
v 1.530882 0.805334 -2.576182
v 1.543047 0.806532 -2.576182
v 1.552499 0.814288 -2.576182
v 1.552499 0.837686 -2.576182
v 1.513931 0.825988 -2.576182
vn -0.0000 -1.0000 -0.0000
vn -0.0000 1.0000 -0.0000
vn 1.0000 -0.0000 -0.0000
vn 1.0000 -0.0000 0.0003
vn -1.0000 -0.0000 -0.0000
vn -0.0000 -0.0000 -1.0000
vn -0.0000 -0.0000 1.0000
vn -0.0000 -0.4834 0.8754
vn -0.0000 0.4834 0.8754
vn 0.6328 -0.0000 0.7743
vn -0.6327 -0.0000 0.7744
vn -0.0000 -0.4761 0.8794
vn -0.0000 0.4760 0.8794
vn 0.6251 -0.0000 0.7805
vn -0.6251 -0.0000 0.7805
vn 0.5436 0.8135 0.2068
vn 0.3146 0.4710 0.8241
vn 0.4006 0.4006 0.8241
vn 0.6918 0.6919 0.2067
vn 0.6437 0.6438 -0.4138
vn 0.7569 0.5059 -0.4137
vn 0.6368 0.4256 -0.6429
vn 0.5415 0.5417 -0.6429
vn -0.2168 0.5233 0.8241
vn -0.1105 0.5556 0.8241
vn -0.1908 0.9596 0.2067
vn -0.3744 0.9039 0.2067
vn -0.4710 -0.3148 0.8241
vn -0.5233 -0.2167 0.8242
vn -0.9039 -0.3744 0.2068
vn -0.8134 -0.5437 0.2068
vn -0.4005 -0.4005 0.8241
vn -0.6918 -0.6918 0.2068
vn -0.3147 -0.4709 0.8241
vn -0.5436 -0.8135 0.2068
vn -0.2167 -0.5233 0.8241
vn -0.3743 -0.9039 0.2068
vn 0.1105 -0.5555 0.8241
vn -0.0000 -0.5664 0.8241
vn -0.0000 -0.9784 0.2068
vn 0.1909 -0.9596 0.2068
vn 0.4006 -0.4006 0.8241
vn 0.3146 -0.4709 0.8242
vn 0.5436 -0.8135 0.2068
vn 0.6919 -0.6918 0.2067
vn 0.5556 -0.1104 0.8241
vn 0.5232 -0.2168 0.8242
vn 0.9039 -0.3744 0.2068
vn 0.9596 -0.1909 0.2068
vn 0.5663 -0.0001 0.8242
vn 0.9784 -0.0000 0.2068
vn 0.5556 0.1106 0.8240
vn 0.9596 0.1910 0.2067
vn 0.5233 0.2167 0.8242
vn 0.9039 0.3743 0.2068
vn 0.2168 0.5233 0.8241
vn 0.3744 0.9039 0.2068
vn 0.5058 0.7569 -0.4138
vn 0.3484 0.8411 -0.4138
vn 0.1775 0.8929 -0.4138
vn 0.1908 0.9596 0.2067
vn -0.0000 0.9104 -0.4137
vn -0.0000 0.9784 0.2067
vn -0.1776 0.8929 -0.4137
vn -0.3484 0.8411 -0.4138
vn -0.5058 0.7570 -0.4138
vn -0.5436 0.8135 0.2068
vn -0.6437 0.6438 -0.4138
vn -0.6918 0.6919 0.2068
vn -0.7569 0.5058 -0.4138
vn -0.8135 0.5436 0.2068
vn -0.8411 0.3483 -0.4138
vn -0.9039 0.3744 0.2068
vn -0.8929 0.1774 -0.4138
vn -0.9596 0.1910 0.2067
vn -0.9104 -0.0000 -0.4138
vn -0.9784 -0.0000 0.2067
vn -0.8929 -0.1774 -0.4138
vn -0.9596 -0.1911 0.2067
vn -0.8411 -0.3484 -0.4138
vn -0.7569 -0.5059 -0.4138
vn -0.6437 -0.6438 -0.4138
vn -0.5058 -0.7570 -0.4138
vn -0.3483 -0.8411 -0.4138
vn -0.1777 -0.8929 -0.4138
vn -0.1910 -0.9596 0.2068
vn -0.0000 -0.9104 -0.4138
vn 0.1776 -0.8929 -0.4138
vn 0.3483 -0.8411 -0.4138
vn 0.3744 -0.9039 0.2068
vn 0.5058 -0.7569 -0.4138
vn 0.6438 -0.6437 -0.4138
vn 0.7569 -0.5059 -0.4137
vn 0.8135 -0.5436 0.2068
vn 0.8411 -0.3484 -0.4137
vn 0.8929 -0.1776 -0.4138
vn 0.9104 -0.0000 -0.4137
vn 0.8929 0.1777 -0.4138
vn 0.8411 0.3483 -0.4137
vn 0.8135 0.5436 0.2067
vn 0.7077 0.2930 -0.6429
vn 0.7513 0.1495 -0.6428
vn 0.7659 -0.0000 -0.6429
vn 0.7513 -0.1495 -0.6429
vn 0.7077 -0.2929 -0.6429
vn 0.6368 -0.4256 -0.6429
vn 0.5415 -0.5417 -0.6429
vn 0.4255 -0.6369 -0.6429
vn 0.2932 -0.7076 -0.6429
vn 0.1491 -0.7513 -0.6429
vn -0.0000 -0.7659 -0.6429
vn -0.1490 -0.7513 -0.6429
vn -0.2931 -0.7077 -0.6429
vn -0.4254 -0.6369 -0.6429
vn -0.5416 -0.5416 -0.6429
vn -0.6368 -0.4255 -0.6429
vn -0.7076 -0.2931 -0.6430
vn -0.7512 -0.1493 -0.6429
vn -0.7659 -0.0000 -0.6429
vn -0.7512 0.1493 -0.6429
vn -0.7076 0.2932 -0.6429
vn -0.6369 0.4255 -0.6429
vn -0.5416 0.5415 -0.6429
vn -0.4255 0.6369 -0.6429
vn -0.2931 0.7076 -0.6429
vn -0.1494 0.7512 -0.6429
vn -0.0000 0.7660 -0.6429
vn 0.1494 0.7512 -0.6429
vn 0.2931 0.7076 -0.6429
vn 0.4256 0.6369 -0.6429
vn 0.7948 0.5309 -0.2941
vn 0.6758 0.6758 -0.2941
vn 0.8830 0.3658 -0.2941
vn 0.9374 0.1868 -0.2941
vn 0.9558 -0.0000 -0.2941
vn 0.9374 -0.1868 -0.2941
vn 0.8831 -0.3657 -0.2941
vn 0.7948 -0.5309 -0.2941
vn 0.6757 -0.6760 -0.2941
vn 0.5310 -0.7947 -0.2941
vn 0.3657 -0.8831 -0.2941
vn 0.1866 -0.9374 -0.2940
vn -0.0000 -0.9558 -0.2941
vn -0.1865 -0.9374 -0.2940
vn -0.3657 -0.8831 -0.2940
vn -0.5312 -0.7946 -0.2940
vn -0.6760 -0.6757 -0.2941
vn -0.7945 -0.5313 -0.2941
vn -0.8830 -0.3657 -0.2941
vn -0.9375 -0.1863 -0.2940
vn -0.9558 -0.0000 -0.2941
vn -0.9374 0.1867 -0.2940
vn -0.8830 0.3659 -0.2941
vn -0.7946 0.5312 -0.2940
vn -0.6761 0.6756 -0.2941
vn -0.5310 0.7947 -0.2941
vn -0.3657 0.8830 -0.2940
vn -0.1865 0.9374 -0.2941
vn -0.0000 0.9558 -0.2941
vn 0.1865 0.9374 -0.2941
vn 0.3657 0.8830 -0.2941
vn 0.5308 0.7948 -0.2941
vn 0.3813 0.9208 -0.0821
vn 0.5536 0.8287 -0.0821
vn 0.1945 0.9775 -0.0821
vn 0.0001 0.9966 -0.0821
vn -0.1944 0.9775 -0.0821
vn -0.3813 0.9208 -0.0821
vn -0.5537 0.8286 -0.0821
vn -0.7048 0.7046 -0.0821
vn -0.8285 0.5539 -0.0820
vn -0.9207 0.3815 -0.0820
vn -0.9775 0.1942 -0.0820
vn -0.9966 0.0001 -0.0820
vn -0.9775 -0.1943 -0.0819
vn -0.9207 -0.3815 -0.0820
vn -0.8285 -0.5539 -0.0820
vn -0.7048 -0.7046 -0.0820
vn -0.5539 -0.8286 -0.0821
vn -0.3815 -0.9207 -0.0821
vn -0.1943 -0.9775 -0.0820
vn -0.0000 -0.9966 -0.0821
vn 0.1944 -0.9775 -0.0820
vn 0.3815 -0.9207 -0.0820
vn 0.5537 -0.8287 -0.0821
vn 0.7045 -0.7049 -0.0821
vn 0.8287 -0.5536 -0.0821
vn 0.9208 -0.3812 -0.0820
vn 0.9775 -0.1942 -0.0821
vn 0.9966 -0.0000 -0.0822
vn 0.9775 0.1942 -0.0822
vn 0.9209 0.3812 -0.0820
vn 0.8286 0.5538 -0.0820
vn 0.7046 0.7049 -0.0820
vn 0.1105 0.5556 0.8241
vn -0.0000 0.5665 0.8241
vn -0.3147 0.4710 0.8241
vn -0.4005 0.4005 0.8241
vn -0.4710 0.3147 0.8241
vn -0.5232 0.2168 0.8242
vn -0.5557 0.1104 0.8240
vn -0.5664 -0.0000 0.8241
vn -0.5557 -0.1105 0.8240
vn -0.1105 -0.5555 0.8241
vn 0.2167 -0.5233 0.8241
vn 0.4711 -0.3147 0.8241
vn 0.4710 0.3146 0.8241
vt 0.892070 0.082761
vt 0.527001 0.082761
vt 0.527001 0.090316
vt 0.892070 0.090318
vt 0.999512 0.634430
vt 0.991956 0.634430
vt 0.991956 0.999512
vt 0.999512 0.999512
vt 0.990979 0.031379
vt 0.982539 0.031352
vt 0.982539 0.514917
vt 0.990979 0.514944
vt 0.973122 0.999485
vt 0.981562 0.999512
vt 0.981562 0.515947
vt 0.973122 0.515920
vt 0.906749 0.459318
vt 0.541660 0.459317
vt 0.541659 0.999512
vt 0.906749 0.999512
vt 0.951842 0.985216
vt 0.961504 0.999512
vt 0.961504 0.459282
vt 0.951839 0.473582
vt 0.962483 0.985217
vt 0.972145 0.999512
vt 0.972145 0.459282
vt 0.962481 0.473581
vt 0.170164 0.389879
vt 0.184462 0.399543
vt 0.184462 0.034454
vt 0.170164 0.044117
vt 0.185439 0.389879
vt 0.199737 0.399543
vt 0.199737 0.034454
vt 0.185439 0.044117
vt 0.133319 0.387360
vt 0.153912 0.399543
vt 0.153912 0.053778
vt 0.133319 0.065961
vt 0.111749 0.387359
vt 0.132342 0.399543
vt 0.132342 0.053782
vt 0.111750 0.065964
vt 0.907726 0.981485
vt 0.923460 0.999512
vt 0.923460 0.487923
vt 0.907727 0.505949
vt 0.924438 0.981487
vt 0.940171 0.999512
vt 0.940171 0.487906
vt 0.924437 0.505932
vt 0.417651 0.576852
vt 0.454589 0.631505
vt 0.454589 0.155960
vt 0.417651 0.210613
vt 0.455566 0.576851
vt 0.492503 0.631505
vt 0.492503 0.155960
vt 0.455566 0.210613
vt 0.000488 0.362605
vt 0.055142 0.399543
vt 0.055142 0.078146
vt 0.000489 0.115083
vt 0.056119 0.362605
vt 0.110772 0.399543
vt 0.110772 0.078146
vt 0.056119 0.115083
vt 0.250199 0.246910
vt 0.265137 0.255789
vt 0.265137 0.008267
vt 0.250199 0.017146
vt 0.294551 0.246910
vt 0.309489 0.255789
vt 0.309489 0.008267
vt 0.294551 0.017145
vt 0.225493 0.386406
vt 0.236869 0.399543
vt 0.236869 0.033305
vt 0.225493 0.046442
vt 0.237846 0.386405
vt 0.249222 0.399543
vt 0.249222 0.033307
vt 0.237846 0.046444
vt 0.771424 0.118376
vt 0.541659 0.118376
vt 0.541659 0.458341
vt 0.771424 0.458341
vt 0.276421 0.294178
vt 0.277918 0.294038
vt 0.277993 0.293034
vt 0.276435 0.292946
vt 0.276158 0.292957
vt 0.276360 0.291650
vt 0.272930 0.291328
vt 0.272830 0.293091
vt 0.279956 0.297962
vt 0.279255 0.297378
vt 0.278201 0.298349
vt 0.279065 0.299115
vt 0.290474 0.295772
vt 0.289064 0.296881
vt 0.290050 0.299091
vt 0.291838 0.298124
vt 0.291922 0.294338
vt 0.293742 0.296875
vt 0.293466 0.292518
vt 0.295817 0.295344
vt 0.295026 0.290244
vt 0.298187 0.293391
vt 0.293876 0.283613
vt 0.298344 0.283394
vt 0.296664 0.276144
vt 0.292230 0.278087
vt 0.285842 0.285074
vt 0.288033 0.284364
vt 0.286319 0.281172
vt 0.284161 0.282508
vt 0.281173 0.287806
vt 0.282454 0.286824
vt 0.280766 0.285104
vt 0.279478 0.286420
vt 0.280133 0.288833
vt 0.278459 0.287744
vt 0.279305 0.289884
vt 0.277637 0.289062
vt 0.278681 0.290944
vt 0.277051 0.290380
vt 0.278015 0.294992
vt 0.276599 0.295353
vt 0.276154 0.294224
vt 0.276346 0.295432
vt 0.276723 0.296560
vt 0.276961 0.296449
vt 0.277278 0.297596
vt 0.277499 0.297453
vt 0.278003 0.298522
vt 0.278886 0.299325
vt 0.279937 0.299930
vt 0.280077 0.299714
vt 0.281079 0.300423
vt 0.281197 0.300177
vt 0.282344 0.300748
vt 0.282434 0.300480
vt 0.283719 0.300901
vt 0.283777 0.300610
vt 0.285196 0.300878
vt 0.285217 0.300551
vt 0.286768 0.300608
vt 0.286750 0.300269
vt 0.288412 0.300129
vt 0.288359 0.299779
vt 0.290147 0.299494
vt 0.291986 0.298550
vt 0.293946 0.297328
vt 0.296095 0.295866
vt 0.298570 0.293957
vt 0.301554 0.291707
vt 0.300977 0.290984
vt 0.305586 0.289231
vt 0.304421 0.287628
vt 0.291791 0.277270
vt 0.295615 0.274475
vt 0.288574 0.279169
vt 0.288956 0.279738
vt 0.285938 0.280728
vt 0.283816 0.282161
vt 0.281977 0.283517
vt 0.282316 0.283804
vt 0.280438 0.284871
vt 0.279152 0.286234
vt 0.278161 0.287612
vt 0.277327 0.288963
vt 0.276769 0.290324
vt 0.276645 0.291672
vt 0.273250 0.289524
vt 0.273758 0.287703
vt 0.274508 0.285859
vt 0.275437 0.283997
vt 0.276577 0.282089
vt 0.277960 0.280123
vt 0.279551 0.278067
vt 0.281283 0.275884
vt 0.283225 0.273506
vt 0.285316 0.270830
vt 0.287433 0.267773
vt 0.305185 0.300293
vt 0.308787 0.299514
vt 0.301909 0.301168
vt 0.298921 0.302085
vt 0.296212 0.302866
vt 0.293691 0.303570
vt 0.291347 0.304117
vt 0.289146 0.304457
vt 0.287045 0.304652
vt 0.285063 0.304662
vt 0.283201 0.304459
vt 0.281442 0.304065
vt 0.279799 0.303481
vt 0.278287 0.302709
vt 0.276887 0.301805
vt 0.275695 0.300678
vt 0.274693 0.299393
vt 0.273902 0.297969
vt 0.273334 0.296432
vt 0.272953 0.294803
vt 0.266169 0.291348
vt 0.266201 0.293843
vt 0.266381 0.288839
vt 0.266813 0.286325
vt 0.267448 0.283811
vt 0.268264 0.281294
vt 0.269209 0.278777
vt 0.270320 0.276239
vt 0.271540 0.273664
vt 0.272841 0.271033
vt 0.274161 0.268344
vt 0.275520 0.265567
vt 0.276843 0.262705
vt 0.306351 0.311356
vt 0.309489 0.311205
vt 0.303277 0.311576
vt 0.300297 0.311801
vt 0.297390 0.312005
vt 0.294560 0.312161
vt 0.291801 0.312230
vt 0.289109 0.312183
vt 0.286485 0.311997
vt 0.283928 0.311645
vt 0.281446 0.311106
vt 0.279049 0.310363
vt 0.276754 0.309399
vt 0.274584 0.308202
vt 0.272556 0.306787
vt 0.270757 0.305107
vt 0.269214 0.303179
vt 0.267998 0.301015
vt 0.267107 0.298699
vt 0.266497 0.296305
vt 0.250763 0.304537
vt 0.250289 0.300114
vt 0.251688 0.309161
vt 0.253142 0.313981
vt 0.257070 0.317126
vt 0.261014 0.319707
vt 0.264939 0.321793
vt 0.268820 0.323448
vt 0.272636 0.324731
vt 0.276374 0.325693
vt 0.280027 0.326381
vt 0.283591 0.326842
vt 0.287064 0.327118
vt 0.290451 0.327250
vt 0.293759 0.327276
vt 0.296996 0.327232
vt 0.300170 0.327158
vt 0.303302 0.327073
vt 0.306404 0.327006
vt 0.309489 0.326979
vt 0.260978 0.259625
vt 0.262162 0.256766
vt 0.259752 0.262484
vt 0.258497 0.265365
vt 0.257231 0.268289
vt 0.255976 0.271282
vt 0.254760 0.274366
vt 0.253614 0.277564
vt 0.252570 0.280896
vt 0.251664 0.284381
vt 0.250937 0.288034
vt 0.250433 0.291867
vt 0.250199 0.295892
vt 0.278276 0.295877
vt 0.278692 0.296677
vt 0.280783 0.298415
vt 0.281720 0.298730
vt 0.282758 0.298894
vt 0.283884 0.298895
vt 0.285065 0.298701
vt 0.286336 0.298305
vt 0.287693 0.297711
vt 0.296579 0.287335
vt 0.290665 0.283837
vt 0.283998 0.285905
vt 0.278246 0.291999
vt 0.286395 0.298323
s 0
usemtl comic
f 1/1/1 2/2/1 3/3/1
f 3/3/1 4/4/1 1/1/1
f 5/5/2 6/6/2 7/7/2
f 7/7/2 8/8/2 5/5/2
f 9/9/3 10/10/3 11/11/3
f 11/11/4 12/12/4 9/9/4
f 13/13/5 14/14/5 15/15/5
f 15/15/5 16/16/5 13/13/5
f 17/17/6 18/18/6 19/19/6
f 19/19/6 20/20/6 17/17/6
f 21/21/7 22/22/7 23/23/7
f 23/23/7 24/24/7 21/21/7
f 25/25/7 26/26/7 27/27/7
f 27/27/7 28/28/7 25/25/7
f 29/29/7 30/30/7 31/31/7
f 31/31/7 32/32/7 29/29/7
f 33/33/7 34/34/7 35/35/7
f 35/35/7 36/36/7 33/33/7
f 37/37/8 38/38/8 39/39/8
f 39/39/8 40/40/8 37/37/8
f 41/41/9 42/42/9 43/43/9
f 43/43/9 44/44/9 41/41/9
f 45/45/10 46/46/10 47/47/10
f 47/47/10 48/48/10 45/45/10
f 49/49/11 50/50/11 51/51/11
f 51/51/11 52/52/11 49/49/11
f 53/53/7 54/54/7 55/55/7
f 55/55/7 56/56/7 53/53/7
f 57/57/7 58/58/7 59/59/7
f 59/59/7 60/60/7 57/57/7
f 61/61/7 62/62/7 63/63/7
f 63/63/7 64/64/7 61/61/7
f 65/65/7 66/66/7 67/67/7
f 67/67/7 68/68/7 65/65/7
f 69/69/12 70/70/12 71/71/12
f 71/71/12 72/72/12 69/69/12
f 73/73/13 74/74/13 75/75/13
f 75/75/13 76/76/13 73/73/13
f 77/77/14 78/78/14 79/79/14
f 79/79/14 80/80/14 77/77/14
f 81/81/15 82/82/15 83/83/15
f 83/83/15 84/84/15 81/81/15
f 85/85/7 86/86/7 87/87/7
f 87/87/7 88/88/7 85/85/7
s 1
f 89/89/16 90/90/17 91/91/18
f 91/91/18 92/92/19 89/89/16
f 93/93/20 94/94/21 95/95/22
f 95/95/22 96/96/23 93/93/20
f 97/97/24 98/98/25 99/99/26
f 99/99/26 100/100/27 97/97/24
f 101/101/28 102/102/29 103/103/30
f 103/103/30 104/104/31 101/101/28
f 105/105/32 101/101/28 104/104/31
f 104/104/31 106/106/33 105/105/32
f 107/107/34 105/105/32 106/106/33
f 106/106/33 108/108/35 107/107/34
f 109/109/36 107/107/34 108/108/35
f 108/108/35 110/110/37 109/109/36
f 111/111/38 112/112/39 113/113/40
f 113/113/40 114/114/41 111/111/38
f 115/115/42 116/116/43 117/117/44
f 117/117/44 118/118/45 115/115/42
f 119/119/46 120/120/47 121/121/48
f 121/121/48 122/122/49 119/119/46
f 123/123/50 119/119/46 122/122/49
f 122/122/49 124/124/51 123/123/50
f 125/125/52 123/123/50 124/124/51
f 124/124/51 126/126/53 125/125/52
f 127/127/54 125/125/52 126/126/53
f 126/126/53 128/128/55 127/127/54
f 129/129/56 90/90/17 89/89/16
f 89/89/16 130/130/57 129/129/56
f 131/131/58 89/89/16 92/92/19
f 92/92/19 93/93/20 131/131/58
f 132/132/59 130/130/57 89/89/16
f 89/89/16 131/131/58 132/132/59
f 133/133/60 134/134/61 130/130/57
f 130/130/57 132/132/59 133/133/60
f 135/135/62 136/136/63 134/134/61
f 134/134/61 133/133/60 135/135/62
f 137/137/64 99/99/26 136/136/63
f 136/136/63 135/135/62 137/137/64
f 138/138/65 100/100/27 99/99/26
f 99/99/26 137/137/64 138/138/65
f 139/139/66 140/140/67 100/100/27
f 100/100/27 138/138/65 139/139/66
f 141/141/68 142/142/69 140/140/67
f 140/140/67 139/139/66 141/141/68
f 143/143/70 144/144/71 142/142/69
f 142/142/69 141/141/68 143/143/70
f 145/145/72 146/146/73 144/144/71
f 144/144/71 143/143/70 145/145/72
f 147/147/74 148/148/75 146/146/73
f 146/146/73 145/145/72 147/147/74
f 149/149/76 150/150/77 148/148/75
f 148/148/75 147/147/74 149/149/76
f 151/151/78 152/152/79 150/150/77
f 150/150/77 149/149/76 151/151/78
f 153/153/80 103/103/30 152/152/79
f 152/152/79 151/151/78 153/153/80
f 154/154/81 104/104/31 103/103/30
f 103/103/30 153/153/80 154/154/81
f 104/104/31 154/154/81 155/155/82
f 155/155/82 106/106/33 104/104/31
f 106/106/33 155/155/82 156/156/83
f 156/156/83 108/108/35 106/106/33
f 157/157/84 110/110/37 108/108/35
f 108/108/35 156/156/83 157/157/84
f 158/158/85 159/159/86 110/110/37
f 110/110/37 157/157/84 158/158/85
f 160/160/87 161/161/40 159/159/86
f 159/159/86 158/158/85 160/160/87
f 162/162/88 114/114/41 113/113/40
f 113/113/40 163/163/87 162/162/88
f 164/164/89 165/165/90 114/114/41
f 114/114/41 162/162/88 164/164/89
f 166/166/91 117/117/44 165/165/90
f 165/165/90 164/164/89 166/166/91
f 167/167/92 118/118/45 117/117/44
f 117/117/44 166/166/91 167/167/92
f 168/168/93 169/169/94 118/118/45
f 118/118/45 167/167/92 168/168/93
f 170/170/95 121/121/48 169/169/94
f 169/169/94 168/168/93 170/170/95
f 171/171/96 122/122/49 121/121/48
f 121/121/48 170/170/95 171/171/96
f 172/172/97 124/124/51 122/122/49
f 122/122/49 171/171/96 172/172/97
f 173/173/98 126/126/53 124/124/51
f 124/124/51 172/172/97 173/173/98
f 174/174/99 128/128/55 126/126/53
f 126/126/53 173/173/98 174/174/99
f 94/94/21 175/175/100 128/128/55
f 128/128/55 174/174/99 94/94/21
f 93/93/20 92/92/19 175/175/100
f 175/175/100 94/94/21 93/93/20
f 94/94/21 174/174/99 176/176/101
f 176/176/101 95/95/22 94/94/21
f 174/174/99 173/173/98 177/177/102
f 177/177/102 176/176/101 174/174/99
f 173/173/98 172/172/97 178/178/103
f 178/178/103 177/177/102 173/173/98
f 172/172/97 171/171/96 179/179/104
f 179/179/104 178/178/103 172/172/97
f 171/171/96 170/170/95 180/180/105
f 180/180/105 179/179/104 171/171/96
f 170/170/95 168/168/93 181/181/106
f 181/181/106 180/180/105 170/170/95
f 168/168/93 167/167/92 182/182/107
f 182/182/107 181/181/106 168/168/93
f 167/167/92 166/166/91 183/183/108
f 183/183/108 182/182/107 167/167/92
f 166/166/91 164/164/89 184/184/109
f 184/184/109 183/183/108 166/166/91
f 164/164/89 162/162/88 185/185/110
f 185/185/110 184/184/109 164/164/89
f 162/162/88 163/163/87 186/186/111
f 186/186/111 185/185/110 162/162/88
f 160/160/87 158/158/85 187/187/112
f 187/187/112 188/188/111 160/160/87
f 158/158/85 157/157/84 189/189/113
f 189/189/113 187/187/112 158/158/85
f 157/157/84 156/156/83 190/190/114
f 190/190/114 189/189/113 157/157/84
f 155/155/82 191/191/115 190/190/114
f 190/190/114 156/156/83 155/155/82
f 154/154/81 192/192/116 191/191/115
f 191/191/115 155/155/82 154/154/81
f 154/154/81 153/153/80 193/193/117
f 193/193/117 192/192/116 154/154/81
f 153/153/80 151/151/78 194/194/118
f 194/194/118 193/193/117 153/153/80
f 151/151/78 149/149/76 195/195/119
f 195/195/119 194/194/118 151/151/78
f 149/149/76 147/147/74 196/196/120
f 196/196/120 195/195/119 149/149/76
f 147/147/74 145/145/72 197/197/121
f 197/197/121 196/196/120 147/147/74
f 145/145/72 143/143/70 198/198/122
f 198/198/122 197/197/121 145/145/72
f 143/143/70 141/141/68 199/199/123
f 199/199/123 198/198/122 143/143/70
f 141/141/68 139/139/66 200/200/124
f 200/200/124 199/199/123 141/141/68
f 139/139/66 138/138/65 201/201/125
f 201/201/125 200/200/124 139/139/66
f 138/138/65 137/137/64 202/202/126
f 202/202/126 201/201/125 138/138/65
f 137/137/64 135/135/62 203/203/127
f 203/203/127 202/202/126 137/137/64
f 135/135/62 133/133/60 204/204/128
f 204/204/128 203/203/127 135/135/62
f 133/133/60 132/132/59 205/205/129
f 205/205/129 204/204/128 133/133/60
f 132/132/59 131/131/58 206/206/130
f 206/206/130 205/205/129 132/132/59
f 131/131/58 93/93/20 96/96/23
f 96/96/23 206/206/130 131/131/58
f 96/96/23 95/95/22 207/207/131
f 207/207/131 208/208/132 96/96/23
f 95/95/22 176/176/101 209/209/133
f 209/209/133 207/207/131 95/95/22
f 176/176/101 177/177/102 210/210/134
f 210/210/134 209/209/133 176/176/101
f 177/177/102 178/178/103 211/211/135
f 211/211/135 210/210/134 177/177/102
f 178/178/103 179/179/104 212/212/136
f 212/212/136 211/211/135 178/178/103
f 179/179/104 180/180/105 213/213/137
f 213/213/137 212/212/136 179/179/104
f 180/180/105 181/181/106 214/214/138
f 214/214/138 213/213/137 180/180/105
f 181/181/106 182/182/107 215/215/139
f 215/215/139 214/214/138 181/181/106
f 182/182/107 183/183/108 216/216/140
f 216/216/140 215/215/139 182/182/107
f 183/183/108 184/184/109 217/217/141
f 217/217/141 216/216/140 183/183/108
f 184/184/109 185/185/110 218/218/142
f 218/218/142 217/217/141 184/184/109
f 185/185/110 186/186/111 219/219/143
f 219/219/143 218/218/142 185/185/110
f 188/188/111 187/187/112 220/220/144
f 220/220/144 221/221/143 188/188/111
f 187/187/112 189/189/113 222/222/145
f 222/222/145 220/220/144 187/187/112
f 189/189/113 190/190/114 223/223/146
f 223/223/146 222/222/145 189/189/113
f 190/190/114 191/191/115 224/224/147
f 224/224/147 223/223/146 190/190/114
f 191/191/115 192/192/116 225/225/148
f 225/225/148 224/224/147 191/191/115
f 192/192/116 193/193/117 226/226/149
f 226/226/149 225/225/148 192/192/116
f 193/193/117 194/194/118 227/227/150
f 227/227/150 226/226/149 193/193/117
f 194/194/118 195/195/119 228/228/151
f 228/228/151 227/227/150 194/194/118
f 195/195/119 196/196/120 229/229/152
f 229/229/152 228/228/151 195/195/119
f 196/196/120 197/197/121 230/230/153
f 230/230/153 229/229/152 196/196/120
f 197/197/121 198/198/122 231/231/154
f 231/231/154 230/230/153 197/197/121
f 198/198/122 199/199/123 232/232/155
f 232/232/155 231/231/154 198/198/122
f 199/199/123 200/200/124 233/233/156
f 233/233/156 232/232/155 199/199/123
f 200/200/124 201/201/125 234/234/157
f 234/234/157 233/233/156 200/200/124
f 201/201/125 202/202/126 235/235/158
f 235/235/158 234/234/157 201/201/125
f 202/202/126 203/203/127 236/236/159
f 236/236/159 235/235/158 202/202/126
f 203/203/127 204/204/128 237/237/160
f 237/237/160 236/236/159 203/203/127
f 204/204/128 205/205/129 238/238/161
f 238/238/161 237/237/160 204/204/128
f 205/205/129 206/206/130 239/239/162
f 239/239/162 238/238/161 205/205/129
f 206/206/130 96/96/23 208/208/132
f 208/208/132 239/239/162 206/206/130
f 240/240/163 238/238/161 239/239/162
f 239/239/162 241/241/164 240/240/163
f 242/242/165 237/237/160 238/238/161
f 238/238/161 240/240/163 242/242/165
f 243/243/166 236/236/159 237/237/160
f 237/237/160 242/242/165 243/243/166
f 244/244/167 235/235/158 236/236/159
f 236/236/159 243/243/166 244/244/167
f 245/245/168 234/234/157 235/235/158
f 235/235/158 244/244/167 245/245/168
f 246/246/169 233/233/156 234/234/157
f 234/234/157 245/245/168 246/246/169
f 247/247/170 232/232/155 233/233/156
f 233/233/156 246/246/169 247/247/170
f 248/248/171 231/231/154 232/232/155
f 232/232/155 247/247/170 248/248/171
f 249/249/172 230/230/153 231/231/154
f 231/231/154 248/248/171 249/249/172
f 250/250/173 229/229/152 230/230/153
f 230/230/153 249/249/172 250/250/173
f 251/251/174 228/228/151 229/229/152
f 229/229/152 250/250/173 251/251/174
f 252/252/175 227/227/150 228/228/151
f 228/228/151 251/251/174 252/252/175
f 253/253/176 226/226/149 227/227/150
f 227/227/150 252/252/175 253/253/176
f 254/254/177 225/225/148 226/226/149
f 226/226/149 253/253/176 254/254/177
f 255/255/178 224/224/147 225/225/148
f 225/225/148 254/254/177 255/255/178
f 223/223/146 224/224/147 255/255/178
f 255/255/178 256/256/179 223/223/146
f 257/257/180 222/222/145 223/223/146
f 223/223/146 256/256/179 257/257/180
f 258/258/181 220/220/144 222/222/145
f 222/222/145 257/257/180 258/258/181
f 259/259/182 221/221/143 220/220/144
f 220/220/144 258/258/181 259/259/182
f 260/260/183 218/218/142 219/219/143
f 219/219/143 261/261/182 260/260/183
f 262/262/184 217/217/141 218/218/142
f 218/218/142 260/260/183 262/262/184
f 263/263/185 216/216/140 217/217/141
f 217/217/141 262/262/184 263/263/185
f 264/264/186 215/215/139 216/216/140
f 216/216/140 263/263/185 264/264/186
f 265/265/187 214/214/138 215/215/139
f 215/215/139 264/264/186 265/265/187
f 266/266/188 213/213/137 214/214/138
f 214/214/138 265/265/187 266/266/188
f 267/267/189 212/212/136 213/213/137
f 213/213/137 266/266/188 267/267/189
f 268/268/190 211/211/135 212/212/136
f 212/212/136 267/267/189 268/268/190
f 269/269/191 210/210/134 211/211/135
f 211/211/135 268/268/190 269/269/191
f 270/270/192 209/209/133 210/210/134
f 210/210/134 269/269/191 270/270/192
f 271/271/193 207/207/131 209/209/133
f 209/209/133 270/270/192 271/271/193
f 272/272/194 208/208/132 207/207/131
f 207/207/131 271/271/193 272/272/194
f 241/241/164 239/239/162 208/208/132
f 208/208/132 272/272/194 241/241/164
f 273/273/195 129/129/56 130/130/57
f 130/130/57 134/134/61 273/273/195
f 274/274/196 273/273/195 134/134/61
f 134/134/61 136/136/63 274/274/196
f 98/98/25 274/274/196 136/136/63
f 136/136/63 99/99/26 98/98/25
f 275/275/197 97/97/24 100/100/27
f 100/100/27 140/140/67 275/275/197
f 276/276/198 275/275/197 140/140/67
f 140/140/67 142/142/69 276/276/198
f 277/277/199 276/276/198 142/142/69
f 142/142/69 144/144/71 277/277/199
f 278/278/200 277/277/199 144/144/71
f 144/144/71 146/146/73 278/278/200
f 279/279/201 278/278/200 146/146/73
f 146/146/73 148/148/75 279/279/201
f 280/280/202 279/279/201 148/148/75
f 148/148/75 150/150/77 280/280/202
f 281/281/203 280/280/202 150/150/77
f 150/150/77 152/152/79 281/281/203
f 102/102/29 281/281/203 152/152/79
f 152/152/79 103/103/30 102/102/29
f 282/282/204 109/109/36 110/110/37
f 110/110/37 159/159/86 282/282/204
f 112/112/39 282/282/204 159/159/86
f 159/159/86 161/161/40 112/112/39
f 283/283/205 111/111/38 114/114/41
f 114/114/41 165/165/90 283/283/205
f 116/116/43 283/283/205 165/165/90
f 165/165/90 117/117/44 116/116/43
f 284/284/206 115/115/42 118/118/45
f 118/118/45 169/169/94 284/284/206
f 120/120/47 284/284/206 169/169/94
f 169/169/94 121/121/48 120/120/47
f 285/285/207 127/127/54 128/128/55
f 128/128/55 175/175/100 285/285/207
f 91/91/18 285/285/207 175/175/100
f 175/175/100 92/92/19 91/91/18
f 91/91/18 90/90/17 129/129/56
f 91/91/18 129/129/56 273/273/195
f 91/91/18 273/273/195 274/274/196
f 91/91/18 274/274/196 98/98/25
f 91/91/18 98/98/25 97/97/24
f 91/91/18 97/97/24 275/275/197
f 91/91/18 275/275/197 276/276/198
f 91/91/18 276/276/198 277/277/199
f 91/91/18 277/277/199 278/278/200
f 91/91/18 278/278/200 279/279/201
f 91/91/18 279/279/201 286/286/202
f 91/91/18 286/286/202 281/281/203
f 91/91/18 281/281/203 102/102/29
f 91/91/18 102/102/29 101/101/28
f 91/91/18 101/101/28 105/105/32
f 91/91/18 105/105/32 107/107/34
f 91/91/18 107/107/34 109/109/36
f 91/91/18 109/109/36 282/282/204
f 91/91/18 282/282/204 112/112/39
f 91/91/18 112/112/39 111/111/38
f 91/91/18 111/111/38 283/283/205
f 91/91/18 283/283/205 116/116/43
f 91/91/18 116/116/43 115/115/42
f 91/91/18 115/115/42 284/284/206
f 91/91/18 284/284/206 120/120/47
f 91/91/18 120/120/47 119/119/46
f 91/91/18 119/119/46 123/123/50
f 91/91/18 123/123/50 125/125/52
f 91/91/18 125/125/52 127/127/54
f 127/127/54 285/285/207 91/91/18
