# Blender 4.0.2
# www.blender.org
mtllib BadSchrank Tür links.mtl
o defaultMaterial
v 1.011794 0.210016 -2.628409
v 1.483466 0.210016 -2.628409
v 1.483466 0.210016 -2.618698
v 1.011794 0.210016 -2.618698
v 1.483466 0.904222 -2.618698
v 1.483466 0.904222 -2.628409
v 1.011794 0.904222 -2.628409
v 1.011794 0.904222 -2.618698
v 1.483466 0.210016 -2.618698
v 1.483466 0.210016 -2.628409
v 1.483466 0.904222 -2.628409
v 1.483466 0.904222 -2.618698
v 1.011794 0.210016 -2.628409
v 1.011794 0.210016 -2.618698
v 1.011794 0.904222 -2.618698
v 1.011794 0.904222 -2.628409
v 1.011794 0.904222 -2.628409
v 1.483466 0.904222 -2.628409
v 1.483466 0.210016 -2.628409
v 1.011794 0.210016 -2.628409
v 1.024279 0.885847 -2.618698
v 1.011794 0.904222 -2.618698
v 1.011794 0.210016 -2.618698
v 1.024279 0.228391 -2.618698
v 1.470981 0.228391 -2.618698
v 1.483466 0.210016 -2.618698
v 1.483466 0.904222 -2.618698
v 1.470981 0.885847 -2.618698
v 1.470981 0.885847 -2.618698
v 1.483466 0.904222 -2.618698
v 1.011794 0.904222 -2.618698
v 1.024279 0.885847 -2.618698
v 1.024279 0.228391 -2.618698
v 1.011794 0.210016 -2.618698
v 1.483466 0.210016 -2.618698
v 1.470981 0.228391 -2.618698
v 1.040020 0.251556 -2.605903
v 1.024279 0.228391 -2.618698
v 1.470981 0.228391 -2.618698
v 1.455243 0.251556 -2.605903
v 1.455243 0.862682 -2.605903
v 1.470981 0.885847 -2.618698
v 1.024279 0.885847 -2.618698
v 1.040020 0.862682 -2.605903
v 1.455243 0.251556 -2.605903
v 1.470981 0.228391 -2.618698
v 1.470981 0.885847 -2.618698
v 1.455243 0.862682 -2.605903
v 1.040020 0.862682 -2.605903
v 1.024279 0.885847 -2.618698
v 1.024279 0.228391 -2.618698
v 1.040020 0.251556 -2.605903
v 1.087740 0.792447 -2.605903
v 1.040020 0.862682 -2.605903
v 1.040020 0.251556 -2.605903
v 1.087740 0.321793 -2.605903
v 1.407521 0.321793 -2.605903
v 1.455243 0.251556 -2.605903
v 1.455243 0.862682 -2.605903
v 1.407521 0.792447 -2.605903
v 1.407521 0.792447 -2.605903
v 1.455243 0.862682 -2.605903
v 1.040020 0.862682 -2.605903
v 1.087740 0.792447 -2.605903
v 1.087740 0.321793 -2.605903
v 1.040020 0.251556 -2.605903
v 1.455243 0.251556 -2.605903
v 1.407521 0.321793 -2.605903
v 1.099209 0.338674 -2.596765
v 1.087740 0.321793 -2.605903
v 1.407521 0.321793 -2.605903
v 1.396051 0.338674 -2.596765
v 1.396051 0.775563 -2.596765
v 1.407521 0.792447 -2.605903
v 1.087740 0.792447 -2.605903
v 1.099209 0.775563 -2.596765
v 1.396051 0.338674 -2.596765
v 1.407521 0.321793 -2.605903
v 1.407521 0.792447 -2.605903
v 1.396051 0.775563 -2.596765
v 1.099209 0.775563 -2.596765
v 1.087740 0.792447 -2.605903
v 1.087740 0.321793 -2.605903
v 1.099209 0.338674 -2.596765
v 1.099209 0.338674 -2.596765
v 1.396051 0.338674 -2.596765
v 1.396051 0.775563 -2.596765
v 1.099209 0.775563 -2.596765
v 1.416274 0.840878 -2.576387
v 1.419464 0.843497 -2.576387
v 1.418092 0.845549 -2.581888
v 1.414528 0.842623 -2.581888
v 1.410105 0.825988 -2.576387
v 1.410511 0.830096 -2.576387
v 1.408090 0.830577 -2.581888
v 1.407636 0.825988 -2.581888
v 1.419464 0.808478 -2.576387
v 1.416274 0.811097 -2.576387
v 1.414528 0.809352 -2.581888
v 1.418092 0.806426 -2.581888
v 1.423105 0.806532 -2.576387
v 1.422159 0.804252 -2.581888
v 1.452221 0.825988 -2.576387
v 1.451817 0.821880 -2.576387
v 1.454236 0.821398 -2.581886
v 1.454690 0.825988 -2.581888
v 1.444234 0.845548 -2.582885
v 1.444234 0.845548 -2.581886
v 1.447798 0.842623 -2.581886
v 1.447798 0.842623 -2.582885
v 1.440167 0.847723 -2.582885
v 1.440167 0.847723 -2.581886
v 1.435753 0.849061 -2.582885
v 1.435753 0.849061 -2.581888
v 1.431165 0.849513 -2.582885
v 1.431165 0.849513 -2.581888
v 1.426573 0.849061 -2.582885
v 1.426573 0.849061 -2.581888
v 1.422159 0.847723 -2.582885
v 1.422159 0.847723 -2.581888
v 1.418092 0.845549 -2.582885
v 1.414528 0.842623 -2.582885
v 1.411601 0.839058 -2.582885
v 1.411601 0.839058 -2.581888
v 1.409427 0.834990 -2.582885
v 1.409427 0.834990 -2.581888
v 1.408090 0.830577 -2.582885
v 1.407636 0.825988 -2.582885
v 1.408090 0.821398 -2.582885
v 1.408090 0.821398 -2.581888
v 1.409427 0.816984 -2.582885
v 1.409427 0.816984 -2.581888
v 1.411601 0.812917 -2.582885
v 1.411601 0.812917 -2.581888
v 1.414528 0.809352 -2.582885
v 1.418092 0.806426 -2.582885
v 1.422159 0.804252 -2.582885
v 1.426573 0.802914 -2.582885
v 1.426573 0.802914 -2.581888
v 1.431165 0.802461 -2.582885
v 1.431165 0.802461 -2.581888
v 1.435753 0.802914 -2.582885
v 1.435753 0.802914 -2.581888
v 1.431165 0.802461 -2.581888
v 1.431165 0.802461 -2.582885
v 1.440167 0.804252 -2.582885
v 1.440167 0.804252 -2.581886
v 1.444234 0.806426 -2.582885
v 1.444234 0.806426 -2.581888
v 1.447798 0.809352 -2.582885
v 1.447798 0.809352 -2.581888
v 1.450725 0.812917 -2.582885
v 1.450725 0.812917 -2.581886
v 1.452899 0.816984 -2.582885
v 1.452899 0.816984 -2.581886
v 1.454236 0.821398 -2.582885
v 1.454690 0.825988 -2.582885
v 1.454236 0.830577 -2.582885
v 1.454236 0.830577 -2.581886
v 1.452899 0.834990 -2.582885
v 1.452899 0.834990 -2.581886
v 1.450725 0.839058 -2.582885
v 1.450725 0.839058 -2.581886
v 1.446266 0.832243 -2.588884
v 1.444755 0.835069 -2.588884
v 1.447195 0.829176 -2.588884
v 1.447510 0.825988 -2.588884
v 1.447195 0.822799 -2.588884
v 1.446266 0.819732 -2.588884
v 1.444755 0.816906 -2.588884
v 1.442722 0.814429 -2.588884
v 1.440244 0.812396 -2.588884
v 1.437419 0.810886 -2.588884
v 1.434351 0.809955 -2.588884
v 1.431165 0.809641 -2.588884
v 1.427974 0.809955 -2.588884
v 1.431165 0.809641 -2.588884
v 1.424909 0.810886 -2.588884
v 1.422082 0.812396 -2.588884
v 1.419604 0.814429 -2.588884
v 1.417573 0.816906 -2.588884
v 1.416061 0.819732 -2.588884
v 1.415131 0.822799 -2.588884
v 1.414819 0.825988 -2.588884
v 1.415131 0.829176 -2.588884
v 1.416061 0.832243 -2.588884
v 1.417573 0.835069 -2.588884
v 1.419604 0.837546 -2.588884
v 1.422082 0.839579 -2.588884
v 1.424909 0.841089 -2.588884
v 1.427974 0.842020 -2.588884
v 1.431165 0.842334 -2.588884
v 1.434351 0.842020 -2.588884
v 1.437419 0.841089 -2.588884
v 1.440244 0.839579 -2.588884
v 1.442722 0.837546 -2.588884
v 1.441062 0.832601 -2.596883
v 1.439582 0.834405 -2.596883
v 1.442162 0.830543 -2.596883
v 1.442840 0.828310 -2.596883
v 1.443069 0.825988 -2.596883
v 1.442840 0.823665 -2.596883
v 1.442162 0.821432 -2.596883
v 1.441062 0.819374 -2.596883
v 1.439582 0.817570 -2.596883
v 1.437778 0.816089 -2.596883
v 1.435719 0.814989 -2.596883
v 1.433485 0.814312 -2.596883
v 1.431165 0.814083 -2.596883
v 1.428840 0.814312 -2.596883
v 1.431165 0.814083 -2.596883
v 1.426608 0.814989 -2.596883
v 1.424549 0.816089 -2.596883
v 1.422747 0.817570 -2.596883
v 1.421266 0.819374 -2.596883
v 1.420164 0.821432 -2.596883
v 1.419489 0.823665 -2.596883
v 1.419259 0.825988 -2.596883
v 1.419489 0.828310 -2.596883
v 1.420164 0.830543 -2.596883
v 1.421266 0.832601 -2.596883
v 1.422747 0.834405 -2.596883
v 1.424549 0.835885 -2.596883
v 1.426608 0.836985 -2.596883
v 1.428840 0.837663 -2.596883
v 1.431165 0.837892 -2.596883
v 1.433485 0.837663 -2.596883
v 1.435719 0.836985 -2.596883
v 1.437778 0.835885 -2.596883
v 1.435371 0.836149 -2.607878
v 1.437274 0.835133 -2.607878
v 1.433309 0.836775 -2.607878
v 1.431165 0.836987 -2.607878
v 1.429017 0.836775 -2.607878
v 1.426954 0.836149 -2.607878
v 1.425052 0.835133 -2.607878
v 1.423386 0.833765 -2.607878
v 1.422019 0.832098 -2.607878
v 1.421000 0.830197 -2.607878
v 1.420376 0.828133 -2.607878
v 1.420164 0.825988 -2.607878
v 1.420376 0.823842 -2.607878
v 1.421000 0.821778 -2.607878
v 1.422019 0.819877 -2.607878
v 1.423386 0.818210 -2.607878
v 1.425052 0.816842 -2.607878
v 1.426954 0.815825 -2.607878
v 1.429017 0.815199 -2.607878
v 1.431165 0.814989 -2.607878
v 1.433309 0.815199 -2.607878
v 1.431165 0.814989 -2.607878
v 1.435371 0.815825 -2.607878
v 1.437274 0.816842 -2.607878
v 1.438940 0.818210 -2.607878
v 1.440309 0.819877 -2.607878
v 1.441325 0.821778 -2.607878
v 1.441951 0.823842 -2.607878
v 1.442162 0.825988 -2.607878
v 1.441951 0.828133 -2.607878
v 1.441325 0.830197 -2.607878
v 1.440310 0.832098 -2.607878
v 1.438940 0.833765 -2.607878
v 1.435272 0.846642 -2.576387
v 1.439222 0.845443 -2.576387
v 1.431165 0.847046 -2.576387
v 1.427056 0.846642 -2.576387
v 1.423105 0.845443 -2.576387
v 1.413653 0.837686 -2.576387
v 1.411707 0.834046 -2.576387
v 1.410511 0.821880 -2.576387
v 1.411707 0.817929 -2.576387
v 1.413653 0.814288 -2.576387
v 1.427056 0.805334 -2.576387
v 1.431165 0.804929 -2.576387
v 1.435272 0.805334 -2.576387
v 1.439222 0.806532 -2.576387
v 1.442863 0.808478 -2.576387
v 1.446054 0.811097 -2.576387
v 1.448673 0.814288 -2.576387
v 1.450618 0.817929 -2.576387
v 1.451817 0.830095 -2.576387
v 1.450618 0.834046 -2.576387
v 1.448673 0.837686 -2.576387
v 1.446054 0.840878 -2.576387
v 1.442863 0.843497 -2.576387
vn -0.0000 -1.0000 -0.0000
vn -0.0000 1.0000 -0.0000
vn 1.0000 -0.0000 -0.0000
vn -1.0000 -0.0000 -0.0000
vn -0.0000 -0.0000 -1.0000
vn -0.0000 -0.0000 1.0000
vn -0.0000 -0.4835 0.8754
vn -0.0000 0.4835 0.8754
vn 0.6308 -0.0000 0.7759
vn -0.6307 -0.0000 0.7760
vn -0.0000 -0.4761 0.8794
vn -0.0000 0.4760 0.8794
vn 0.6232 -0.0000 0.7821
vn -0.6232 -0.0000 0.7821
vn -0.4005 0.4005 0.8241
vn -0.3148 0.4710 0.8240
vn -0.5437 0.8135 0.2067
vn -0.6918 0.6919 0.2067
vn -0.5665 -0.0000 0.8240
vn -0.5555 0.1105 0.8241
vn -0.9596 0.1909 0.2067
vn -0.9784 -0.0000 0.2067
vn -0.3148 -0.4710 0.8241
vn -0.4005 -0.4005 0.8241
vn -0.6918 -0.6918 0.2067
vn -0.5436 -0.8135 0.2067
vn -0.2168 -0.5234 0.8240
vn -0.3744 -0.9039 0.2067
vn 0.5664 -0.0000 0.8241
vn 0.5557 -0.1105 0.8240
vn 0.9596 -0.1908 0.2067
vn 0.9784 -0.0000 0.2066
vn 0.5059 0.7569 -0.4138
vn 0.5437 0.8135 0.2067
vn 0.6918 0.6919 0.2067
vn 0.6437 0.6438 -0.4138
vn 0.3484 0.8411 -0.4138
vn 0.3744 0.9039 0.2068
vn 0.1775 0.8929 -0.4138
vn 0.1907 0.9597 0.2066
vn -0.0000 0.9104 -0.4137
vn -0.0000 0.9784 0.2066
vn -0.1775 0.8929 -0.4137
vn -0.1908 0.9596 0.2066
vn -0.3484 0.8411 -0.4138
vn -0.3744 0.9039 0.2067
vn -0.5058 0.7569 -0.4138
vn -0.6437 0.6438 -0.4138
vn -0.7569 0.5058 -0.4138
vn -0.8135 0.5436 0.2067
vn -0.8411 0.3482 -0.4138
vn -0.9040 0.3742 0.2067
vn -0.8929 0.1776 -0.4138
vn -0.9104 -0.0000 -0.4138
vn -0.8929 -0.1776 -0.4138
vn -0.9596 -0.1909 0.2067
vn -0.8411 -0.3483 -0.4137
vn -0.9040 -0.3743 0.2067
vn -0.7569 -0.5059 -0.4138
vn -0.8135 -0.5437 0.2067
vn -0.6437 -0.6438 -0.4138
vn -0.5058 -0.7569 -0.4138
vn -0.3483 -0.8411 -0.4138
vn -0.1776 -0.8929 -0.4138
vn -0.1908 -0.9596 0.2067
vn -0.0000 -0.9104 -0.4138
vn -0.0000 -0.9784 0.2067
vn 0.1776 -0.8929 -0.4138
vn 0.1908 -0.9596 0.2067
vn 0.3483 -0.8411 -0.4138
vn 0.3744 -0.9039 0.2068
vn 0.5059 -0.7569 -0.4138
vn 0.5437 -0.8134 0.2066
vn 0.6437 -0.6438 -0.4138
vn 0.6918 -0.6919 0.2066
vn 0.7569 -0.5059 -0.4137
vn 0.8134 -0.5437 0.2068
vn 0.8409 -0.3487 -0.4139
vn 0.9040 -0.3743 0.2068
vn 0.8929 -0.1776 -0.4138
vn 0.9104 -0.0000 -0.4137
vn 0.8929 0.1777 -0.4138
vn 0.9596 0.1909 0.2067
vn 0.8412 0.3482 -0.4137
vn 0.9040 0.3742 0.2068
vn 0.7569 0.5058 -0.4137
vn 0.8135 0.5436 0.2067
vn 0.7077 0.2931 -0.6428
vn 0.6369 0.4256 -0.6429
vn 0.7513 0.1495 -0.6428
vn 0.7660 -0.0000 -0.6428
vn 0.7513 -0.1495 -0.6428
vn 0.7077 -0.2930 -0.6428
vn 0.6369 -0.4256 -0.6428
vn 0.5416 -0.5418 -0.6428
vn 0.4255 -0.6369 -0.6428
vn 0.2932 -0.7077 -0.6429
vn 0.1495 -0.7513 -0.6429
vn -0.0000 -0.7660 -0.6429
vn -0.1495 -0.7513 -0.6428
vn -0.2931 -0.7077 -0.6428
vn -0.4255 -0.6369 -0.6429
vn -0.5416 -0.5416 -0.6429
vn -0.6368 -0.4256 -0.6429
vn -0.7076 -0.2932 -0.6429
vn -0.7513 -0.1492 -0.6429
vn -0.7660 -0.0000 -0.6428
vn -0.7513 0.1492 -0.6429
vn -0.7076 0.2932 -0.6429
vn -0.6369 0.4256 -0.6429
vn -0.5417 0.5416 -0.6429
vn -0.4255 0.6370 -0.6428
vn -0.2932 0.7077 -0.6428
vn -0.1495 0.7512 -0.6429
vn -0.0000 0.7660 -0.6428
vn 0.1495 0.7513 -0.6428
vn 0.2932 0.7077 -0.6429
vn 0.4255 0.6369 -0.6428
vn 0.5416 0.5417 -0.6428
vn 0.7948 0.5309 -0.2940
vn 0.6758 0.6759 -0.2940
vn 0.8830 0.3658 -0.2940
vn 0.9374 0.1865 -0.2940
vn 0.9558 -0.0000 -0.2940
vn 0.9374 -0.1866 -0.2940
vn 0.8830 -0.3658 -0.2940
vn 0.7948 -0.5309 -0.2940
vn 0.6758 -0.6759 -0.2940
vn 0.5309 -0.7948 -0.2940
vn 0.3656 -0.8831 -0.2940
vn 0.1866 -0.9374 -0.2940
vn -0.0000 -0.9558 -0.2940
vn -0.1865 -0.9374 -0.2940
vn -0.3657 -0.8831 -0.2940
vn -0.5312 -0.7946 -0.2940
vn -0.6760 -0.6757 -0.2940
vn -0.7949 -0.5308 -0.2940
vn -0.8830 -0.3658 -0.2941
vn -0.9375 -0.1862 -0.2940
vn -0.9558 0.0001 -0.2940
vn -0.9375 0.1862 -0.2940
vn -0.8830 0.3658 -0.2940
vn -0.7945 0.5313 -0.2940
vn -0.6757 0.6760 -0.2940
vn -0.5311 0.7946 -0.2940
vn -0.3659 0.8830 -0.2940
vn -0.1865 0.9374 -0.2940
vn 0.0001 0.9558 -0.2940
vn 0.1866 0.9374 -0.2940
vn 0.3658 0.8830 -0.2940
vn 0.5308 0.7949 -0.2940
vn 0.3813 0.9208 -0.0820
vn 0.5536 0.8287 -0.0821
vn 0.1946 0.9774 -0.0821
vn 0.0001 0.9966 -0.0821
vn -0.1944 0.9775 -0.0821
vn -0.3813 0.9208 -0.0821
vn -0.5538 0.8286 -0.0820
vn -0.7050 0.7044 -0.0820
vn -0.8285 0.5540 -0.0820
vn -0.9207 0.3816 -0.0821
vn -0.9775 0.1942 -0.0820
vn -0.9966 -0.0000 -0.0820
vn -0.9775 -0.1942 -0.0820
vn -0.9207 -0.3816 -0.0820
vn -0.8285 -0.5540 -0.0821
vn -0.7050 -0.7044 -0.0821
vn -0.5538 -0.8286 -0.0820
vn -0.3814 -0.9208 -0.0820
vn -0.1943 -0.9775 -0.0820
vn 0.0001 -0.9966 -0.0821
vn 0.1945 -0.9775 -0.0820
vn 0.3813 -0.9208 -0.0820
vn 0.5538 -0.8286 -0.0821
vn 0.7047 -0.7048 -0.0821
vn 0.8286 -0.5538 -0.0821
vn 0.9208 -0.3813 -0.0821
vn 0.9775 -0.1943 -0.0821
vn 0.9966 -0.0000 -0.0822
vn 0.9775 0.1943 -0.0822
vn 0.9208 0.3813 -0.0821
vn 0.8286 0.5538 -0.0821
vn 0.7047 0.7047 -0.0821
vn 0.1104 0.5557 0.8240
vn 0.2168 0.5233 0.8241
vn -0.0000 0.5665 0.8241
vn -0.1105 0.5557 0.8240
vn -0.2168 0.5234 0.8241
vn -0.4710 0.3148 0.8241
vn -0.5235 0.2167 0.8240
vn -0.5555 -0.1105 0.8241
vn -0.5234 -0.2167 0.8240
vn -0.4710 -0.3144 0.8242
vn -0.1105 -0.5556 0.8241
vn -0.0000 -0.5665 0.8241
vn 0.1108 -0.5556 0.8240
vn 0.2167 -0.5234 0.8241
vn 0.3147 -0.4710 0.8241
vn 0.4006 -0.4006 0.8240
vn 0.4711 -0.3147 0.8241
vn 0.5232 -0.2167 0.8242
vn 0.5557 0.1106 0.8240
vn 0.5233 0.2167 0.8241
vn 0.4710 0.3146 0.8241
vn 0.4006 0.4006 0.8241
vn 0.3147 0.4710 0.8241
vt 0.926801 0.091330
vt 0.926802 0.458341
vt 0.934357 0.458340
vt 0.934357 0.091330
vt 0.318028 0.032519
vt 0.310472 0.032519
vt 0.310472 0.399543
vt 0.318028 0.399543
vt 0.981562 0.031378
vt 0.973122 0.031352
vt 0.973122 0.514917
vt 0.981562 0.514944
vt 0.990979 0.515947
vt 0.982539 0.515920
vt 0.982539 0.999485
vt 0.990979 0.999512
vt 0.540683 0.999512
vt 0.540683 0.632482
vt 0.000488 0.632482
vt 0.000489 0.999512
vt 0.941149 0.985215
vt 0.950863 0.999512
vt 0.950863 0.459301
vt 0.941148 0.473599
vt 0.527003 0.617208
vt 0.536717 0.631505
vt 0.536717 0.091295
vt 0.527001 0.105594
vt 0.936564 0.448609
vt 0.950863 0.458324
vt 0.950863 0.091297
vt 0.936565 0.101012
vt 0.154888 0.389828
vt 0.169187 0.399543
vt 0.169187 0.032516
vt 0.154889 0.042231
vt 0.905231 0.446093
vt 0.925824 0.458341
vt 0.925824 0.110742
vt 0.905231 0.122990
vt 0.883662 0.446093
vt 0.904254 0.458341
vt 0.904254 0.110740
vt 0.883661 0.122987
vt 0.493480 0.613479
vt 0.509264 0.631505
vt 0.509264 0.119907
vt 0.493480 0.137933
vt 0.510241 0.613479
vt 0.526025 0.631505
vt 0.526025 0.119910
vt 0.510241 0.137936
vt 0.379541 0.576851
vt 0.416674 0.631505
vt 0.416674 0.155960
vt 0.379541 0.210614
vt 0.341430 0.576851
vt 0.378564 0.631505
vt 0.378564 0.155960
vt 0.341430 0.210613
vt 0.828031 0.421207
vt 0.882685 0.458341
vt 0.882685 0.135236
vt 0.828031 0.172369
vt 0.772401 0.421207
vt 0.827054 0.458341
vt 0.827054 0.135236
vt 0.772401 0.172369
vt 0.957206 0.449379
vt 0.972145 0.458305
vt 0.972145 0.209468
vt 0.957206 0.218395
vt 0.325514 0.390616
vt 0.340453 0.399543
vt 0.340453 0.150705
vt 0.325514 0.159631
vt 0.200714 0.386405
vt 0.212127 0.399543
vt 0.212127 0.033312
vt 0.200715 0.046449
vt 0.213104 0.386405
vt 0.224516 0.399543
vt 0.224516 0.033304
vt 0.213104 0.046441
vt 0.000488 0.400520
vt 0.000488 0.631505
vt 0.340453 0.631505
vt 0.340453 0.400520
vt 0.281802 0.370801
vt 0.280875 0.370482
vt 0.280149 0.371775
vt 0.281267 0.372248
vt 0.286467 0.370427
vt 0.285178 0.370796
vt 0.285301 0.372652
vt 0.286848 0.372415
vt 0.293670 0.364936
vt 0.292207 0.366659
vt 0.293883 0.369189
vt 0.295926 0.367713
vt 0.295214 0.362759
vt 0.298243 0.365811
vt 0.280503 0.360953
vt 0.281577 0.359962
vt 0.279943 0.358525
vt 0.278864 0.359805
vt 0.276374 0.366235
vt 0.276641 0.366195
vt 0.276683 0.364964
vt 0.276407 0.364970
vt 0.276538 0.367445
vt 0.276792 0.367371
vt 0.276887 0.368576
vt 0.277128 0.368470
vt 0.277419 0.369616
vt 0.277642 0.369477
vt 0.278122 0.370545
vt 0.278323 0.370377
vt 0.278986 0.371345
vt 0.279164 0.371147
vt 0.280000 0.371997
vt 0.281145 0.372495
vt 0.282413 0.372829
vt 0.282504 0.372559
vt 0.283793 0.372990
vt 0.283852 0.372697
vt 0.285277 0.372967
vt 0.286860 0.372766
vt 0.288532 0.372309
vt 0.288482 0.371945
vt 0.290276 0.371634
vt 0.290195 0.371259
vt 0.292107 0.370780
vt 0.291982 0.370360
vt 0.294062 0.369654
vt 0.296189 0.368229
vt 0.298609 0.366373
vt 0.301520 0.364090
vt 0.300956 0.363388
vt 0.305378 0.361610
vt 0.304142 0.360064
vt 0.292356 0.349937
vt 0.292773 0.350741
vt 0.297124 0.349199
vt 0.296237 0.347432
vt 0.289098 0.351655
vt 0.289470 0.352214
vt 0.286495 0.353102
vt 0.286851 0.353538
vt 0.284327 0.354439
vt 0.284669 0.354793
vt 0.282516 0.355743
vt 0.282836 0.356026
vt 0.280941 0.357027
vt 0.281257 0.357267
vt 0.279634 0.358334
vt 0.278561 0.359659
vt 0.277709 0.360995
vt 0.278005 0.361101
vt 0.277069 0.362333
vt 0.277360 0.362400
vt 0.276635 0.363662
vt 0.276921 0.363692
vt 0.273568 0.361497
vt 0.273199 0.363289
vt 0.274155 0.359687
vt 0.274958 0.357863
vt 0.275978 0.356024
vt 0.277184 0.354139
vt 0.278638 0.352207
vt 0.280255 0.350199
vt 0.282069 0.348090
vt 0.284039 0.345807
vt 0.286241 0.343256
vt 0.288494 0.340326
vt 0.305124 0.372482
vt 0.308694 0.371683
vt 0.301864 0.373419
vt 0.298937 0.374343
vt 0.296267 0.375144
vt 0.293776 0.375787
vt 0.291431 0.376276
vt 0.289206 0.376632
vt 0.287111 0.376807
vt 0.285143 0.376770
vt 0.283262 0.376577
vt 0.281493 0.376160
vt 0.279849 0.375556
vt 0.278345 0.374767
vt 0.276974 0.373824
vt 0.275792 0.372674
vt 0.274810 0.371370
vt 0.274045 0.369932
vt 0.273509 0.368386
vt 0.273166 0.366753
vt 0.273088 0.365047
vt 0.266433 0.363106
vt 0.266422 0.365605
vt 0.266720 0.360597
vt 0.267234 0.358088
vt 0.267953 0.355586
vt 0.268856 0.353087
vt 0.269890 0.350593
vt 0.271091 0.348087
vt 0.272404 0.345550
vt 0.273804 0.342966
vt 0.275224 0.340324
vt 0.276695 0.337599
vt 0.278137 0.334787
vt 0.306349 0.383563
vt 0.309495 0.383399
vt 0.303286 0.383769
vt 0.300296 0.383991
vt 0.297370 0.384215
vt 0.294540 0.384358
vt 0.291777 0.384411
vt 0.289080 0.384347
vt 0.286447 0.384137
vt 0.283880 0.383757
vt 0.281379 0.383213
vt 0.278985 0.382440
vt 0.276694 0.381443
vt 0.274533 0.380209
vt 0.272519 0.378755
vt 0.270740 0.377035
vt 0.269226 0.375068
vt 0.268049 0.372865
vt 0.267208 0.370515
vt 0.266654 0.368091
vt 0.250562 0.376044
vt 0.250199 0.371550
vt 0.251382 0.380755
vt 0.252741 0.385682
vt 0.256678 0.388935
vt 0.260640 0.391609
vt 0.264590 0.393775
vt 0.268499 0.395499
vt 0.272348 0.396838
vt 0.276121 0.397845
vt 0.279809 0.398570
vt 0.283407 0.399060
vt 0.286913 0.399358
vt 0.290330 0.399506
vt 0.293665 0.399543
vt 0.296927 0.399505
vt 0.300123 0.399433
vt 0.303275 0.399348
vt 0.306394 0.399282
vt 0.309495 0.399254
vt 0.262318 0.331080
vt 0.263618 0.328253
vt 0.260976 0.333906
vt 0.259605 0.336754
vt 0.258215 0.339651
vt 0.256843 0.342618
vt 0.255508 0.345682
vt 0.254242 0.348867
vt 0.253076 0.352194
vt 0.252048 0.355682
vt 0.251200 0.359350
vt 0.250575 0.363210
vt 0.250224 0.367274
vt 0.278449 0.367928
vt 0.278211 0.367041
vt 0.278843 0.368731
vt 0.279388 0.369437
vt 0.280066 0.370021
vt 0.282836 0.370969
vt 0.283965 0.370972
vt 0.287829 0.369843
vt 0.289297 0.369056
vt 0.290741 0.368011
vt 0.296764 0.359938
vt 0.298071 0.356280
vt 0.294185 0.355989
vt 0.291044 0.356197
vt 0.288454 0.356687
vt 0.286278 0.357355
vt 0.284437 0.358143
vt 0.282880 0.359018
vt 0.279643 0.361977
vt 0.278985 0.363019
vt 0.278520 0.364061
vt 0.278239 0.365089
vt 0.278138 0.366089
s 0
usemtl comic
f 1/1/1 2/2/1 3/3/1
f 3/3/1 4/4/1 1/1/1
f 5/5/2 6/6/2 7/7/2
f 7/7/2 8/8/2 5/5/2
f 9/9/3 10/10/3 11/11/3
f 11/11/3 12/12/3 9/9/3
f 13/13/4 14/14/4 15/15/4
f 15/15/4 16/16/4 13/13/4
f 17/17/5 18/18/5 19/19/5
f 19/19/5 20/20/5 17/17/5
f 21/21/6 22/22/6 23/23/6
f 23/23/6 24/24/6 21/21/6
f 25/25/6 26/26/6 27/27/6
f 27/27/6 28/28/6 25/25/6
f 29/29/6 30/30/6 31/31/6
f 31/31/6 32/32/6 29/29/6
f 33/33/6 34/34/6 35/35/6
f 35/35/6 36/36/6 33/33/6
f 37/37/7 38/38/7 39/39/7
f 39/39/7 40/40/7 37/37/7
f 41/41/8 42/42/8 43/43/8
f 43/43/8 44/44/8 41/41/8
f 45/45/9 46/46/9 47/47/9
f 47/47/9 48/48/9 45/45/9
f 49/49/10 50/50/10 51/51/10
f 51/51/10 52/52/10 49/49/10
f 53/53/6 54/54/6 55/55/6
f 55/55/6 56/56/6 53/53/6
f 57/57/6 58/58/6 59/59/6
f 59/59/6 60/60/6 57/57/6
f 61/61/6 62/62/6 63/63/6
f 63/63/6 64/64/6 61/61/6
f 65/65/6 66/66/6 67/67/6
f 67/67/6 68/68/6 65/65/6
f 69/69/11 70/70/11 71/71/11
f 71/71/11 72/72/11 69/69/11
f 73/73/12 74/74/12 75/75/12
f 75/75/12 76/76/12 73/73/12
f 77/77/13 78/78/13 79/79/13
f 79/79/13 80/80/13 77/77/13
f 81/81/14 82/82/14 83/83/14
f 83/83/14 84/84/14 81/81/14
f 85/85/6 86/86/6 87/87/6
f 87/87/6 88/88/6 85/85/6
s 1
f 89/89/15 90/90/16 91/91/17
f 91/91/17 92/92/18 89/89/15
f 93/93/19 94/94/20 95/95/21
f 95/95/21 96/96/22 93/93/19
f 97/97/23 98/98/24 99/99/25
f 99/99/25 100/100/26 97/97/23
f 101/101/27 97/97/23 100/100/26
f 100/100/26 102/102/28 101/101/27
f 103/103/29 104/104/30 105/105/31
f 105/105/31 106/106/32 103/103/29
f 107/107/33 108/108/34 109/109/35
f 109/109/35 110/110/36 107/107/33
f 111/111/37 112/112/38 108/108/34
f 108/108/34 107/107/33 111/111/37
f 113/113/39 114/114/40 112/112/38
f 112/112/38 111/111/37 113/113/39
f 115/115/41 116/116/42 114/114/40
f 114/114/40 113/113/39 115/115/41
f 117/117/43 118/118/44 116/116/42
f 116/116/42 115/115/41 117/117/43
f 119/119/45 120/120/46 118/118/44
f 118/118/44 117/117/43 119/119/45
f 121/121/47 91/91/17 120/120/46
f 120/120/46 119/119/45 121/121/47
f 122/122/48 92/92/18 91/91/17
f 91/91/17 121/121/47 122/122/48
f 123/123/49 124/124/50 92/92/18
f 92/92/18 122/122/48 123/123/49
f 125/125/51 126/126/52 124/124/50
f 124/124/50 123/123/49 125/125/51
f 127/127/53 95/95/21 126/126/52
f 126/126/52 125/125/51 127/127/53
f 128/128/54 96/96/22 95/95/21
f 95/95/21 127/127/53 128/128/54
f 129/129/55 130/130/56 96/96/22
f 96/96/22 128/128/54 129/129/55
f 131/131/57 132/132/58 130/130/56
f 130/130/56 129/129/55 131/131/57
f 133/133/59 134/134/60 132/132/58
f 132/132/58 131/131/57 133/133/59
f 134/134/60 133/133/59 135/135/61
f 135/135/61 99/99/25 134/134/60
f 99/99/25 135/135/61 136/136/62
f 136/136/62 100/100/26 99/99/25
f 137/137/63 102/102/28 100/100/26
f 100/100/26 136/136/62 137/137/63
f 138/138/64 139/139/65 102/102/28
f 102/102/28 137/137/63 138/138/64
f 140/140/66 141/141/67 139/139/65
f 139/139/65 138/138/64 140/140/66
f 142/142/68 143/143/69 144/144/67
f 144/144/67 145/145/66 142/142/68
f 146/146/70 147/147/71 143/143/69
f 143/143/69 142/142/68 146/146/70
f 148/148/72 149/149/73 147/147/71
f 147/147/71 146/146/70 148/148/72
f 150/150/74 151/151/75 149/149/73
f 149/149/73 148/148/72 150/150/74
f 152/152/76 153/153/77 151/151/75
f 151/151/75 150/150/74 152/152/76
f 154/154/78 155/155/79 153/153/77
f 153/153/77 152/152/76 154/154/78
f 156/156/80 105/105/31 155/155/79
f 155/155/79 154/154/78 156/156/80
f 157/157/81 106/106/32 105/105/31
f 105/105/31 156/156/80 157/157/81
f 158/158/82 159/159/83 106/106/32
f 106/106/32 157/157/81 158/158/82
f 160/160/84 161/161/85 159/159/83
f 159/159/83 158/158/82 160/160/84
f 162/162/86 163/163/87 161/161/85
f 161/161/85 160/160/84 162/162/86
f 110/110/36 109/109/35 163/163/87
f 163/163/87 162/162/86 110/110/36
f 162/162/86 160/160/84 164/164/88
f 164/164/88 165/165/89 162/162/86
f 160/160/84 158/158/82 166/166/90
f 166/166/90 164/164/88 160/160/84
f 158/158/82 157/157/81 167/167/91
f 167/167/91 166/166/90 158/158/82
f 157/157/81 156/156/80 168/168/92
f 168/168/92 167/167/91 157/157/81
f 156/156/80 154/154/78 169/169/93
f 169/169/93 168/168/92 156/156/80
f 154/154/78 152/152/76 170/170/94
f 170/170/94 169/169/93 154/154/78
f 152/152/76 150/150/74 171/171/95
f 171/171/95 170/170/94 152/152/76
f 150/150/74 148/148/72 172/172/96
f 172/172/96 171/171/95 150/150/74
f 148/148/72 146/146/70 173/173/97
f 173/173/97 172/172/96 148/148/72
f 146/146/70 142/142/68 174/174/98
f 174/174/98 173/173/97 146/146/70
f 142/142/68 145/145/66 175/175/99
f 175/175/99 174/174/98 142/142/68
f 140/140/66 138/138/64 176/176/100
f 176/176/100 177/177/99 140/140/66
f 138/138/64 137/137/63 178/178/101
f 178/178/101 176/176/100 138/138/64
f 137/137/63 136/136/62 179/179/102
f 179/179/102 178/178/101 137/137/63
f 135/135/61 180/180/103 179/179/102
f 179/179/102 136/136/62 135/135/61
f 133/133/59 181/181/104 180/180/103
f 180/180/103 135/135/61 133/133/59
f 133/133/59 131/131/57 182/182/105
f 182/182/105 181/181/104 133/133/59
f 131/131/57 129/129/55 183/183/106
f 183/183/106 182/182/105 131/131/57
f 129/129/55 128/128/54 184/184/107
f 184/184/107 183/183/106 129/129/55
f 128/128/54 127/127/53 185/185/108
f 185/185/108 184/184/107 128/128/54
f 127/127/53 125/125/51 186/186/109
f 186/186/109 185/185/108 127/127/53
f 125/125/51 123/123/49 187/187/110
f 187/187/110 186/186/109 125/125/51
f 123/123/49 122/122/48 188/188/111
f 188/188/111 187/187/110 123/123/49
f 122/122/48 121/121/47 189/189/112
f 189/189/112 188/188/111 122/122/48
f 121/121/47 119/119/45 190/190/113
f 190/190/113 189/189/112 121/121/47
f 119/119/45 117/117/43 191/191/114
f 191/191/114 190/190/113 119/119/45
f 117/117/43 115/115/41 192/192/115
f 192/192/115 191/191/114 117/117/43
f 115/115/41 113/113/39 193/193/116
f 193/193/116 192/192/115 115/115/41
f 113/113/39 111/111/37 194/194/117
f 194/194/117 193/193/116 113/113/39
f 111/111/37 107/107/33 195/195/118
f 195/195/118 194/194/117 111/111/37
f 107/107/33 110/110/36 196/196/119
f 196/196/119 195/195/118 107/107/33
f 196/196/119 165/165/89 197/197/120
f 197/197/120 198/198/121 196/196/119
f 165/165/89 164/164/88 199/199/122
f 199/199/122 197/197/120 165/165/89
f 164/164/88 166/166/90 200/200/123
f 200/200/123 199/199/122 164/164/88
f 166/166/90 167/167/91 201/201/124
f 201/201/124 200/200/123 166/166/90
f 167/167/91 168/168/92 202/202/125
f 202/202/125 201/201/124 167/167/91
f 168/168/92 169/169/93 203/203/126
f 203/203/126 202/202/125 168/168/92
f 169/169/93 170/170/94 204/204/127
f 204/204/127 203/203/126 169/169/93
f 170/170/94 171/171/95 205/205/128
f 205/205/128 204/204/127 170/170/94
f 171/171/95 172/172/96 206/206/129
f 206/206/129 205/205/128 171/171/95
f 172/172/96 173/173/97 207/207/130
f 207/207/130 206/206/129 172/172/96
f 173/173/97 174/174/98 208/208/131
f 208/208/131 207/207/130 173/173/97
f 174/174/98 175/175/99 209/209/132
f 209/209/132 208/208/131 174/174/98
f 177/177/99 176/176/100 210/210/133
f 210/210/133 211/211/132 177/177/99
f 176/176/100 178/178/101 212/212/134
f 212/212/134 210/210/133 176/176/100
f 178/178/101 179/179/102 213/213/135
f 213/213/135 212/212/134 178/178/101
f 179/179/102 180/180/103 214/214/136
f 214/214/136 213/213/135 179/179/102
f 180/180/103 181/181/104 215/215/137
f 215/215/137 214/214/136 180/180/103
f 181/181/104 182/182/105 216/216/138
f 216/216/138 215/215/137 181/181/104
f 182/182/105 183/183/106 217/217/139
f 217/217/139 216/216/138 182/182/105
f 183/183/106 184/184/107 218/218/140
f 218/218/140 217/217/139 183/183/106
f 184/184/107 185/185/108 219/219/141
f 219/219/141 218/218/140 184/184/107
f 185/185/108 186/186/109 220/220/142
f 220/220/142 219/219/141 185/185/108
f 186/186/109 187/187/110 221/221/143
f 221/221/143 220/220/142 186/186/109
f 187/187/110 188/188/111 222/222/144
f 222/222/144 221/221/143 187/187/110
f 188/188/111 189/189/112 223/223/145
f 223/223/145 222/222/144 188/188/111
f 189/189/112 190/190/113 224/224/146
f 224/224/146 223/223/145 189/189/112
f 190/190/113 191/191/114 225/225/147
f 225/225/147 224/224/146 190/190/113
f 191/191/114 192/192/115 226/226/148
f 226/226/148 225/225/147 191/191/114
f 192/192/115 193/193/116 227/227/149
f 227/227/149 226/226/148 192/192/115
f 193/193/116 194/194/117 228/228/150
f 228/228/150 227/227/149 193/193/116
f 194/194/117 195/195/118 229/229/151
f 229/229/151 228/228/150 194/194/117
f 195/195/118 196/196/119 198/198/121
f 198/198/121 229/229/151 195/195/118
f 230/230/152 228/228/150 229/229/151
f 229/229/151 231/231/153 230/230/152
f 232/232/154 227/227/149 228/228/150
f 228/228/150 230/230/152 232/232/154
f 233/233/155 226/226/148 227/227/149
f 227/227/149 232/232/154 233/233/155
f 234/234/156 225/225/147 226/226/148
f 226/226/148 233/233/155 234/234/156
f 235/235/157 224/224/146 225/225/147
f 225/225/147 234/234/156 235/235/157
f 236/236/158 223/223/145 224/224/146
f 224/224/146 235/235/157 236/236/158
f 237/237/159 222/222/144 223/223/145
f 223/223/145 236/236/158 237/237/159
f 238/238/160 221/221/143 222/222/144
f 222/222/144 237/237/159 238/238/160
f 239/239/161 220/220/142 221/221/143
f 221/221/143 238/238/160 239/239/161
f 240/240/162 219/219/141 220/220/142
f 220/220/142 239/239/161 240/240/162
f 241/241/163 218/218/140 219/219/141
f 219/219/141 240/240/162 241/241/163
f 242/242/164 217/217/139 218/218/140
f 218/218/140 241/241/163 242/242/164
f 243/243/165 216/216/138 217/217/139
f 217/217/139 242/242/164 243/243/165
f 244/244/166 215/215/137 216/216/138
f 216/216/138 243/243/165 244/244/166
f 245/245/167 214/214/136 215/215/137
f 215/215/137 244/244/166 245/245/167
f 213/213/135 214/214/136 245/245/167
f 245/245/167 246/246/168 213/213/135
f 247/247/169 212/212/134 213/213/135
f 213/213/135 246/246/168 247/247/169
f 248/248/170 210/210/133 212/212/134
f 212/212/134 247/247/169 248/248/170
f 249/249/171 211/211/132 210/210/133
f 210/210/133 248/248/170 249/249/171
f 250/250/172 208/208/131 209/209/132
f 209/209/132 251/251/171 250/250/172
f 252/252/173 207/207/130 208/208/131
f 208/208/131 250/250/172 252/252/173
f 253/253/174 206/206/129 207/207/130
f 207/207/130 252/252/173 253/253/174
f 254/254/175 205/205/128 206/206/129
f 206/206/129 253/253/174 254/254/175
f 255/255/176 204/204/127 205/205/128
f 205/205/128 254/254/175 255/255/176
f 256/256/177 203/203/126 204/204/127
f 204/204/127 255/255/176 256/256/177
f 257/257/178 202/202/125 203/203/126
f 203/203/126 256/256/177 257/257/178
f 258/258/179 201/201/124 202/202/125
f 202/202/125 257/257/178 258/258/179
f 259/259/180 200/200/123 201/201/124
f 201/201/124 258/258/179 259/259/180
f 260/260/181 199/199/122 200/200/123
f 200/200/123 259/259/180 260/260/181
f 261/261/182 197/197/120 199/199/122
f 199/199/122 260/260/181 261/261/182
f 262/262/183 198/198/121 197/197/120
f 197/197/120 261/261/182 262/262/183
f 231/231/153 229/229/151 198/198/121
f 198/198/121 262/262/183 231/231/153
f 110/110/36 162/162/86 165/165/89
f 165/165/89 196/196/119 110/110/36
f 263/263/184 264/264/185 112/112/38
f 112/112/38 114/114/40 263/263/184
f 265/265/186 263/263/184 114/114/40
f 114/114/40 116/116/42 265/265/186
f 266/266/187 265/265/186 116/116/42
f 116/116/42 118/118/44 266/266/187
f 267/267/188 266/266/187 118/118/44
f 118/118/44 120/120/46 267/267/188
f 90/90/16 267/267/188 120/120/46
f 120/120/46 91/91/17 90/90/16
f 268/268/189 89/89/15 92/92/18
f 92/92/18 124/124/50 268/268/189
f 269/269/190 268/268/189 124/124/50
f 124/124/50 126/126/52 269/269/190
f 94/94/20 269/269/190 126/126/52
f 126/126/52 95/95/21 94/94/20
f 270/270/191 93/93/19 96/96/22
f 96/96/22 130/130/56 270/270/191
f 271/271/192 270/270/191 130/130/56
f 130/130/56 132/132/58 271/271/192
f 272/272/193 271/271/192 132/132/58
f 132/132/58 134/134/60 272/272/193
f 98/98/24 272/272/193 134/134/60
f 134/134/60 99/99/25 98/98/24
f 273/273/194 101/101/27 102/102/28
f 102/102/28 139/139/65 273/273/194
f 274/274/195 273/273/194 139/139/65
f 139/139/65 141/141/67 274/274/195
f 275/275/196 274/274/195 144/144/67
f 144/144/67 143/143/69 275/275/196
f 276/276/197 275/275/196 143/143/69
f 143/143/69 147/147/71 276/276/197
f 277/277/198 276/276/197 147/147/71
f 147/147/71 149/149/73 277/277/198
f 278/278/199 277/277/198 149/149/73
f 149/149/73 151/151/75 278/278/199
f 279/279/200 278/278/199 151/151/75
f 151/151/75 153/153/77 279/279/200
f 280/280/201 279/279/200 153/153/77
f 153/153/77 155/155/79 280/280/201
f 104/104/30 280/280/201 155/155/79
f 155/155/79 105/105/31 104/104/30
f 281/281/202 103/103/29 106/106/32
f 106/106/32 159/159/83 281/281/202
f 282/282/203 281/281/202 159/159/83
f 159/159/83 161/161/85 282/282/203
f 283/283/204 282/282/203 161/161/85
f 161/161/85 163/163/87 283/283/204
f 284/284/205 283/283/204 163/163/87
f 163/163/87 109/109/35 284/284/205
f 264/264/185 285/285/206 108/108/34
f 108/108/34 112/112/38 264/264/185
f 284/284/205 285/285/206 264/264/185
f 284/284/205 264/264/185 263/263/184
f 284/284/205 263/263/184 265/265/186
f 284/284/205 265/265/186 266/266/187
f 284/284/205 266/266/187 267/267/188
f 284/284/205 267/267/188 90/90/16
f 284/284/205 90/90/16 89/89/15
f 284/284/205 89/89/15 268/268/189
f 284/284/205 268/268/189 269/269/190
f 284/284/205 269/269/190 94/94/20
f 284/284/205 94/94/20 93/93/19
f 284/284/205 93/93/19 270/270/191
f 284/284/205 270/270/191 271/271/192
f 284/284/205 271/271/192 272/272/193
f 284/284/205 272/272/193 98/98/24
f 284/284/205 98/98/24 97/97/23
f 284/284/205 97/97/23 101/101/27
f 284/284/205 101/101/27 273/273/194
f 284/284/205 273/273/194 274/274/195
f 284/284/205 274/274/195 275/275/196
f 284/284/205 275/275/196 276/276/197
f 284/284/205 276/276/197 277/277/198
f 284/284/205 277/277/198 278/278/199
f 284/284/205 278/278/199 279/279/200
f 284/284/205 279/279/200 280/280/201
f 284/284/205 280/280/201 104/104/30
f 284/284/205 104/104/30 103/103/29
f 284/284/205 103/103/29 281/281/202
f 284/284/205 281/281/202 282/282/203
f 282/282/203 283/283/204 284/284/205
f 108/108/34 285/285/206 284/284/205
f 284/284/205 109/109/35 108/108/34
