# Blender 4.0.2
# www.blender.org
mtllib Spiegel.mtl
o Spiegel
v 1.500535 2.213461 -3.146065
v 1.500535 2.239119 -3.171420
v 1.570790 2.205081 -3.146065
v 1.574923 2.230245 -3.171420
v 1.638345 2.180262 -3.146065
v 1.646452 2.203966 -3.171420
v 1.700604 2.139958 -3.146065
v 1.712374 2.161291 -3.171420
v 1.755174 2.085718 -3.146065
v 1.770154 2.103861 -3.171420
v 1.799959 2.019627 -3.146065
v 1.817574 2.033881 -3.171420
v 1.833237 1.944224 -3.146065
v 1.852810 1.954042 -3.171420
v 1.853730 1.862406 -3.146065
v 1.874508 1.867412 -3.171420
v 1.860649 1.777319 -3.146065
v 1.881835 1.777319 -3.171420
v 1.853730 1.692232 -3.146065
v 1.874508 1.687227 -3.171420
v 1.833237 1.610415 -3.146065
v 1.852810 1.600596 -3.171420
v 1.799959 1.535012 -3.146065
v 1.817574 1.520757 -3.171420
v 1.755174 1.468920 -3.146065
v 1.770154 1.450778 -3.171420
v 1.700604 1.414681 -3.146065
v 1.712374 1.393347 -3.171420
v 1.638345 1.374377 -3.146065
v 1.646452 1.350672 -3.171420
v 1.570790 1.349558 -3.146065
v 1.574923 1.324393 -3.171420
v 1.500535 1.341177 -3.146065
v 1.500535 1.315520 -3.171420
v 1.430280 1.349558 -3.146065
v 1.426147 1.324393 -3.171420
v 1.362725 1.374377 -3.146065
v 1.354618 1.350672 -3.171420
v 1.300466 1.414681 -3.146065
v 1.288696 1.393347 -3.171420
v 1.245896 1.468920 -3.146065
v 1.230916 1.450778 -3.171420
v 1.201111 1.535012 -3.146065
v 1.183496 1.520757 -3.171420
v 1.167833 1.610415 -3.146065
v 1.148260 1.600596 -3.171420
v 1.147340 1.692232 -3.146065
v 1.126562 1.687227 -3.171420
v 1.140421 1.777319 -3.146065
v 1.119236 1.777319 -3.171420
v 1.147340 1.862406 -3.146065
v 1.126562 1.867412 -3.171420
v 1.167833 1.944224 -3.146065
v 1.148260 1.954042 -3.171420
v 1.201111 2.019627 -3.146065
v 1.183496 2.033881 -3.171420
v 1.245896 2.085718 -3.146065
v 1.230916 2.103861 -3.171420
v 1.300466 2.139958 -3.146065
v 1.288696 2.161291 -3.171420
v 1.362725 2.180262 -3.146065
v 1.354618 2.203966 -3.171420
v 1.430280 2.205081 -3.146065
v 1.426147 2.230245 -3.171420
v 1.500535 2.239119 -3.146065
v 1.574923 2.230245 -3.146065
v 1.646452 2.203966 -3.146065
v 1.712374 2.161291 -3.146065
v 1.770154 2.103861 -3.146065
v 1.817574 2.033881 -3.146065
v 1.852810 1.954042 -3.146065
v 1.874508 1.867412 -3.146065
v 1.881835 1.777319 -3.146065
v 1.874508 1.687227 -3.146065
v 1.852810 1.600596 -3.146065
v 1.817574 1.520757 -3.146065
v 1.770154 1.450778 -3.146065
v 1.712374 1.393347 -3.146065
v 1.646452 1.350672 -3.146065
v 1.574923 1.324393 -3.146065
v 1.500535 1.315520 -3.146065
v 1.426147 1.324393 -3.146065
v 1.354618 1.350672 -3.146065
v 1.288696 1.393347 -3.146065
v 1.230916 1.450778 -3.146065
v 1.183496 1.520757 -3.146065
v 1.148260 1.600596 -3.146065
v 1.126562 1.687227 -3.146065
v 1.119236 1.777319 -3.146065
v 1.126562 1.867412 -3.146065
v 1.148260 1.954042 -3.146065
v 1.183496 2.033881 -3.146065
v 1.230916 2.103861 -3.146065
v 1.288696 2.161291 -3.146065
v 1.354618 2.203966 -3.146065
v 1.426147 2.230245 -3.146065
v 1.500535 2.213461 -3.154432
v 1.570790 2.205081 -3.154432
v 1.638345 2.180262 -3.154432
v 1.700604 2.139958 -3.154432
v 1.755174 2.085718 -3.154432
v 1.799959 2.019627 -3.154432
v 1.833237 1.944224 -3.154432
v 1.853730 1.862406 -3.154432
v 1.860649 1.777319 -3.154432
v 1.853730 1.692232 -3.154432
v 1.833237 1.610415 -3.154432
v 1.799959 1.535012 -3.154432
v 1.755174 1.468920 -3.154432
v 1.700604 1.414681 -3.154432
v 1.638345 1.374377 -3.154432
v 1.570790 1.349558 -3.154432
v 1.500535 1.341177 -3.154432
v 1.430280 1.349558 -3.154432
v 1.362725 1.374377 -3.154432
v 1.300466 1.414681 -3.154432
v 1.245896 1.468920 -3.154432
v 1.201111 1.535012 -3.154432
v 1.167833 1.610415 -3.154432
v 1.147340 1.692232 -3.154432
v 1.140421 1.777319 -3.154432
v 1.147340 1.862406 -3.154432
v 1.167833 1.944224 -3.154432
v 1.201111 2.019627 -3.154432
v 1.245896 2.085718 -3.154432
v 1.300466 2.139958 -3.154432
v 1.362725 2.180262 -3.154432
v 1.430280 2.205081 -3.154432
vn -0.0000 1.0000 -0.0000
vn 0.2342 0.9722 -0.0000
vn 0.4484 0.8938 -0.0000
vn 0.6291 0.7774 -0.0000
vn 0.7711 0.6367 -0.0000
vn 0.8756 0.4831 -0.0000
vn 0.9462 0.3236 -0.0000
vn 0.9868 0.1621 -0.0000
vn 1.0000 -0.0000 -0.0000
vn 0.9868 -0.1621 -0.0000
vn 0.9462 -0.3236 -0.0000
vn 0.8756 -0.4831 -0.0000
vn 0.7711 -0.6367 -0.0000
vn 0.6291 -0.7774 -0.0000
vn 0.4484 -0.8938 -0.0000
vn 0.2342 -0.9722 -0.0000
vn -0.0000 -1.0000 -0.0000
vn -0.2342 -0.9722 -0.0000
vn -0.4484 -0.8938 -0.0000
vn -0.6291 -0.7774 -0.0000
vn -0.7711 -0.6367 -0.0000
vn -0.8756 -0.4831 -0.0000
vn -0.9462 -0.3236 -0.0000
vn -0.9868 -0.1621 -0.0000
vn -1.0000 -0.0000 -0.0000
vn -0.9868 0.1621 -0.0000
vn -0.9462 0.3236 -0.0000
vn -0.8756 0.4831 -0.0000
vn -0.7711 0.6367 -0.0000
vn -0.6291 0.7774 -0.0000
vn -0.4484 0.8938 -0.0000
vn -0.0000 -0.0000 -1.0000
vn -0.2342 0.9722 -0.0000
vn -0.0000 -0.0000 1.0000
vt 1.000000 0.500000
vt 1.000000 1.000000
vt 0.968750 1.000000
vt 0.968750 0.500000
vt 0.937500 1.000000
vt 0.937500 0.500000
vt 0.906250 1.000000
vt 0.906250 0.500000
vt 0.875000 1.000000
vt 0.875000 0.500000
vt 0.843750 1.000000
vt 0.843750 0.500000
vt 0.812500 1.000000
vt 0.812500 0.500000
vt 0.781250 1.000000
vt 0.781250 0.500000
vt 0.750000 1.000000
vt 0.750000 0.500000
vt 0.718750 1.000000
vt 0.718750 0.500000
vt 0.687500 1.000000
vt 0.687500 0.500000
vt 0.656250 1.000000
vt 0.656250 0.500000
vt 0.625000 1.000000
vt 0.625000 0.500000
vt 0.593750 1.000000
vt 0.593750 0.500000
vt 0.562500 1.000000
vt 0.562500 0.500000
vt 0.531250 1.000000
vt 0.531250 0.500000
vt 0.500000 1.000000
vt 0.500000 0.500000
vt 0.468750 1.000000
vt 0.468750 0.500000
vt 0.437500 1.000000
vt 0.437500 0.500000
vt 0.406250 1.000000
vt 0.406250 0.500000
vt 0.375000 1.000000
vt 0.375000 0.500000
vt 0.343750 1.000000
vt 0.343750 0.500000
vt 0.312500 1.000000
vt 0.312500 0.500000
vt 0.281250 1.000000
vt 0.281250 0.500000
vt 0.250000 1.000000
vt 0.250000 0.500000
vt 0.218750 1.000000
vt 0.218750 0.500000
vt 0.187500 1.000000
vt 0.187500 0.500000
vt 0.156250 1.000000
vt 0.156250 0.500000
vt 0.125000 1.000000
vt 0.125000 0.500000
vt 0.093750 1.000000
vt 0.093750 0.500000
vt 0.062500 1.000000
vt 0.062500 0.500000
vt 0.296822 0.485388
vt 0.250000 0.490000
vt 0.203178 0.485388
vt 0.158156 0.471731
vt 0.116663 0.449553
vt 0.080294 0.419706
vt 0.050447 0.383337
vt 0.028269 0.341844
vt 0.014612 0.296822
vt 0.010000 0.250000
vt 0.014612 0.203178
vt 0.028269 0.158156
vt 0.050447 0.116663
vt 0.080294 0.080294
vt 0.116663 0.050447
vt 0.158156 0.028269
vt 0.203178 0.014612
vt 0.250000 0.010000
vt 0.296822 0.014612
vt 0.341844 0.028269
vt 0.383337 0.050447
vt 0.419706 0.080294
vt 0.449553 0.116663
vt 0.471731 0.158156
vt 0.485388 0.203178
vt 0.490000 0.250000
vt 0.485388 0.296822
vt 0.471731 0.341844
vt 0.449553 0.383337
vt 0.419706 0.419706
vt 0.383337 0.449553
vt 0.341844 0.471731
vt 0.031250 1.000000
vt 0.031250 0.500000
vt 0.000000 1.000000
vt 0.000000 0.500000
vt 0.910277 0.089723
vt 0.875929 0.061534
vt 0.794220 0.472310
vt 0.750000 0.476666
vt 0.750000 0.490000
vt 0.796822 0.485388
vt 0.836741 0.459412
vt 0.841844 0.471731
vt 0.875929 0.438466
vt 0.883337 0.449553
vt 0.910277 0.410277
vt 0.919706 0.419706
vt 0.938466 0.375929
vt 0.949553 0.383337
vt 0.959412 0.336741
vt 0.971731 0.341844
vt 0.972310 0.294220
vt 0.985388 0.296822
vt 0.976666 0.250000
vt 0.990000 0.250000
vt 0.972311 0.205780
vt 0.985388 0.203178
vt 0.959412 0.163259
vt 0.971731 0.158156
vt 0.938466 0.124071
vt 0.949553 0.116663
vt 0.919706 0.080294
vt 0.883337 0.050447
vt 0.836741 0.040588
vt 0.841844 0.028269
vt 0.794220 0.027690
vt 0.796822 0.014612
vt 0.750000 0.023334
vt 0.750000 0.010000
vt 0.705780 0.027690
vt 0.703178 0.014612
vt 0.663259 0.040588
vt 0.658156 0.028269
vt 0.624071 0.061534
vt 0.616663 0.050447
vt 0.589723 0.089723
vt 0.580294 0.080294
vt 0.561534 0.124071
vt 0.550447 0.116663
vt 0.540588 0.163259
vt 0.528269 0.158156
vt 0.527690 0.205780
vt 0.514612 0.203178
vt 0.523335 0.250000
vt 0.510000 0.250000
vt 0.527690 0.294220
vt 0.514612 0.296822
vt 0.540588 0.336741
vt 0.528269 0.341844
vt 0.561534 0.375929
vt 0.550447 0.383337
vt 0.589723 0.410277
vt 0.580294 0.419706
vt 0.624071 0.438466
vt 0.616663 0.449553
vt 0.663259 0.459412
vt 0.658156 0.471731
vt 0.705780 0.472310
vt 0.703178 0.485388
s 1
usemtl comic
f 65/1/1 66/4/2 4/3/2 2/2/1
f 66/4/2 67/6/3 6/5/3 4/3/2
f 67/6/3 68/8/4 8/7/4 6/5/3
f 68/8/4 69/10/5 10/9/5 8/7/4
f 69/10/5 70/12/6 12/11/6 10/9/5
f 70/12/6 71/14/7 14/13/7 12/11/6
f 71/14/7 72/16/8 16/15/8 14/13/7
f 72/16/8 73/18/9 18/17/9 16/15/8
f 73/18/9 74/20/10 20/19/10 18/17/9
f 74/20/10 75/22/11 22/21/11 20/19/10
f 75/22/11 76/24/12 24/23/12 22/21/11
f 76/24/12 77/26/13 26/25/13 24/23/12
f 77/26/13 78/28/14 28/27/14 26/25/13
f 78/28/14 79/30/15 30/29/15 28/27/14
f 79/30/15 80/32/16 32/31/16 30/29/15
f 80/32/16 81/34/17 34/33/17 32/31/16
f 81/34/17 82/36/18 36/35/18 34/33/17
f 82/36/18 83/38/19 38/37/19 36/35/18
f 83/38/19 84/40/20 40/39/20 38/37/19
f 84/40/20 85/42/21 42/41/21 40/39/20
f 85/42/21 86/44/22 44/43/22 42/41/21
f 86/44/22 87/46/23 46/45/23 44/43/22
f 87/46/23 88/48/24 48/47/24 46/45/23
f 88/48/24 89/50/25 50/49/25 48/47/24
f 89/50/25 90/52/26 52/51/26 50/49/25
f 90/52/26 91/54/27 54/53/27 52/51/26
f 91/54/27 92/56/28 56/55/28 54/53/27
f 92/56/28 93/58/29 58/57/29 56/55/28
f 93/58/29 94/60/30 60/59/30 58/57/29
f 94/60/30 95/62/31 62/61/31 60/59/30
f 4/63/32 6/94/32 8/93/32 10/92/32 12/91/32 14/90/32 16/89/32 18/88/32 20/87/32 22/86/32 24/85/32 26/84/32 28/83/32 30/82/32 32/81/32 34/80/32 36/79/32 38/78/32 40/77/32 42/76/32 44/75/32 46/74/32 48/73/32 50/72/32 52/71/32 54/70/32 56/69/32 58/68/32 60/67/32 62/66/32 64/65/32 2/64/32
f 95/62/31 96/96/33 64/95/33 62/61/31
f 96/96/33 65/98/1 2/97/1 64/95/33
f 25/99/29 109/99/29 110/100/30 27/100/30
f 3/101/34 66/104/34 65/103/34 1/102/34
f 5/105/34 67/106/34 66/104/34 3/101/34
f 7/107/34 68/108/34 67/106/34 5/105/34
f 9/109/34 69/110/34 68/108/34 7/107/34
f 11/111/34 70/112/34 69/110/34 9/109/34
f 13/113/34 71/114/34 70/112/34 11/111/34
f 15/115/34 72/116/34 71/114/34 13/113/34
f 17/117/34 73/118/34 72/116/34 15/115/34
f 19/119/34 74/120/34 73/118/34 17/117/34
f 21/121/34 75/122/34 74/120/34 19/119/34
f 23/123/34 76/124/34 75/122/34 21/121/34
f 25/99/34 77/125/34 76/124/34 23/123/34
f 27/100/34 78/126/34 77/125/34 25/99/34
f 29/127/34 79/128/34 78/126/34 27/100/34
f 31/129/34 80/130/34 79/128/34 29/127/34
f 33/131/34 81/132/34 80/130/34 31/129/34
f 35/133/34 82/134/34 81/132/34 33/131/34
f 37/135/34 83/136/34 82/134/34 35/133/34
f 39/137/34 84/138/34 83/136/34 37/135/34
f 41/139/34 85/140/34 84/138/34 39/137/34
f 43/141/34 86/142/34 85/140/34 41/139/34
f 45/143/34 87/144/34 86/142/34 43/141/34
f 47/145/34 88/146/34 87/144/34 45/143/34
f 49/147/34 89/148/34 88/146/34 47/145/34
f 51/149/34 90/150/34 89/148/34 49/147/34
f 53/151/34 91/152/34 90/150/34 51/149/34
f 55/153/34 92/154/34 91/152/34 53/151/34
f 57/155/34 93/156/34 92/154/34 55/153/34
f 59/157/34 94/158/34 93/156/34 57/155/34
f 61/159/34 95/160/34 94/158/34 59/157/34
f 63/161/34 96/162/34 95/160/34 61/159/34
f 1/102/34 65/103/34 96/162/34 63/161/34
f 97/102/34 128/161/34 127/159/34 126/157/34 125/155/34 124/153/34 123/151/34 122/149/34 121/147/34 120/145/34 119/143/34 118/141/34 117/139/34 116/137/34 115/135/34 114/133/34 113/131/34 112/129/34 111/127/34 110/100/34 109/99/34 108/123/34 107/121/34 106/119/34 105/117/34 104/115/34 103/113/34 102/111/34 101/109/34 100/107/34 99/105/34 98/101/34
f 53/151/11 123/151/11 124/153/12 55/153/12
f 27/100/30 110/100/30 111/127/31 29/127/31
f 1/102/17 97/102/17 98/101/18 3/101/18
f 55/153/12 124/153/12 125/155/13 57/155/13
f 29/127/31 111/127/31 112/129/33 31/129/33
f 3/101/18 98/101/18 99/105/19 5/105/19
f 57/155/13 125/155/13 126/157/14 59/157/14
f 31/129/33 112/129/33 113/131/1 33/131/1
f 5/105/19 99/105/19 100/107/20 7/107/20
f 59/157/14 126/157/14 127/159/15 61/159/15
f 33/131/1 113/131/1 114/133/2 35/133/2
f 7/107/20 100/107/20 101/109/21 9/109/21
f 61/159/15 127/159/15 128/161/16 63/161/16
f 35/133/2 114/133/2 115/135/3 37/135/3
f 9/109/21 101/109/21 102/111/22 11/111/22
f 63/161/16 128/161/16 97/102/17 1/102/17
f 37/135/3 115/135/3 116/137/4 39/137/4
f 11/111/22 102/111/22 103/113/23 13/113/23
f 39/137/4 116/137/4 117/139/5 41/139/5
f 13/113/23 103/113/23 104/115/24 15/115/24
f 41/139/5 117/139/5 118/141/6 43/141/6
f 15/115/24 104/115/24 105/117/25 17/117/25
f 43/141/6 118/141/6 119/143/7 45/143/7
f 17/117/25 105/117/25 106/119/26 19/119/26
f 45/143/7 119/143/7 120/145/8 47/145/8
f 19/119/26 106/119/26 107/121/27 21/121/27
f 47/145/8 120/145/8 121/147/9 49/147/9
f 21/121/27 107/121/27 108/123/28 23/123/28
f 49/147/9 121/147/9 122/149/10 51/149/10
f 23/123/28 108/123/28 109/99/29 25/99/29
f 51/149/10 122/149/10 123/151/11 53/151/11
