# Blender 4.0.2
# www.blender.org
mtllib Tolette Deckel.mtl
o ToiletSeatCover
v 2.784090 0.572692 -1.146347
v 2.782106 0.667722 -1.131233
v 2.780231 0.757535 -1.143920
v 2.778621 0.834621 -1.185397
v 2.777440 0.891209 -1.254405
v 2.786717 0.446843 -1.278546
v 2.785897 0.486102 -1.191501
v 2.786591 0.452890 -1.239578
v 2.761835 0.834660 -1.183359
v 2.763438 0.757912 -1.140655
v 2.769888 0.448945 -1.237476
v 2.769994 0.443826 -1.276607
v 2.760680 0.890008 -1.254065
v 2.765327 0.667411 -1.127797
v 2.767349 0.570523 -1.143506
v 2.770031 0.436185 -1.276262
v 2.769919 0.441576 -1.235819
v 2.761601 0.840025 -1.178736
v 2.760410 0.897071 -1.251578
v 2.767288 0.567596 -1.137554
v 2.765204 0.667402 -1.121326
v 2.769206 0.475724 -1.185459
v 2.763257 0.760702 -1.134613
v 2.769205 0.481641 -1.189579
v 2.784090 0.572692 -1.520560
v 2.782106 0.667722 -1.535674
v 2.780231 0.757535 -1.522987
v 2.778621 0.834621 -1.481510
v 2.777440 0.891209 -1.412502
v 2.786729 0.446255 -1.333453
v 2.777021 0.911270 -1.333453
v 2.786717 0.446843 -1.388361
v 2.785897 0.486102 -1.475406
v 2.786591 0.452890 -1.427329
v 2.760272 0.909553 -1.333453
v 2.761835 0.834660 -1.483548
v 2.763438 0.757912 -1.526252
v 2.769888 0.448945 -1.429430
v 2.769994 0.443826 -1.390299
v 2.760680 0.890008 -1.412841
v 2.765327 0.667411 -1.539109
v 2.767349 0.570523 -1.523400
v 2.770031 0.436185 -1.390645
v 2.769919 0.441576 -1.431087
v 2.761601 0.840025 -1.488170
v 2.760410 0.897071 -1.415329
v 2.767288 0.567596 -1.529353
v 2.765204 0.667402 -1.545580
v 2.769206 0.475724 -1.481447
v 2.759989 0.917210 -1.333453
v 2.763257 0.760702 -1.532294
v 2.770035 0.436005 -1.333453
v 2.769205 0.481641 -1.477327
v 2.769998 0.443659 -1.333453
v 2.783087 0.620742 -1.134812
v 2.781146 0.713690 -1.134222
v 2.779385 0.798027 -1.160831
v 2.777956 0.866516 -1.217444
v 2.777126 0.906268 -1.293493
v 2.786727 0.446349 -1.304178
v 2.786685 0.448377 -1.258548
v 2.786371 0.463420 -1.216854
v 2.785085 0.524987 -1.166499
v 2.782769 0.748777 -1.163495
v 2.781286 0.819832 -1.199147
v 2.788414 0.478388 -1.246471
v 2.788563 0.471247 -1.281944
v 2.780157 0.873902 -1.259399
v 2.786214 0.583772 -1.164985
v 2.784462 0.667675 -1.152227
v 2.787771 0.509161 -1.203874
v 2.779818 0.890152 -1.333453
v 2.788515 0.473518 -1.333453
v 2.760374 0.904674 -1.293466
v 2.769971 0.444949 -1.256345
v 2.769679 0.458952 -1.214941
v 2.768373 0.521474 -1.164189
v 2.762593 0.798380 -1.158044
v 2.766324 0.619670 -1.131583
v 2.764357 0.713850 -1.130758
v 2.761182 0.865949 -1.216337
v 2.769999 0.443633 -1.303048
v 2.770718 0.757953 -1.140709
v 2.777273 0.443961 -1.276610
v 2.774629 0.570616 -1.143560
v 2.781452 0.437634 -1.276547
v 2.781337 0.443107 -1.236289
v 2.773063 0.839466 -1.179569
v 2.771873 0.896454 -1.251931
v 2.778723 0.568349 -1.138653
v 2.776652 0.667559 -1.122565
v 2.780627 0.477137 -1.186215
v 2.771453 0.916584 -1.333453
v 2.774713 0.760423 -1.135776
v 2.781456 0.437403 -1.333453
v 2.762383 0.802527 -1.152598
v 2.770036 0.435981 -1.302939
v 2.768345 0.516957 -1.158995
v 2.764206 0.715246 -1.124384
v 2.760094 0.912180 -1.292200
v 2.769699 0.452097 -1.212098
v 2.766231 0.618243 -1.125228
v 2.760927 0.872296 -1.212716
v 2.770007 0.437363 -1.255515
v 2.777277 0.443794 -1.333453
v 2.776484 0.481761 -1.189617
v 2.772607 0.667477 -1.127856
v 2.767961 0.890010 -1.254088
v 2.777166 0.449078 -1.237491
v 2.769116 0.834677 -1.183401
v 2.767553 0.909550 -1.333453
v 2.783087 0.620742 -1.532095
v 2.781146 0.713690 -1.532684
v 2.779385 0.798027 -1.506076
v 2.777956 0.866517 -1.449462
v 2.777126 0.906268 -1.373414
v 2.786727 0.446349 -1.362728
v 2.786685 0.448377 -1.408358
v 2.786371 0.463420 -1.450053
v 2.785085 0.524987 -1.500407
v 2.782769 0.748777 -1.503412
v 2.781286 0.819832 -1.467760
v 2.788414 0.478388 -1.420436
v 2.788563 0.471247 -1.384963
v 2.780157 0.873902 -1.407508
v 2.786214 0.583772 -1.501922
v 2.784462 0.667675 -1.514680
v 2.787771 0.509161 -1.463032
v 2.760374 0.904674 -1.373441
v 2.769971 0.444949 -1.410562
v 2.769679 0.458952 -1.451965
v 2.768373 0.521474 -1.502717
v 2.762593 0.798380 -1.508862
v 2.766323 0.619670 -1.535324
v 2.764357 0.713850 -1.536149
v 2.761182 0.865949 -1.450570
v 2.769999 0.443633 -1.363858
v 2.770718 0.757953 -1.526197
v 2.777273 0.443961 -1.390296
v 2.774629 0.570616 -1.523346
v 2.781452 0.437634 -1.390360
v 2.781337 0.443107 -1.430618
v 2.773063 0.839466 -1.487338
v 2.771873 0.896454 -1.414975
v 2.778723 0.568349 -1.528254
v 2.776652 0.667559 -1.544342
v 2.780627 0.477137 -1.480692
v 2.774713 0.760423 -1.531131
v 2.762383 0.802527 -1.514309
v 2.770036 0.435981 -1.363968
v 2.768345 0.516957 -1.507912
v 2.764206 0.715246 -1.542523
v 2.760094 0.912180 -1.374707
v 2.769699 0.452097 -1.454808
v 2.766231 0.618243 -1.541679
v 2.760927 0.872296 -1.454191
v 2.770007 0.437363 -1.411392
v 2.776484 0.481761 -1.477290
v 2.772607 0.667477 -1.539051
v 2.767961 0.890010 -1.412819
v 2.777166 0.449078 -1.429415
v 2.769116 0.834677 -1.483506
v 2.782017 0.784780 -1.178628
v 2.788485 0.474962 -1.263613
v 2.780685 0.848585 -1.227012
v 2.785329 0.626137 -1.155929
v 2.788169 0.490129 -1.226395
v 2.779906 0.885899 -1.294523
v 2.783607 0.708613 -1.155798
v 2.787051 0.543661 -1.182773
v 2.788532 0.472711 -1.304763
v 2.767655 0.904672 -1.293477
v 2.777250 0.445084 -1.256353
v 2.776958 0.459080 -1.214967
v 2.775653 0.521581 -1.164236
v 2.769873 0.798409 -1.158094
v 2.773603 0.619750 -1.131640
v 2.771638 0.713904 -1.130815
v 2.768463 0.865958 -1.216370
v 2.781457 0.437394 -1.303094
v 2.779772 0.518077 -1.159933
v 2.775658 0.715168 -1.125614
v 2.771558 0.911557 -1.292362
v 2.781118 0.453629 -1.212693
v 2.777672 0.618671 -1.126426
v 2.772390 0.871690 -1.213307
v 2.781426 0.438856 -1.255894
v 2.777277 0.443769 -1.303049
v 2.773843 0.802081 -1.153627
v 2.782017 0.784780 -1.488279
v 2.788485 0.474962 -1.403294
v 2.780685 0.848585 -1.439894
v 2.785329 0.626137 -1.510978
v 2.788169 0.490129 -1.440512
v 2.779906 0.885899 -1.372383
v 2.783607 0.708613 -1.511109
v 2.787051 0.543661 -1.484134
v 2.788532 0.472711 -1.362143
v 2.767655 0.904672 -1.373429
v 2.777250 0.445084 -1.410554
v 2.776958 0.459080 -1.451939
v 2.775653 0.521581 -1.502670
v 2.769873 0.798409 -1.508813
v 2.773603 0.619750 -1.535266
v 2.771638 0.713904 -1.536091
v 2.768463 0.865958 -1.450537
v 2.781457 0.437394 -1.363813
v 2.779772 0.518077 -1.506974
v 2.775658 0.715168 -1.541293
v 2.771558 0.911557 -1.374545
v 2.781118 0.453629 -1.454214
v 2.777672 0.618671 -1.540481
v 2.772390 0.871690 -1.453600
v 2.781426 0.438856 -1.411013
v 2.777277 0.443769 -1.363858
v 2.773843 0.802081 -1.513280
v 2.788402 0.478949 -1.295295
v 2.788281 0.484733 -1.286441
v 2.787975 0.499381 -1.276099
v 2.787508 0.521783 -1.264518
v 2.786715 0.559751 -1.253726
v 2.785812 0.602991 -1.244667
v 2.784886 0.647359 -1.240133
v 2.783992 0.690168 -1.238365
v 2.783132 0.731393 -1.240356
v 2.782299 0.771275 -1.244479
v 2.781576 0.805925 -1.252433
v 2.780888 0.838885 -1.263169
v 2.780354 0.864445 -1.277683
v 2.788358 0.481056 -1.333453
v 2.788212 0.488056 -1.333453
v 2.787875 0.504163 -1.333453
v 2.787373 0.528229 -1.333453
v 2.786546 0.567834 -1.333453
v 2.785614 0.612505 -1.333453
v 2.784670 0.657703 -1.333453
v 2.783767 0.700963 -1.333453
v 2.782907 0.742128 -1.333453
v 2.782082 0.781659 -1.333453
v 2.781378 0.815416 -1.333453
v 2.780716 0.847103 -1.333453
v 2.780221 0.870847 -1.333453
v 2.788402 0.478949 -1.371611
v 2.788281 0.484733 -1.380465
v 2.787975 0.499381 -1.390808
v 2.787508 0.521783 -1.402389
v 2.786715 0.559751 -1.413181
v 2.785812 0.602991 -1.422239
v 2.784886 0.647359 -1.426774
v 2.783992 0.690168 -1.428542
v 2.783132 0.731393 -1.426551
v 2.782299 0.771275 -1.422428
v 2.781576 0.805925 -1.414474
v 2.780888 0.838885 -1.403738
v 2.780354 0.864445 -1.389223
v 2.770032 0.790800 -1.169628
v 2.769421 0.820072 -1.205171
v 2.768943 0.842975 -1.245566
v 2.768650 0.857037 -1.288824
v 2.768552 0.861733 -1.333453
v 2.768650 0.857037 -1.378082
v 2.768943 0.842975 -1.421341
v 2.769421 0.820072 -1.461735
v 2.770032 0.790800 -1.497278
v 2.771071 0.741060 -1.162379
v 2.770540 0.766462 -1.199016
v 2.770115 0.786827 -1.240366
v 2.769852 0.799452 -1.285808
v 2.769763 0.803690 -1.333453
v 2.769852 0.799452 -1.381099
v 2.770115 0.786827 -1.426540
v 2.770540 0.766462 -1.467891
v 2.771071 0.741060 -1.504528
v 2.772188 0.687546 -1.161057
v 2.771764 0.707868 -1.197489
v 2.771411 0.724762 -1.238309
v 2.771189 0.735381 -1.284376
v 2.771115 0.738971 -1.333453
v 2.771189 0.735381 -1.382530
v 2.771411 0.724762 -1.428598
v 2.771764 0.707868 -1.469418
v 2.772188 0.687546 -1.505850
v 2.773345 0.632102 -1.165385
v 2.773041 0.646699 -1.200419
v 2.772772 0.659583 -1.239375
v 2.772599 0.667857 -1.284557
v 2.772540 0.670685 -1.333453
v 2.772599 0.667857 -1.382350
v 2.772772 0.659583 -1.427531
v 2.773041 0.646699 -1.466488
v 2.773345 0.632102 -1.501522
v 2.774531 0.575326 -1.176399
v 2.774349 0.584027 -1.208679
v 2.774169 0.592669 -1.244287
v 2.774049 0.598431 -1.286765
v 2.774007 0.600437 -1.333453
v 2.774048 0.598431 -1.380141
v 2.774169 0.592669 -1.422619
v 2.774349 0.584027 -1.458227
v 2.774531 0.575326 -1.490508
v 2.775694 0.519617 -1.194468
v 2.775625 0.522885 -1.222624
v 2.775530 0.527485 -1.253421
v 2.775460 0.530816 -1.291243
v 2.775435 0.532020 -1.333453
v 2.775460 0.530816 -1.375664
v 2.775529 0.527485 -1.413485
v 2.775625 0.522885 -1.444283
v 2.775694 0.519617 -1.472439
v 2.776628 0.474856 -1.216137
v 2.776650 0.473819 -1.239552
v 2.776623 0.475093 -1.264937
v 2.776596 0.476392 -1.297059
v 2.776585 0.476919 -1.333453
v 2.776596 0.476392 -1.369848
v 2.776623 0.475093 -1.401970
v 2.776650 0.473819 -1.427355
v 2.776628 0.474855 -1.450770
v 2.760008 0.462616 -1.221206
v 2.760064 0.450625 -1.221206
v 2.751491 0.461383 -1.221206
v 2.749523 0.456571 -1.221206
v 2.756105 0.463471 -1.221206
v 2.756170 0.449733 -1.221206
v 2.751536 0.451777 -1.221206
v 2.780829 0.462032 -1.221206
v 2.780879 0.451405 -1.221206
v 2.761027 0.461966 -1.221210
v 2.750036 0.459169 -1.221206
v 2.753669 0.462868 -1.221206
v 2.758318 0.463209 -1.221206
v 2.758380 0.450015 -1.221206
v 2.753729 0.450312 -1.221206
v 2.750060 0.453977 -1.221206
v 2.760008 0.462616 -1.231993
v 2.760064 0.450625 -1.231993
v 2.751491 0.461383 -1.231993
v 2.749523 0.456571 -1.231993
v 2.756105 0.463471 -1.231993
v 2.756170 0.449733 -1.231993
v 2.751536 0.451777 -1.231993
v 2.780829 0.462032 -1.231993
v 2.761077 0.451284 -1.231990
v 2.761077 0.451284 -1.221210
v 2.780879 0.451405 -1.231993
v 2.761027 0.461966 -1.231990
v 2.750036 0.459169 -1.231993
v 2.753669 0.462868 -1.231993
v 2.758318 0.463209 -1.231993
v 2.758380 0.450015 -1.231993
v 2.753729 0.450312 -1.231993
v 2.750060 0.453977 -1.231993
v 2.760008 0.462616 -1.445700
v 2.760064 0.450625 -1.445700
v 2.751491 0.461383 -1.445700
v 2.749523 0.456571 -1.445700
v 2.756105 0.463471 -1.445700
v 2.756170 0.449733 -1.445700
v 2.751536 0.451777 -1.445700
v 2.780829 0.462032 -1.445700
v 2.780879 0.451405 -1.445700
v 2.761027 0.461966 -1.445697
v 2.750036 0.459169 -1.445700
v 2.753669 0.462868 -1.445700
v 2.758318 0.463209 -1.445700
v 2.758380 0.450015 -1.445700
v 2.753729 0.450312 -1.445700
v 2.750060 0.453977 -1.445700
v 2.760008 0.462616 -1.434913
v 2.760064 0.450625 -1.434913
v 2.751491 0.461383 -1.434913
v 2.749523 0.456571 -1.434913
v 2.756105 0.463471 -1.434913
v 2.756170 0.449733 -1.434913
v 2.751536 0.451777 -1.434913
v 2.780829 0.462032 -1.434913
v 2.761077 0.451284 -1.434917
v 2.761077 0.451284 -1.445697
v 2.780879 0.451405 -1.434913
v 2.761027 0.461966 -1.434917
v 2.750036 0.459169 -1.434913
v 2.753669 0.462868 -1.434913
v 2.758318 0.463209 -1.434913
v 2.758380 0.450015 -1.434913
v 2.753729 0.450312 -1.434913
v 2.750060 0.453977 -1.434913
vn 0.9976 0.0469 0.0511
vn 0.9971 0.0586 0.0485
vn 0.9219 0.2602 0.2869
vn 0.9318 0.1884 0.3103
vn 0.9978 0.0375 0.0553
vn 0.9374 0.1233 0.3256
vn 0.9996 -0.0242 0.0167
vn 0.9607 -0.2610 0.0951
vn 0.9580 -0.2832 0.0440
vn 0.9997 -0.0231 0.0078
vn 0.9562 -0.2924 0.0130
vn 0.9996 -0.0287 0.0027
vn 0.9968 0.0684 0.0415
vn 0.9962 0.0809 0.0332
vn 0.8922 0.4064 0.1970
vn 0.9074 0.3351 0.2538
vn 0.9983 0.0124 0.0566
vn 0.9981 0.0206 0.0579
vn 0.9406 0.0175 0.3389
vn 0.9406 -0.0331 0.3378
vn 0.9985 0.0036 0.0552
vn 0.9425 -0.0849 0.3232
vn 0.9991 -0.0119 0.0415
vn 0.9528 -0.1805 0.2441
vn 0.9588 -0.2296 0.1675
vn 0.9995 -0.0172 0.0271
vn 0.9965 0.0823 0.0157
vn 0.9967 0.0809 -0.0000
vn 0.8816 0.4719 -0.0000
vn 0.8836 0.4557 0.1075
vn 0.9980 0.0284 0.0557
vn 0.9400 0.0670 0.3347
vn 0.9468 -0.1311 0.2938
vn 0.9988 -0.0035 0.0486
vn 0.9551 -0.2962 0.0012
vn 0.9997 -0.0237 -0.0007
vn 0.9550 -0.2966 -0.0000
vn 0.9998 -0.0222 -0.0000
vn -0.0011 -0.8954 -0.4453
vn -0.0006 -0.9717 -0.2364
vn -0.0006 -0.9715 -0.2369
vn -0.0011 -0.8950 -0.4461
vn -0.0004 -1.0000 -0.0000
vn -0.0186 0.9993 -0.0313
vn -0.0185 0.9911 -0.1318
vn -0.0185 0.9911 -0.1316
vn -0.0180 0.9511 -0.3084
vn -0.0180 0.9512 -0.3081
vn -0.0168 0.8393 -0.5434
vn -0.0168 0.8398 -0.5426
vn -0.0146 0.6467 -0.7626
vn -0.0146 0.6476 -0.7618
vn -0.0125 0.4640 -0.8857
vn -0.0125 0.4648 -0.8853
vn -0.0110 0.3125 -0.9499
vn -0.0110 0.3134 -0.9495
vn -0.0054 -0.3091 -0.9510
vn -0.0040 -0.4867 -0.8735
vn -0.0040 -0.4854 -0.8743
vn -0.0054 -0.3077 -0.9515
vn -0.0028 -0.6527 -0.7576
vn -0.0028 -0.6517 -0.7585
vn -0.0095 0.1571 -0.9875
vn -0.0095 0.1583 -0.9874
vn -0.0081 0.0070 -0.9999
vn -0.0081 0.0081 -0.9999
vn -0.0068 -0.1426 -0.9898
vn -0.0068 -0.1414 -0.9899
vn -0.0018 -0.7882 -0.6154
vn -0.0018 -0.7876 -0.6162
vn 0.5548 -0.8314 0.0306
vn 0.5496 -0.8354 0.0045
vn 0.1269 -0.9914 0.0333
vn 0.1233 -0.9924 0.0039
vn 0.1221 -0.9925 -0.0000
vn 0.5475 -0.8368 -0.0000
vn 0.5243 -0.2591 0.8111
vn 0.5355 -0.3881 0.7501
vn 0.1115 -0.3107 0.9440
vn 0.1177 -0.4629 0.8785
vn 0.1292 -0.6454 0.7528
vn 0.5494 -0.5396 0.6379
vn 0.5123 0.2738 0.8140
vn 0.5189 0.1320 0.8446
vn 0.1027 0.3092 0.9454
vn 0.1060 0.1440 0.9839
vn 0.1074 -0.0049 0.9942
vn 0.5205 0.0045 0.8538
vn 0.3898 0.9209 -0.0000
vn 0.3955 0.8927 0.2160
vn 0.0552 0.9985 -0.0000
vn 0.0570 0.9701 0.2359
vn 0.0630 0.8935 0.4447
vn 0.4147 0.8153 0.4041
vn 0.5619 -0.6927 0.4522
vn 0.1389 -0.8327 0.5361
vn 0.1388 -0.9412 0.3082
vn 0.5671 -0.7812 0.2609
vn 0.5201 -0.1250 0.8449
vn 0.1086 -0.1550 0.9819
vn 0.4458 0.7064 0.5498
vn 0.0735 0.7856 0.6143
vn 0.0857 0.6498 0.7552
vn 0.4764 0.5763 0.6640
vn 0.5602 -0.8201 0.1166
vn 0.1330 -0.9819 0.1346
vn -0.0186 0.9998 -0.0000
vn -0.0186 0.9998 -0.0032
vn -0.9993 -0.0356 -0.0075
vn -0.9993 -0.0357 -0.0072
vn -0.9993 -0.0365 -0.0037
vn -0.9993 -0.0365 -0.0039
vn -1.0000 -0.0049 -0.0000
vn -1.0000 -0.0049 -0.0001
vn -0.9994 -0.0321 -0.0134
vn -0.9994 -0.0324 -0.0131
vn -0.9994 -0.0343 -0.0103
vn -0.9994 -0.0341 -0.0106
vn -0.9995 -0.0265 -0.0177
vn -0.9995 -0.0267 -0.0176
vn -0.9994 -0.0298 -0.0157
vn -0.9994 -0.0295 -0.0159
vn -0.9996 -0.0207 -0.0189
vn -0.9995 -0.0236 -0.0186
vn -0.9996 -0.0235 -0.0187
vn -0.9994 -0.0321 0.0134
vn -0.9994 -0.0324 0.0131
vn -0.9994 -0.0298 0.0157
vn -0.9994 -0.0295 0.0159
vn -0.9997 -0.0179 -0.0186
vn -0.9997 -0.0178 -0.0186
vn -0.9996 -0.0207 0.0189
vn -0.9997 -0.0178 0.0186
vn -0.9997 -0.0179 0.0186
vn -0.9995 -0.0265 0.0177
vn -0.9995 -0.0267 0.0176
vn -0.9995 -0.0236 0.0186
vn -0.9996 -0.0235 0.0186
vn -1.0000 -0.0054 -0.0051
vn -1.0000 -0.0054 -0.0049
vn -0.9999 -0.0067 -0.0088
vn -0.9999 -0.0070 -0.0094
vn -0.9998 -0.0125 -0.0164
vn -0.9998 -0.0121 -0.0161
vn -0.9997 -0.0149 -0.0177
vn -0.9997 -0.0151 -0.0178
vn -0.9999 -0.0097 -0.0137
vn -0.9999 -0.0092 -0.0131
vn -1.0000 -0.0049 -0.0022
vn -1.0000 -0.0049 -0.0021
vn -0.9993 -0.0369 -0.0000
vn 0.4988 0.4272 0.7541
vn 0.0961 0.4850 0.8692
vn 0.9978 0.0375 -0.0553
vn 0.9374 0.1233 -0.3256
vn 0.9318 0.1884 -0.3103
vn 0.9976 0.0469 -0.0511
vn 0.9219 0.2602 -0.2869
vn 0.9971 0.0586 -0.0485
vn 0.9997 -0.0231 -0.0078
vn 0.9996 -0.0287 -0.0027
vn 0.9562 -0.2924 -0.0130
vn 0.9580 -0.2832 -0.0440
vn 0.9996 -0.0242 -0.0167
vn 0.9607 -0.2610 -0.0951
vn 0.9074 0.3351 -0.2538
vn 0.9968 0.0684 -0.0415
vn 0.8922 0.4064 -0.1970
vn 0.9962 0.0809 -0.0332
vn 0.9985 0.0036 -0.0552
vn 0.9425 -0.0849 -0.3232
vn 0.9406 -0.0331 -0.3378
vn 0.9983 0.0124 -0.0566
vn 0.9406 0.0175 -0.3389
vn 0.9981 0.0206 -0.0579
vn 0.9995 -0.0172 -0.0271
vn 0.9588 -0.2296 -0.1675
vn 0.9991 -0.0119 -0.0415
vn 0.9528 -0.1805 -0.2441
vn 0.8836 0.4557 -0.1075
vn 0.9965 0.0823 -0.0157
vn 0.9400 0.0670 -0.3346
vn 0.9980 0.0284 -0.0557
vn 0.9988 -0.0035 -0.0486
vn 0.9468 -0.1311 -0.2938
vn 0.9997 -0.0237 0.0007
vn 0.9551 -0.2962 -0.0012
vn -0.0011 -0.8954 0.4453
vn -0.0011 -0.8950 0.4461
vn -0.0006 -0.9715 0.2369
vn -0.0006 -0.9717 0.2364
vn -0.0186 0.9993 0.0313
vn -0.0185 0.9911 0.1316
vn -0.0185 0.9911 0.1318
vn -0.0180 0.9512 0.3081
vn -0.0180 0.9511 0.3084
vn -0.0168 0.8398 0.5426
vn -0.0168 0.8393 0.5434
vn -0.0146 0.6476 0.7618
vn -0.0146 0.6467 0.7626
vn -0.0125 0.4648 0.8853
vn -0.0125 0.4640 0.8857
vn -0.0110 0.3134 0.9495
vn -0.0110 0.3125 0.9499
vn -0.0054 -0.3091 0.9510
vn -0.0054 -0.3077 0.9515
vn -0.0040 -0.4854 0.8743
vn -0.0040 -0.4867 0.8735
vn -0.0028 -0.6517 0.7585
vn -0.0028 -0.6527 0.7576
vn -0.0095 0.1583 0.9874
vn -0.0095 0.1571 0.9875
vn -0.0081 0.0081 0.9999
vn -0.0081 0.0070 0.9999
vn -0.0068 -0.1414 0.9899
vn -0.0068 -0.1426 0.9898
vn -0.0018 -0.7876 0.6162
vn -0.0018 -0.7882 0.6154
vn 0.5496 -0.8354 -0.0045
vn 0.5548 -0.8314 -0.0306
vn 0.1233 -0.9924 -0.0039
vn 0.1269 -0.9914 -0.0333
vn 0.5355 -0.3881 -0.7501
vn 0.5243 -0.2591 -0.8111
vn 0.5494 -0.5396 -0.6379
vn 0.1292 -0.6454 -0.7528
vn 0.1177 -0.4629 -0.8785
vn 0.1115 -0.3107 -0.9440
vn 0.5189 0.1320 -0.8446
vn 0.5123 0.2738 -0.8140
vn 0.5205 0.0045 -0.8538
vn 0.1074 -0.0049 -0.9942
vn 0.1060 0.1440 -0.9839
vn 0.1027 0.3092 -0.9454
vn 0.3955 0.8927 -0.2160
vn 0.4147 0.8153 -0.4041
vn 0.0630 0.8935 -0.4447
vn 0.0570 0.9701 -0.2359
vn 0.5619 -0.6927 -0.4522
vn 0.5671 -0.7812 -0.2609
vn 0.1388 -0.9412 -0.3082
vn 0.1389 -0.8327 -0.5361
vn 0.5201 -0.1250 -0.8449
vn 0.1086 -0.1550 -0.9819
vn 0.4458 0.7064 -0.5498
vn 0.4764 0.5763 -0.6640
vn 0.0858 0.6498 -0.7552
vn 0.0735 0.7856 -0.6143
vn 0.5602 -0.8201 -0.1166
vn 0.1330 -0.9819 -0.1346
vn -0.0186 0.9998 0.0032
vn -1.0000 -0.0054 0.0051
vn -1.0000 -0.0054 0.0049
vn -1.0000 -0.0050 0.0021
vn -1.0000 -0.0050 0.0022
vn -1.0000 -0.0048 -0.0005
vn -0.9999 -0.0098 0.0137
vn -0.9999 -0.0092 0.0131
vn -0.9999 -0.0067 0.0088
vn -0.9999 -0.0070 0.0094
vn -1.0000 -0.0049 0.0001
vn -0.9997 -0.0151 0.0178
vn -0.9997 -0.0149 0.0177
vn -0.9998 -0.0122 0.0161
vn -0.9998 -0.0125 0.0164
vn -1.0000 -0.0049 0.0005
vn -0.9993 -0.0356 0.0075
vn -0.9993 -0.0357 0.0072
vn -0.9994 -0.0343 0.0103
vn -0.9994 -0.0341 0.0106
vn -0.9993 -0.0365 0.0037
vn -0.9993 -0.0365 0.0039
vn 0.4988 0.4272 -0.7541
vn 0.0961 0.4850 -0.8692
vn 0.9998 0.0209 -0.0000
vn -0.9998 -0.0209 -0.0000
vn 0.4373 0.8993 -0.0000
vn 0.2786 0.9604 -0.0000
vn 0.4457 -0.8952 -0.0000
vn 0.2876 -0.9577 -0.0000
vn -0.0033 1.0000 -0.0000
vn -0.0002 -0.0000 1.0000
vn 0.0001 -0.0000 1.0000
vn -0.7130 0.7011 -0.0000
vn -0.9256 0.3784 -0.0000
vn -0.0002 -0.0000 -1.0000
vn 0.0001 -0.0000 -1.0000
vn -1.0000 -0.0047 -0.0000
vn -0.0624 0.9981 -0.0000
vn -0.4081 0.9129 -0.0000
vn 0.2258 0.9742 -0.0000
vn -0.0530 -0.9986 -0.0000
vn 0.2349 -0.9720 -0.0000
vn -0.7064 -0.7078 -0.0000
vn -0.3995 -0.9167 -0.0000
vn -0.9220 -0.3871 -0.0000
vn 0.0003 -0.0000 -1.0000
vn 0.0003 -0.0000 1.0000
vn 0.0061 -1.0000 -0.0000
vt 0.364191 0.583141
vt 0.343946 0.593697
vt 0.335941 0.585528
vt 0.357134 0.572700
vt 0.384935 0.575582
vt 0.380437 0.564177
vt 0.535260 0.631805
vt 0.549626 0.628401
vt 0.551952 0.639064
vt 0.536795 0.641537
vt 0.552700 0.650545
vt 0.538485 0.652084
vt 0.327116 0.608469
vt 0.312197 0.625743
vt 0.302662 0.622487
vt 0.317266 0.602599
vt 0.455002 0.575191
vt 0.431396 0.571598
vt 0.432041 0.559488
vt 0.458875 0.563233
vt 0.478839 0.581993
vt 0.485940 0.571729
vt 0.519375 0.607075
vt 0.532680 0.601108
vt 0.544202 0.615774
vt 0.529220 0.620290
vt 0.304582 0.644711
vt 0.300933 0.665808
vt 0.289276 0.665007
vt 0.293371 0.643514
vt 0.407954 0.572345
vt 0.405644 0.559810
vt 0.512162 0.585286
vt 0.500866 0.593747
vt 0.552586 0.665618
vt 0.537041 0.665228
vt 0.551704 0.683029
vt 0.535588 0.681922
vt 0.997248 0.548167
vt 0.997426 0.572019
vt 0.993295 0.572025
vt 0.993117 0.548180
vt 0.997486 0.594873
vt 0.993354 0.594873
vt 0.989632 0.226312
vt 0.989950 0.237821
vt 0.985822 0.237931
vt 0.985503 0.226424
vt 0.990257 0.248759
vt 0.986128 0.248864
vt 0.990654 0.262743
vt 0.986525 0.262841
vt 0.991208 0.282043
vt 0.987079 0.282134
vt 0.991968 0.308836
vt 0.987839 0.308917
vt 0.992811 0.339031
vt 0.988681 0.339103
vt 0.995566 0.446903
vt 0.996099 0.471891
vt 0.991968 0.471926
vt 0.991435 0.446945
vt 0.996562 0.496989
vt 0.992431 0.497016
vt 0.993590 0.367718
vt 0.989460 0.367783
vt 0.994302 0.394885
vt 0.990171 0.394942
vt 0.994963 0.421283
vt 0.990833 0.421333
vt 0.996952 0.522780
vt 0.992821 0.522800
vt 0.558923 0.649397
vt 0.558813 0.665193
vt 0.565869 0.648973
vt 0.565808 0.665292
vt 0.564882 0.683934
vt 0.557882 0.683453
vt 0.489069 0.566607
vt 0.516832 0.581100
vt 0.491796 0.560344
vt 0.520718 0.575501
vt 0.543420 0.593432
vt 0.538406 0.597971
vt 0.378673 0.558547
vt 0.404873 0.553887
vt 0.376765 0.552008
vt 0.404125 0.547094
vt 0.432772 0.546715
vt 0.432413 0.553561
vt 0.284989 0.664713
vt 0.289197 0.642360
vt 0.278550 0.664271
vt 0.282850 0.640505
vt 0.292806 0.617167
vt 0.298658 0.620367
vt 0.550296 0.613372
vt 0.556163 0.610202
vt 0.562119 0.624422
vt 0.555851 0.626420
vt 0.460542 0.557541
vt 0.462086 0.550761
vt 0.313536 0.599386
vt 0.308429 0.595033
vt 0.328485 0.575991
vt 0.332658 0.581285
vt 0.558104 0.637448
vt 0.564827 0.636294
vt 0.988742 0.194073
vt 0.989218 0.211316
vt 0.985089 0.211430
vt 0.984613 0.194187
vt 0.885167 0.348577
vt 0.881471 0.348577
vt 0.881471 0.322617
vt 0.885167 0.322617
vt 0.885167 0.706777
vt 0.881471 0.706777
vt 0.881471 0.678937
vt 0.885167 0.678937
vt 0.885167 0.382061
vt 0.881471 0.382061
vt 0.881471 0.365491
vt 0.885167 0.365491
vt 0.885167 0.422699
vt 0.881471 0.422699
vt 0.881471 0.399701
vt 0.885167 0.399701
vt 0.885167 0.474390
vt 0.881471 0.474390
vt 0.881471 0.447843
vt 0.885167 0.447843
vt 0.653339 0.964939
vt 0.653339 0.968825
vt 0.628237 0.968825
vt 0.628237 0.964939
vt 0.885167 0.501929
vt 0.881471 0.501929
vt 0.521953 0.964939
vt 0.521953 0.968825
vt 0.482766 0.968825
vt 0.482766 0.964939
vt 0.595510 0.964939
vt 0.595510 0.968825
vt 0.559730 0.968825
vt 0.559730 0.964939
vt 0.885167 0.619494
vt 0.881471 0.619494
vt 0.881471 0.601854
vt 0.885167 0.601854
vt 0.885167 0.559742
vt 0.881471 0.559742
vt 0.881471 0.530627
vt 0.885167 0.530627
vt 0.885167 0.584858
vt 0.881471 0.584858
vt 0.885167 0.636063
vt 0.881471 0.636063
vt 0.881471 0.294777
vt 0.885167 0.294777
vt 0.354519 0.567639
vt 0.351436 0.561603
vt 0.371812 0.766670
vt 0.365797 0.777353
vt 0.343878 0.765724
vt 0.352296 0.756346
vt 0.324638 0.750120
vt 0.333685 0.743121
vt 0.531263 0.722094
vt 0.534379 0.711876
vt 0.548250 0.715344
vt 0.545939 0.726615
vt 0.528412 0.731524
vt 0.542178 0.736860
vt 0.308472 0.730656
vt 0.319031 0.726188
vt 0.296724 0.708958
vt 0.306614 0.707037
vt 0.465712 0.773156
vt 0.471343 0.784294
vt 0.443370 0.789011
vt 0.441169 0.776635
vt 0.416276 0.789052
vt 0.417293 0.776968
vt 0.520855 0.742106
vt 0.535078 0.748627
vt 0.509296 0.753851
vt 0.521660 0.761580
vt 0.290395 0.686859
vt 0.301664 0.687205
vt 0.390172 0.785124
vt 0.394173 0.773024
vt 0.489139 0.764523
vt 0.499171 0.774449
vt 0.534745 0.698658
vt 0.550197 0.700397
vt 0.997248 0.641581
vt 0.993117 0.641567
vt 0.993296 0.617722
vt 0.997427 0.617728
vt 0.989634 0.963440
vt 0.985506 0.963328
vt 0.985824 0.951822
vt 0.989953 0.951931
vt 0.986131 0.940887
vt 0.990260 0.940993
vt 0.986528 0.926910
vt 0.990657 0.927008
vt 0.987081 0.907617
vt 0.991210 0.907707
vt 0.987841 0.880832
vt 0.991971 0.880914
vt 0.988683 0.850646
vt 0.992813 0.850718
vt 0.995567 0.742845
vt 0.991436 0.742803
vt 0.991969 0.717822
vt 0.996100 0.717857
vt 0.992432 0.692731
vt 0.996563 0.692759
vt 0.989462 0.821966
vt 0.993592 0.822030
vt 0.990173 0.794806
vt 0.994303 0.794863
vt 0.990834 0.768415
vt 0.994964 0.768465
vt 0.992822 0.666947
vt 0.996953 0.666967
vt 0.556308 0.701668
vt 0.554258 0.717332
vt 0.563251 0.702527
vt 0.561080 0.718701
vt 0.503226 0.779234
vt 0.473742 0.789796
vt 0.526904 0.765471
vt 0.531250 0.770652
vt 0.506310 0.785312
vt 0.475587 0.796373
vt 0.388597 0.790887
vt 0.363281 0.782689
vt 0.415835 0.794975
vt 0.415255 0.801805
vt 0.386928 0.797514
vt 0.360496 0.788906
vt 0.286102 0.687432
vt 0.292467 0.710511
vt 0.286233 0.712882
vt 0.279561 0.688401
vt 0.540788 0.751839
vt 0.548073 0.739674
vt 0.554010 0.742509
vt 0.546166 0.755781
vt 0.444244 0.794877
vt 0.444847 0.801805
vt 0.304338 0.733329
vt 0.320806 0.753875
vt 0.315948 0.758548
vt 0.298684 0.736943
vt 0.551813 0.729057
vt 0.558315 0.731119
vt 0.988745 0.995681
vt 0.984617 0.995567
vt 0.985092 0.978323
vt 0.989221 0.978436
vt 0.315469 0.964939
vt 0.315469 0.968825
vt 0.291891 0.968825
vt 0.291891 0.964939
vt 0.885167 0.652977
vt 0.881471 0.652977
vt 0.364758 0.964939
vt 0.364758 0.968825
vt 0.340571 0.968825
vt 0.340571 0.964939
vt 0.230882 0.964939
vt 0.230882 0.968825
vt 0.191266 0.968825
vt 0.191266 0.964939
vt 0.441928 0.964939
vt 0.441928 0.968825
vt 0.400497 0.968825
vt 0.400497 0.964939
vt 0.267822 0.968825
vt 0.267822 0.964939
vt 0.700986 0.964939
vt 0.700986 0.968825
vt 0.676917 0.968825
vt 0.676917 0.964939
vt 0.777543 0.964939
vt 0.777543 0.968825
vt 0.737927 0.968825
vt 0.737927 0.964939
vt 0.340596 0.770380
vt 0.336717 0.775938
vt 0.533715 0.659565
vt 0.531215 0.681622
vt 0.530677 0.703814
vt 0.530652 0.654310
vt 0.527167 0.681344
vt 0.526924 0.708601
vt 0.522592 0.647982
vt 0.517887 0.680707
vt 0.518074 0.713767
vt 0.510234 0.640700
vt 0.504111 0.679761
vt 0.504837 0.719291
vt 0.489090 0.633247
vt 0.481562 0.678212
vt 0.482873 0.723784
vt 0.464907 0.626505
vt 0.456197 0.676470
vt 0.457996 0.727157
vt 0.439914 0.622302
vt 0.430606 0.674713
vt 0.432662 0.727904
vt 0.415736 0.619784
vt 0.406185 0.673036
vt 0.408366 0.727094
vt 0.392395 0.619512
vt 0.383036 0.671446
vt 0.385208 0.724172
vt 0.369835 0.620534
vt 0.360908 0.669927
vt 0.362999 0.720076
vt 0.350186 0.623891
vt 0.342110 0.668636
vt 0.343994 0.714064
vt 0.331494 0.628852
vt 0.324569 0.667431
vt 0.326155 0.706595
vt 0.316902 0.636110
vt 0.311501 0.666534
vt 0.312692 0.697410
vt 0.636296 0.829123
vt 0.661196 0.836937
vt 0.679835 0.853344
vt 0.656878 0.843481
vt 0.689422 0.841050
vt 0.704832 0.858957
vt 0.719789 0.841800
vt 0.731178 0.860636
vt 0.751252 0.839344
vt 0.758262 0.858489
vt 0.783471 0.833095
vt 0.786143 0.851726
vt 0.815084 0.822844
vt 0.813970 0.839996
vt 0.840485 0.810550
vt 0.836566 0.825596
vt 0.855113 0.798435
vt 0.849437 0.811214
vt 0.618545 0.810418
vt 0.644585 0.816771
vt 0.675007 0.820264
vt 0.708257 0.821130
vt 0.742969 0.819468
vt 0.778533 0.814781
vt 0.813230 0.806870
vt 0.841073 0.797266
vt 0.857380 0.787734
vt 0.604896 0.789019
vt 0.631587 0.793854
vt 0.663450 0.796804
vt 0.698670 0.797971
vt 0.735657 0.797366
vt 0.773629 0.794579
vt 0.810619 0.789397
vt 0.840350 0.782863
vt 0.858017 0.776241
vt 0.596576 0.766671
vt 0.623607 0.769311
vt 0.656286 0.771022
vt 0.692644 0.771835
vt 0.730962 0.771732
vt 0.770360 0.770479
vt 0.808729 0.767939
vt 0.839613 0.764639
vt 0.858126 0.761241
vt 0.593808 0.743991
vt 0.620943 0.743991
vt 0.653881 0.743991
vt 0.690607 0.743991
vt 0.729357 0.743991
vt 0.769221 0.743991
vt 0.808046 0.743991
vt 0.839314 0.743991
vt 0.858111 0.743991
vt 0.596576 0.721311
vt 0.623607 0.718671
vt 0.656286 0.716959
vt 0.692644 0.716147
vt 0.730962 0.716250
vt 0.770359 0.717502
vt 0.808729 0.720043
vt 0.839613 0.723343
vt 0.858126 0.726741
vt 0.604896 0.698963
vt 0.631587 0.694128
vt 0.663450 0.691178
vt 0.698670 0.690011
vt 0.735657 0.690616
vt 0.773629 0.693403
vt 0.810619 0.698585
vt 0.840350 0.705118
vt 0.858017 0.711741
vt 0.618545 0.677564
vt 0.644584 0.671210
vt 0.675007 0.667718
vt 0.708257 0.666851
vt 0.742968 0.668514
vt 0.778533 0.673200
vt 0.813230 0.681112
vt 0.841073 0.690716
vt 0.857380 0.700248
vt 0.636296 0.658859
vt 0.661195 0.651045
vt 0.689421 0.646932
vt 0.719789 0.646182
vt 0.751252 0.648638
vt 0.783471 0.654886
vt 0.815084 0.665138
vt 0.840485 0.677432
vt 0.855113 0.689547
vt 0.656877 0.644501
vt 0.679835 0.634638
vt 0.704832 0.629025
vt 0.731178 0.627346
vt 0.758262 0.629493
vt 0.786143 0.636255
vt 0.813970 0.647986
vt 0.836566 0.662385
vt 0.849437 0.676768
vt 0.781518 0.074636
vt 0.781520 0.073966
vt 0.787498 0.073966
vt 0.787499 0.074636
vt 0.787499 0.090675
vt 0.787498 0.091345
vt 0.781520 0.091345
vt 0.781518 0.090675
vt 0.787499 0.062986
vt 0.781518 0.062986
vt 0.508333 0.009313
vt 0.497353 0.009328
vt 0.497353 0.003404
vt 0.508333 0.003420
vt 0.781518 0.079718
vt 0.787499 0.079718
vt 0.787499 0.081187
vt 0.781518 0.081187
vt 0.667408 0.089929
vt 0.667408 0.084037
vt 0.678388 0.084021
vt 0.678388 0.089945
vt 0.787499 0.082656
vt 0.781518 0.082656
vt 0.781518 0.076864
vt 0.787499 0.076864
vt 0.787499 0.078256
vt 0.781518 0.078256
vt 0.787499 0.075629
vt 0.781518 0.075629
vt 0.781518 0.088447
vt 0.787499 0.088447
vt 0.787499 0.089682
vt 0.781518 0.089682
vt 0.781518 0.085593
vt 0.787499 0.085593
vt 0.787499 0.087055
vt 0.781518 0.087055
vt 0.787499 0.084124
vt 0.781518 0.084124
vt 0.678952 0.083659
vt 0.679887 0.083325
vt 0.681113 0.083174
vt 0.682465 0.083502
vt 0.683677 0.084320
vt 0.684490 0.085543
vt 0.684781 0.086983
vt 0.684490 0.088423
vt 0.683677 0.089646
vt 0.682465 0.090464
vt 0.681113 0.090792
vt 0.679887 0.090641
vt 0.678952 0.090308
vt 0.496789 0.009691
vt 0.495854 0.010024
vt 0.494628 0.010175
vt 0.493275 0.009847
vt 0.492064 0.009029
vt 0.491251 0.007806
vt 0.490960 0.006366
vt 0.491251 0.004927
vt 0.492064 0.003703
vt 0.493275 0.002885
vt 0.494628 0.002558
vt 0.495854 0.002708
vt 0.496789 0.003042
vt 0.781518 0.102325
vt 0.787499 0.102325
s 1
usemtl comic
f 163/1/1 65/2/2 4/3/3 57/4/4
f 64/5/5 163/1/1 57/4/4 3/6/6
f 66/7/7 8/8/8 61/9/9 164/10/10
f 164/10/10 61/9/9 6/11/11 67/12/12
f 165/13/13 68/14/14 5/15/15 58/16/16
f 65/2/2 165/13/13 58/16/16 4/3/3
f 166/17/17 70/18/18 2/19/19 55/20/20
f 69/21/21 166/17/17 55/20/20 1/22/22
f 71/23/23 7/24/24 62/25/25 167/26/26
f 167/26/26 62/25/25 8/8/8 66/7/7
f 168/27/27 72/28/28 31/29/29 59/30/30
f 68/14/14 168/27/27 59/30/30 5/15/15
f 169/31/31 64/5/5 3/6/6 56/32/32
f 70/18/18 169/31/31 56/32/32 2/19/19
f 69/21/21 1/22/22 63/33/33 170/34/34
f 170/34/34 63/33/33 7/24/24 71/23/23
f 67/12/12 6/11/11 60/35/35 171/36/36
f 171/36/36 60/35/35 30/37/37 73/38/38
f 13/39/39 74/40/40 172/41/41 108/42/42
f 74/40/40 35/43/43 111/44/43 172/41/41
f 12/45/44 75/46/45 173/47/46 84/48/44
f 75/46/45 11/49/47 109/50/48 173/47/46
f 11/49/47 76/51/49 174/52/50 109/50/48
f 76/51/49 24/53/51 106/54/52 174/52/50
f 24/53/51 77/55/53 175/56/54 106/54/52
f 77/55/53 15/57/55 85/58/56 175/56/54
f 10/59/57 78/60/58 176/61/59 83/62/60
f 78/60/58 9/63/61 110/64/62 176/61/59
f 15/57/55 79/65/63 177/66/64 85/58/56
f 79/65/63 14/67/65 107/68/66 177/66/64
f 14/67/65 80/69/67 178/70/68 107/68/66
f 80/69/67 10/59/57 83/62/60 178/70/68
f 9/63/61 81/71/69 179/72/70 110/64/62
f 81/71/69 13/39/39 108/42/42 179/72/70
f 6/11/11 86/73/71 180/74/72 60/35/35
f 86/73/71 16/75/73 97/76/74 180/74/72
f 180/74/72 97/76/74 52/77/75 95/78/76
f 60/35/35 180/74/72 95/78/76 30/37/37
f 1/22/22 90/79/77 181/80/78 63/33/33
f 90/79/77 20/81/79 98/82/80 181/80/78
f 181/80/78 98/82/80 22/83/81 92/84/82
f 63/33/33 181/80/78 92/84/82 7/24/24
f 3/6/6 94/85/83 182/86/84 56/32/32
f 94/85/83 23/87/85 99/88/86 182/86/84
f 182/86/84 99/88/86 21/89/87 91/90/88
f 56/32/32 182/86/84 91/90/88 2/19/19
f 31/29/29 93/91/89 183/92/90 59/30/30
f 93/91/89 50/93/91 100/94/92 183/92/90
f 183/92/90 100/94/92 19/95/93 89/96/94
f 59/30/30 183/92/90 89/96/94 5/15/15
f 7/24/24 92/84/82 184/97/95 62/25/25
f 92/84/82 22/83/81 101/98/96 184/97/95
f 184/97/95 101/98/96 17/99/97 87/100/98
f 62/25/25 184/97/95 87/100/98 8/8/8
f 2/19/19 91/90/88 185/101/99 55/20/20
f 91/90/88 21/89/87 102/102/100 185/101/99
f 185/101/99 102/102/100 20/81/79 90/79/77
f 55/20/20 185/101/99 90/79/77 1/22/22
f 5/15/15 89/96/94 186/103/101 58/16/16
f 89/96/94 19/95/93 103/104/102 186/103/101
f 186/103/101 103/104/102 18/105/103 88/106/104
f 58/16/16 186/103/101 88/106/104 4/3/3
f 8/8/8 87/100/98 187/107/105 61/9/9
f 87/100/98 17/99/97 104/108/106 187/107/105
f 187/107/105 104/108/106 16/75/73 86/73/71
f 61/9/9 187/107/105 86/73/71 6/11/11
f 54/109/107 82/110/108 188/111/108 105/112/107
f 82/110/108 12/45/44 84/48/44 188/111/108
f 13/113/109 19/114/110 100/115/111 74/116/112
f 54/117/113 52/118/113 97/119/114 82/120/114
f 9/121/115 18/122/116 103/123/117 81/124/118
f 81/124/118 103/123/117 19/114/110 13/113/109
f 10/125/119 23/126/120 96/127/121 78/128/122
f 78/128/122 96/127/121 18/122/116 9/121/115
f 14/129/123 21/130/123 99/131/124 80/132/125
f 80/132/125 99/131/124 23/126/120 10/125/119
f 36/133/126 45/134/127 149/135/128 133/136/129
f 79/137/130 102/138/131 21/130/123 14/129/123
f 41/139/132 48/140/132 155/141/133 134/142/134
f 37/143/135 51/144/136 152/145/137 135/146/138
f 11/147/139 17/148/140 101/149/141 76/150/142
f 77/151/143 98/152/144 20/153/145 15/154/146
f 24/155/147 22/156/148 98/152/144 77/151/143
f 75/157/149 104/158/150 17/148/140 11/147/139
f 74/116/112 100/115/111 50/159/151 35/160/151
f 76/150/142 101/149/141 22/156/148 24/155/147
f 4/3/3 88/106/104 189/161/152 57/4/4
f 88/106/104 18/105/103 96/162/153 189/161/152
f 189/161/152 96/162/153 23/87/85 94/85/83
f 57/4/4 189/161/152 94/85/83 3/6/6
f 121/163/154 27/164/155 114/165/156 190/166/157
f 190/166/157 114/165/156 28/167/158 122/168/159
f 191/169/160 124/170/161 32/171/162 118/172/163
f 123/173/164 191/169/160 118/172/163 34/174/165
f 122/168/159 28/167/158 115/175/166 192/176/167
f 192/176/167 115/175/166 29/177/168 125/178/169
f 126/179/170 25/180/171 112/181/172 193/182/173
f 193/182/173 112/181/172 26/183/174 127/184/175
f 194/185/176 123/173/164 34/174/165 119/186/177
f 128/187/178 194/185/176 119/186/177 33/188/179
f 125/178/169 29/177/168 116/189/180 195/190/181
f 195/190/181 116/189/180 31/29/29 72/28/28
f 127/184/175 26/183/174 113/191/182 196/192/183
f 196/192/183 113/191/182 27/164/155 121/163/154
f 197/193/184 128/187/178 33/188/179 120/194/185
f 126/179/170 197/193/184 120/194/185 25/180/171
f 198/195/186 73/38/38 30/37/37 117/196/187
f 124/170/161 198/195/186 117/196/187 32/171/162
f 40/197/188 160/198/189 199/199/190 129/200/191
f 129/200/191 199/199/190 111/44/43 35/43/43
f 39/201/192 139/202/192 200/203/193 130/204/194
f 130/204/194 200/203/193 161/205/195 38/206/196
f 38/206/196 161/205/195 201/207/197 131/208/198
f 131/208/198 201/207/197 158/209/199 53/210/200
f 53/210/200 158/209/199 202/211/201 132/212/202
f 132/212/202 202/211/201 140/213/203 42/214/204
f 37/215/205 138/216/206 203/217/207 133/218/208
f 133/218/208 203/217/207 162/219/209 36/220/210
f 42/214/204 140/213/203 204/221/211 134/222/212
f 134/222/212 204/221/211 159/223/213 41/224/214
f 41/224/214 159/223/213 205/225/215 135/226/216
f 135/226/216 205/225/215 138/216/206 37/215/205
f 36/220/210 162/219/209 206/227/217 136/228/218
f 136/228/218 206/227/217 160/198/189 40/197/188
f 15/154/146 20/153/145 102/138/131 79/137/130
f 32/171/162 117/196/187 207/229/219 141/230/220
f 117/196/187 30/37/37 95/78/76 207/229/219
f 207/229/219 95/78/76 52/77/75 150/231/221
f 141/230/220 207/229/219 150/231/221 43/232/222
f 25/180/171 120/194/185 208/233/223 145/234/224
f 120/194/185 33/188/179 147/235/225 208/233/223
f 208/233/223 147/235/225 49/236/226 151/237/227
f 145/234/224 208/233/223 151/237/227 47/238/228
f 27/164/155 113/191/182 209/239/229 148/240/230
f 113/191/182 26/183/174 146/241/231 209/239/229
f 209/239/229 146/241/231 48/242/232 152/243/233
f 148/240/230 209/239/229 152/243/233 51/244/234
f 31/29/29 116/189/180 210/245/235 93/91/89
f 116/189/180 29/177/168 144/246/236 210/245/235
f 210/245/235 144/246/236 46/247/237 153/248/238
f 93/91/89 210/245/235 153/248/238 50/93/91
f 33/188/179 119/186/177 211/249/239 147/235/225
f 119/186/177 34/174/165 142/250/240 211/249/239
f 211/249/239 142/250/240 44/251/241 154/252/242
f 147/235/225 211/249/239 154/252/242 49/236/226
f 26/183/174 112/181/172 212/253/243 146/241/231
f 112/181/172 25/180/171 145/234/224 212/253/243
f 212/253/243 145/234/224 47/238/228 155/254/244
f 146/241/231 212/253/243 155/254/244 48/242/232
f 29/177/168 115/175/166 213/255/245 144/246/236
f 115/175/166 28/167/158 143/256/246 213/255/245
f 213/255/245 143/256/246 45/257/247 156/258/248
f 144/246/236 213/255/245 156/258/248 46/247/237
f 34/174/165 118/172/163 214/259/249 142/250/240
f 118/172/163 32/171/162 141/230/220 214/259/249
f 214/259/249 141/230/220 43/232/222 157/260/250
f 142/250/240 214/259/249 157/260/250 44/251/241
f 54/261/107 105/262/107 215/263/251 137/264/251
f 137/264/251 215/263/251 139/202/192 39/201/192
f 38/265/252 44/266/253 157/267/254 130/268/255
f 12/269/256 16/270/256 104/158/150 75/157/149
f 53/271/257 49/272/258 154/273/259 131/274/260
f 137/275/261 150/276/261 52/277/113 54/278/113
f 42/279/262 47/280/263 151/281/264 132/282/265
f 130/268/255 157/267/254 43/283/266 39/284/266
f 131/274/260 154/273/259 44/266/253 38/265/252
f 135/146/138 152/145/137 48/140/132 41/139/132
f 132/282/265 151/281/264 49/272/258 53/271/257
f 40/285/267 46/286/268 156/287/269 136/288/270
f 134/142/134 155/141/133 47/280/263 42/279/262
f 39/284/266 43/283/266 150/276/261 137/275/261
f 133/136/129 149/135/128 51/144/136 37/143/135
f 35/289/151 50/290/151 153/291/271 129/292/272
f 129/292/272 153/291/271 46/286/268 40/285/267
f 82/120/114 97/119/114 16/270/256 12/269/256
f 136/288/270 156/287/269 45/134/127 36/133/126
f 28/167/158 114/165/156 216/293/273 143/256/246
f 114/165/156 27/164/155 148/240/230 216/293/273
f 216/293/273 148/240/230 51/244/234 149/294/274
f 143/256/246 216/293/273 149/294/274 45/257/247
f 67/12/12 171/36/36 217/295/275 164/10/10
f 171/36/36 73/38/38 230/296/275 217/295/275
f 73/38/38 198/195/186 243/297/275 230/296/275
f 198/195/186 124/170/161 191/169/160 243/297/275
f 164/10/10 217/295/275 218/298/275 66/7/7
f 217/295/275 230/296/275 231/299/275 218/298/275
f 230/296/275 243/297/275 244/300/275 231/299/275
f 243/297/275 191/169/160 123/173/164 244/300/275
f 66/7/7 218/298/275 219/301/275 167/26/26
f 218/298/275 231/299/275 232/302/275 219/301/275
f 231/299/275 244/300/275 245/303/275 232/302/275
f 244/300/275 123/173/164 194/185/176 245/303/275
f 167/26/26 219/301/275 220/304/275 71/23/23
f 219/301/275 232/302/275 233/305/275 220/304/275
f 232/302/275 245/303/275 246/306/275 233/305/275
f 245/303/275 194/185/176 128/187/178 246/306/275
f 71/23/23 220/304/275 221/307/275 170/34/34
f 220/304/275 233/305/275 234/308/275 221/307/275
f 233/305/275 246/306/275 247/309/275 234/308/275
f 246/306/275 128/187/178 197/193/184 247/309/275
f 170/34/34 221/307/275 222/310/275 69/21/21
f 221/307/275 234/308/275 235/311/275 222/310/275
f 234/308/275 247/309/275 248/312/275 235/311/275
f 247/309/275 197/193/184 126/179/170 248/312/275
f 69/21/21 222/310/275 223/313/275 166/17/17
f 222/310/275 235/311/275 236/314/275 223/313/275
f 235/311/275 248/312/275 249/315/275 236/314/275
f 248/312/275 126/179/170 193/182/173 249/315/275
f 166/17/17 223/313/275 224/316/275 70/18/18
f 223/313/275 236/314/275 237/317/275 224/316/275
f 236/314/275 249/315/275 250/318/275 237/317/275
f 249/315/275 193/182/173 127/184/175 250/318/275
f 70/18/18 224/316/275 225/319/275 169/31/31
f 224/316/275 237/317/275 238/320/275 225/319/275
f 237/317/275 250/318/275 251/321/275 238/320/275
f 250/318/275 127/184/175 196/192/183 251/321/275
f 169/31/31 225/319/275 226/322/275 64/5/5
f 225/319/275 238/320/275 239/323/275 226/322/275
f 238/320/275 251/321/275 252/324/275 239/323/275
f 251/321/275 196/192/183 121/163/154 252/324/275
f 64/5/5 226/322/275 227/325/275 163/1/1
f 226/322/275 239/323/275 240/326/275 227/325/275
f 239/323/275 252/324/275 253/327/275 240/326/275
f 252/324/275 121/163/154 190/166/157 253/327/275
f 163/1/1 227/325/275 228/328/275 65/2/2
f 227/325/275 240/326/275 241/329/275 228/328/275
f 240/326/275 253/327/275 254/330/275 241/329/275
f 253/327/275 190/166/157 122/168/159 254/330/275
f 65/2/2 228/328/275 229/331/275 165/13/13
f 228/328/275 241/329/275 242/332/275 229/331/275
f 241/329/275 254/330/275 255/333/275 242/332/275
f 254/330/275 122/168/159 192/176/167 255/333/275
f 165/13/13 229/331/275 168/27/27 68/14/14
f 229/331/275 242/332/275 72/28/28 168/27/27
f 242/332/275 255/333/275 195/190/181 72/28/28
f 255/333/275 192/176/167 125/178/169 195/190/181
f 110/334/276 256/335/276 83/336/276 176/337/276
f 256/335/276 265/338/276 178/339/276 83/336/276
f 265/338/276 274/340/276 107/341/276 178/339/276
f 274/340/276 283/342/276 177/343/276 107/341/276
f 283/342/276 292/344/276 85/345/276 177/343/276
f 292/344/276 301/346/276 175/347/276 85/345/276
f 301/346/276 310/348/276 106/349/276 175/347/276
f 310/348/276 109/350/276 174/351/276 106/349/276
f 179/352/276 257/353/276 256/335/276 110/334/276
f 257/353/276 266/354/276 265/338/276 256/335/276
f 266/354/276 275/355/276 274/340/276 265/338/276
f 275/355/276 284/356/276 283/342/276 274/340/276
f 284/356/276 293/357/276 292/344/276 283/342/276
f 293/357/276 302/358/276 301/346/276 292/344/276
f 302/358/276 311/359/276 310/348/276 301/346/276
f 311/359/276 173/360/276 109/350/276 310/348/276
f 108/361/276 258/362/276 257/353/276 179/352/276
f 258/362/276 267/363/276 266/354/276 257/353/276
f 267/363/276 276/364/276 275/355/276 266/354/276
f 276/364/276 285/365/276 284/356/276 275/355/276
f 285/365/276 294/366/276 293/357/276 284/356/276
f 294/366/276 303/367/276 302/358/276 293/357/276
f 303/367/276 312/368/276 311/359/276 302/358/276
f 312/368/276 84/369/276 173/360/276 311/359/276
f 172/370/276 259/371/276 258/362/276 108/361/276
f 259/371/276 268/372/276 267/363/276 258/362/276
f 268/372/276 277/373/276 276/364/276 267/363/276
f 277/373/276 286/374/276 285/365/276 276/364/276
f 286/374/276 295/375/276 294/366/276 285/365/276
f 295/375/276 304/376/276 303/367/276 294/366/276
f 304/376/276 313/377/276 312/368/276 303/367/276
f 313/377/276 188/378/276 84/369/276 312/368/276
f 111/379/276 260/380/276 259/371/276 172/370/276
f 260/380/276 269/381/276 268/372/276 259/371/276
f 269/381/276 278/382/276 277/373/276 268/372/276
f 278/382/276 287/383/276 286/374/276 277/373/276
f 287/383/276 296/384/276 295/375/276 286/374/276
f 296/384/276 305/385/276 304/376/276 295/375/276
f 305/385/276 314/386/276 313/377/276 304/376/276
f 314/386/276 105/387/276 188/378/276 313/377/276
f 199/388/276 261/389/276 260/380/276 111/379/276
f 261/389/276 270/390/276 269/381/276 260/380/276
f 270/390/276 279/391/276 278/382/276 269/381/276
f 279/391/276 288/392/276 287/383/276 278/382/276
f 288/392/276 297/393/276 296/384/276 287/383/276
f 297/393/276 306/394/276 305/385/276 296/384/276
f 306/394/276 315/395/276 314/386/276 305/385/276
f 315/395/276 215/396/276 105/387/276 314/386/276
f 160/397/276 262/398/276 261/389/276 199/388/276
f 262/398/276 271/399/276 270/390/276 261/389/276
f 271/399/276 280/400/276 279/391/276 270/390/276
f 280/400/276 289/401/276 288/392/276 279/391/276
f 289/401/276 298/402/276 297/393/276 288/392/276
f 298/402/276 307/403/276 306/394/276 297/393/276
f 307/403/276 316/404/276 315/395/276 306/394/276
f 316/404/276 139/405/276 215/396/276 315/395/276
f 206/406/276 263/407/276 262/398/276 160/397/276
f 263/407/276 272/408/276 271/399/276 262/398/276
f 272/408/276 281/409/276 280/400/276 271/399/276
f 281/409/276 290/410/276 289/401/276 280/400/276
f 290/410/276 299/411/276 298/402/276 289/401/276
f 299/411/276 308/412/276 307/403/276 298/402/276
f 308/412/276 317/413/276 316/404/276 307/403/276
f 317/413/276 200/414/276 139/405/276 316/404/276
f 162/415/276 264/416/276 263/407/276 206/406/276
f 264/416/276 273/417/276 272/408/276 263/407/276
f 273/417/276 282/418/276 281/409/276 272/408/276
f 282/418/276 291/419/276 290/410/276 281/409/276
f 291/419/276 300/420/276 299/411/276 290/410/276
f 300/420/276 309/421/276 308/412/276 299/411/276
f 309/421/276 318/422/276 317/413/276 308/412/276
f 318/422/276 161/423/276 200/414/276 317/413/276
f 203/424/276 138/425/276 264/416/276 162/415/276
f 138/425/276 205/426/276 273/417/276 264/416/276
f 205/426/276 159/427/276 282/418/276 273/417/276
f 159/427/276 204/428/276 291/419/276 282/418/276
f 204/428/276 140/429/276 300/420/276 291/419/276
f 140/429/276 202/430/276 309/421/276 300/420/276
f 202/430/276 158/431/276 318/422/276 309/421/276
f 158/431/276 201/432/276 161/423/276 318/422/276
f 319/433/277 328/434/278 346/435/278 335/436/277
f 336/437/279 343/438/280 344/439/280 320/440/279
f 342/441/281 346/435/278 328/434/278 326/442/281
f 326/443/282 328/444/283 344/445/283 327/446/282
f 321/447/284 337/448/284 347/449/285 329/450/285
f 342/451/286 345/452/286 343/453/287 346/454/287
f 329/450/285 347/449/285 338/455/288 322/456/288
f 323/457/289 339/458/289 348/459/290 330/460/290
f 330/460/290 348/459/290 337/448/284 321/447/284
f 319/433/277 335/436/277 349/461/291 331/462/291
f 331/462/291 349/461/291 339/458/289 323/457/289
f 324/463/292 340/464/292 350/465/293 332/466/293
f 332/466/293 350/465/293 336/437/279 320/440/279
f 325/467/294 341/468/294 351/469/295 333/470/295
f 333/470/295 351/469/295 340/464/292 324/463/292
f 322/456/288 338/455/288 352/471/296 334/472/296
f 334/472/296 352/471/296 341/468/294 325/467/294
f 343/453/287 336/473/297 350/474/297 340/475/297 351/476/297 341/477/297 352/478/297 338/479/297 347/480/297 337/481/297 348/482/297 339/483/297 349/484/297 335/485/297 346/454/287
f 328/444/283 319/486/298 331/487/298 323/488/298 330/489/298 321/490/298 329/491/298 322/492/298 334/493/298 325/494/298 333/495/298 324/496/298 332/497/298 320/498/298 344/445/283
f 327/499/299 344/439/280 343/438/280 345/500/299
f 353/433/277 369/436/277 380/435/278 362/434/278
f 370/437/279 354/440/279 378/439/280 377/438/280
f 376/441/281 360/442/281 362/434/278 380/435/278
f 360/443/286 361/446/286 378/445/287 362/444/287
f 355/447/284 363/450/285 381/449/285 371/448/284
f 376/451/282 380/454/283 377/453/283 379/452/282
f 363/450/285 356/456/288 372/455/288 381/449/285
f 357/457/289 364/460/290 382/459/290 373/458/289
f 364/460/290 355/447/284 371/448/284 382/459/290
f 353/433/277 365/462/291 383/461/291 369/436/277
f 365/462/291 357/457/289 373/458/289 383/461/291
f 358/463/292 366/466/293 384/465/293 374/464/292
f 366/466/293 354/440/279 370/437/279 384/465/293
f 359/467/294 367/470/295 385/469/295 375/468/294
f 367/470/295 358/463/292 374/464/292 385/469/295
f 356/456/288 368/472/296 386/471/296 372/455/288
f 368/472/296 359/467/294 375/468/294 386/471/296
f 377/453/283 380/454/283 369/485/298 383/484/298 373/483/298 382/482/298 371/481/298 381/480/298 372/479/298 386/478/298 375/477/298 385/476/298 374/475/298 384/474/298 370/473/298
f 362/444/287 378/445/287 354/498/297 366/497/297 358/496/297 367/495/297 359/494/297 368/493/297 356/492/297 363/491/297 355/490/297 364/489/297 357/488/297 365/487/297 353/486/297
f 361/499/299 379/500/299 377/438/280 378/439/280
